<svg width="60" height="57" viewBox="0 0 60 57" fill="none" xmlns="http://www.w3.org/2000/svg">
<path d="M47.5 44.9167C47.5 45.5576 47.7634 46.1723 48.2322 46.6255C48.7011 47.0787 49.337 47.3333 50 47.3333C50.663 47.3333 51.2989 47.0787 51.7678 46.6255C52.2366 46.1723 52.5 45.5576 52.5 44.9167V11.0833C52.5 10.4424 52.2366 9.8277 51.7678 9.37448C51.2989 8.92127 50.663 8.66666 50 8.66666C49.337 8.66666 48.7011 8.92127 48.2322 9.37448C47.7634 9.8277 47.5 10.4424 47.5 11.0833V44.9167ZM28.2425 16.0375C28.0101 16.2619 27.8257 16.5285 27.6999 16.8218C27.574 17.1152 27.5093 17.4297 27.5093 17.7473C27.5093 18.0649 27.574 18.3793 27.6999 18.6727C27.8257 18.9661 28.0101 19.2326 28.2425 19.4571L34.5825 25.5833H10C9.33696 25.5833 8.70107 25.8379 8.23223 26.2911C7.76339 26.7444 7.5 27.3591 7.5 28C7.5 28.6409 7.76339 29.2556 8.23223 29.7088C8.70107 30.162 9.33696 30.4167 10 30.4167H34.5825L28.2425 36.5453C27.7737 36.9988 27.5105 37.6137 27.5107 38.2548C27.511 38.8958 27.7746 39.5106 28.2437 39.9637C28.7129 40.4168 29.349 40.6713 30.0121 40.6711C30.6753 40.6708 31.3112 40.416 31.78 39.9625L42.385 29.7086C42.8537 29.2554 43.117 28.6408 43.117 28C43.117 27.3592 42.8537 26.7446 42.385 26.2914L31.78 16.0375C31.5478 15.8128 31.2721 15.6345 30.9686 15.5129C30.6651 15.3913 30.3398 15.3287 30.0113 15.3287C29.6827 15.3287 29.3574 15.3913 29.0539 15.5129C28.7504 15.6345 28.4747 15.8128 28.2425 16.0375Z" fill="black"/>
</svg>
