<svg width="34" height="34" viewBox="0 0 34 34" fill="none" xmlns="http://www.w3.org/2000/svg">
<path d="M16.9291 25.4999C17.4249 25.4999 17.8443 25.3285 18.1871 24.9857C18.5299 24.6428 18.7009 24.224 18.6999 23.7291C18.699 23.2342 18.528 22.8149 18.1871 22.4711C17.8461 22.1273 17.4268 21.9564 16.9291 21.9583C16.4314 21.9601 16.0125 22.1316 15.6725 22.4725C15.3325 22.8135 15.1611 23.2323 15.1583 23.7291C15.1554 24.2259 15.3268 24.6452 15.6725 24.9871C16.0182 25.329 16.437 25.4999 16.9291 25.4999ZM15.6541 20.0458H18.2749C18.2749 19.2666 18.3637 18.6527 18.5413 18.2041C18.7188 17.7555 19.2203 17.1416 20.0458 16.3624C20.6596 15.7485 21.1437 15.1639 21.4978 14.6086C21.852 14.0533 22.0291 13.3865 22.0291 12.6083C22.0291 11.286 21.5451 10.2708 20.577 9.56243C19.6089 8.85409 18.4638 8.49993 17.1416 8.49993C15.7958 8.49993 14.704 8.85409 13.8663 9.56243C13.0285 10.2708 12.4439 11.1208 12.1124 12.1124L14.4499 13.0333C14.568 12.6083 14.8338 12.1478 15.2475 11.652C15.6612 11.1562 16.2925 10.9083 17.1416 10.9083C17.8971 10.9083 18.4638 11.1151 18.8416 11.5288C19.2194 11.9424 19.4083 12.3967 19.4083 12.8916C19.4083 13.3638 19.2666 13.8068 18.9833 14.2204C18.6999 14.6341 18.3458 15.0175 17.9208 15.3708C16.8819 16.2916 16.2444 16.9881 16.0083 17.4603C15.7721 17.9326 15.6541 18.7944 15.6541 20.0458ZM16.9999 31.1666C15.0402 31.1666 13.1985 30.795 11.4749 30.0517C9.75131 29.3084 8.252 28.2988 6.977 27.0228C5.702 25.7469 4.69287 24.2476 3.94959 22.5249C3.20631 20.8023 2.8342 18.9606 2.83325 16.9999C2.83231 15.0393 3.20442 13.1976 3.94959 11.4749C4.69475 9.75226 5.70389 8.25295 6.977 6.97701C8.25012 5.70106 9.74942 4.69193 11.4749 3.94959C13.2004 3.20726 15.0421 2.83515 16.9999 2.83326C18.9578 2.83137 20.7994 3.20348 22.5249 3.94959C24.2504 4.6957 25.7497 5.70484 27.0228 6.97701C28.296 8.24918 29.3056 9.74848 30.0517 11.4749C30.7978 13.2014 31.1694 15.043 31.1666 16.9999C31.1638 18.9568 30.7916 20.7985 30.0503 22.5249C29.3089 24.2514 28.2997 25.7507 27.0228 27.0228C25.746 28.295 24.2466 29.3046 22.5249 30.0517C20.8032 30.7987 18.9615 31.1704 16.9999 31.1666ZM16.9999 28.3333C20.1638 28.3333 22.8437 27.2353 25.0395 25.0395C27.2353 22.8437 28.3333 20.1638 28.3333 16.9999C28.3333 13.836 27.2353 11.1562 25.0395 8.96034C22.8437 6.76451 20.1638 5.66659 16.9999 5.66659C13.836 5.66659 11.1562 6.76451 8.96034 8.96034C6.7645 11.1562 5.66659 13.836 5.66659 16.9999C5.66659 20.1638 6.7645 22.8437 8.96034 25.0395C11.1562 27.2353 13.836 28.3333 16.9999 28.3333Z" fill="#699BF7"/>
</svg>
