<svg width="5" height="5" viewBox="0 0 5 5" fill="none" xmlns="http://www.w3.org/2000/svg">
<path d="M4.75002 1.4831e-06C4.71716 -0.000111928 4.68461 0.0062801 4.65423 0.0188091C4.62386 0.031338 4.59626 0.0497561 4.57304 0.0730015L0.0734408 4.573C0.0383905 4.60797 0.0145104 4.65255 0.0048279 4.70111C-0.00485463 4.74966 9.64801e-05 4.8 0.0190535 4.84573C0.0380106 4.89147 0.0701199 4.93055 0.111311 4.95801C0.152502 4.98548 0.200919 5.00009 0.250425 5H4.75002C4.81632 5 4.8799 4.97366 4.92678 4.92678C4.97366 4.87989 5 4.81631 5 4.75V0.250001C5 0.217171 4.99353 0.184662 4.98097 0.154331C4.96841 0.123999 4.95 0.0964394 4.92678 0.0732248C4.90357 0.0500101 4.87601 0.0315953 4.84568 0.0190316C4.81536 0.00646792 4.78285 1.4831e-06 4.75002 1.4831e-06Z" fill="white"/>
</svg>
