<svg width="18" height="18" viewBox="0 0 18 18" fill="none" xmlns="http://www.w3.org/2000/svg">
<path d="M9 1.125C7.44248 1.125 5.91992 1.58686 4.62489 2.45218C3.32985 3.31749 2.32049 4.5474 1.72445 5.98637C1.12841 7.42534 0.972461 9.00874 1.27632 10.5363C1.58018 12.0639 2.3302 13.4671 3.43154 14.5685C4.53288 15.6698 5.93607 16.4198 7.46367 16.7237C8.99127 17.0275 10.5747 16.8716 12.0136 16.2756C13.4526 15.6795 14.6825 14.6702 15.5478 13.3751C16.4131 12.0801 16.875 10.5575 16.875 9C16.875 6.91142 16.0453 4.90838 14.5685 3.43153C13.0916 1.95469 11.0886 1.125 9 1.125ZM9 15.75C7.66498 15.75 6.35994 15.3541 5.2499 14.6124C4.13987 13.8707 3.27471 12.8165 2.76382 11.5831C2.25293 10.3497 2.11925 8.99251 2.3797 7.68314C2.64015 6.37377 3.28303 5.17103 4.22703 4.22703C5.17104 3.28302 6.37377 2.64015 7.68314 2.3797C8.99252 2.11925 10.3497 2.25292 11.5831 2.76381C12.8165 3.2747 13.8707 4.13987 14.6124 5.2499C15.3541 6.35993 15.75 7.66498 15.75 9C15.75 10.7902 15.0388 12.5071 13.773 13.773C12.5071 15.0388 10.7902 15.75 9 15.75Z" fill="#121F24"/>
<path d="M6.46875 6.1875C6.19062 6.1875 5.91874 6.26998 5.68748 6.4245C5.45623 6.57902 5.27598 6.79864 5.16955 7.0556C5.06311 7.31256 5.03526 7.59531 5.08952 7.8681C5.14378 8.14088 5.27772 8.39145 5.47438 8.58812C5.67105 8.78479 5.92162 8.91872 6.19441 8.97298C6.46719 9.02724 6.74994 8.99939 7.0069 8.89296C7.26386 8.78652 7.48349 8.60628 7.63801 8.37502C7.79253 8.14376 7.875 7.87188 7.875 7.59375C7.8765 7.40866 7.84115 7.22512 7.77101 7.05383C7.70087 6.88254 7.59735 6.72692 7.46646 6.59604C7.33558 6.46516 7.17996 6.36163 7.00867 6.29149C6.83738 6.22135 6.65384 6.186 6.46875 6.1875Z" fill="#121F24"/>
<path d="M11.5313 6.1875C11.2531 6.1875 10.9812 6.26998 10.75 6.4245C10.5187 6.57902 10.3385 6.79864 10.232 7.0556C10.1256 7.31256 10.0978 7.59531 10.152 7.8681C10.2063 8.14088 10.3402 8.39145 10.5369 8.58812C10.7336 8.78479 10.9841 8.91872 11.2569 8.97298C11.5297 9.02724 11.8124 8.99939 12.0694 8.89296C12.3264 8.78652 12.546 8.60628 12.7005 8.37502C12.855 8.14376 12.9375 7.87188 12.9375 7.59375C12.939 7.40866 12.9037 7.22512 12.8335 7.05383C12.7634 6.88254 12.6598 6.72692 12.529 6.59604C12.3981 6.46516 12.2425 6.36163 12.0712 6.29149C11.8999 6.22135 11.7163 6.186 11.5313 6.1875Z" fill="#121F24"/>
<path d="M9 13.5C9.77646 13.4987 10.5394 13.2965 11.2146 12.9131C11.8897 12.5296 12.4542 11.978 12.8531 11.3119L11.8913 10.7494C11.5911 11.2479 11.1671 11.6603 10.6605 11.9466C10.1539 12.2329 9.5819 12.3833 9 12.3833C8.41811 12.3833 7.8461 12.2329 7.3395 11.9466C6.83291 11.6603 6.40894 11.2479 6.10875 10.7494L5.14688 11.3119C5.54578 11.978 6.11027 12.5296 6.78545 12.9131C7.46064 13.2965 8.22355 13.4987 9 13.5Z" fill="#121F24"/>
</svg>
