<svg width="250" height="181" viewBox="0 0 250 181" fill="none" xmlns="http://www.w3.org/2000/svg">
<path d="M249.677 179.982H0.837158V180.71H249.677V179.982Z" fill="#CCCCCC"/>
<path d="M249.677 144.335H0.837158V145.062H249.677V144.335Z" fill="#CCCCCC"/>
<path d="M249.677 108.688H0.837158V109.415H249.677V108.688Z" fill="#CCCCCC"/>
<path d="M249.677 72.3125H0.837158V73.04H249.677V72.3125Z" fill="#CCCCCC"/>
<path d="M249.677 36.6649H0.837158V37.3924H249.677V36.6649Z" fill="#CCCCCC"/>
<path d="M249.677 1.01746H0.837158V1.74496H249.677V1.01746Z" fill="#CCCCCC"/>
<path d="M249.677 161.795H0.837158V162.522H249.677V161.795Z" fill="#EBEBEB"/>
<path d="M249.677 126.147H0.837158V126.875H249.677V126.147Z" fill="#EBEBEB"/>
<path d="M249.677 90.5H0.837158V91.2275H249.677V90.5Z" fill="#EBEBEB"/>
<path d="M249.677 54.8524H0.837158V55.5799H249.677V54.8524Z" fill="#EBEBEB"/>
<path d="M249.677 19.205H0.837158V19.9325H249.677V19.205Z" fill="#EBEBEB"/>
<path d="M249.677 179.982H0.837158V180.71H249.677V179.982Z" fill="#333333"/>
<path d="M21.788 1.38123C21.788 1.38123 49.3798 13.3122 63.1756 37.1742C76.9715 61.0362 90.7674 138.588 104.563 144.553C118.359 150.519 132.155 81.9155 145.951 72.9672C159.747 64.019 173.543 96.8292 187.338 90.8637C201.134 84.8982 228.726 37.1742 228.726 37.1742" stroke="#4D9E6F" stroke-width="2"/>
<path d="M21.788 126.657C21.788 126.657 49.3798 156.484 63.1756 144.553C76.9715 132.622 90.7674 55.0707 104.563 55.0707C118.359 55.0707 132.155 144.553 145.951 144.553C159.747 144.553 173.543 58.0534 187.338 55.0707C201.134 52.0879 228.726 126.657 228.726 126.657" stroke="#67E3FF" stroke-width="2"/>
<path d="M21.788 90.8637C21.788 90.8637 49.3798 141.57 63.1756 144.553C76.9715 147.536 90.7674 105.777 104.563 108.76C118.359 111.743 132.155 168.415 145.951 162.45C159.747 156.484 173.543 96.8292 187.338 72.9672C201.134 49.1052 228.726 19.2777 228.726 19.2777" stroke="#8A8A8A" stroke-width="2"/>
</svg>
