<svg width="34" height="34" viewBox="0 0 34 34" fill="none" xmlns="http://www.w3.org/2000/svg">
<path d="M16.9291 25.5C17.425 25.5 17.8443 25.3286 18.1871 24.9857C18.53 24.6429 18.7009 24.224 18.7 23.7292C18.699 23.2343 18.5281 22.8149 18.1871 22.4712C17.8462 22.1274 17.4269 21.9564 16.9291 21.9583C16.4314 21.9602 16.0126 22.1316 15.6726 22.4726C15.3326 22.8135 15.1611 23.2324 15.1583 23.7292C15.1555 24.2259 15.3269 24.6453 15.6726 24.9872C16.0182 25.329 16.4371 25.5 16.9291 25.5ZM15.6541 20.0458H18.275C18.275 19.2667 18.3638 18.6528 18.5413 18.2042C18.7189 17.7555 19.2204 17.1417 20.0458 16.3625C20.6597 15.7486 21.1437 15.164 21.4979 14.6087C21.8521 14.0533 22.0291 13.3865 22.0291 12.6083C22.0291 11.2861 21.5451 10.2708 20.5771 9.56249C19.609 8.85415 18.4639 8.49999 17.1416 8.49999C15.7958 8.49999 14.704 8.85415 13.8663 9.56249C13.0286 10.2708 12.444 11.1208 12.1125 12.1125L14.45 13.0333C14.568 12.6083 14.8339 12.1479 15.2476 11.6521C15.6612 11.1562 16.2926 10.9083 17.1416 10.9083C17.8972 10.9083 18.4639 11.1152 18.8416 11.5288C19.2194 11.9425 19.4083 12.3968 19.4083 12.8917C19.4083 13.3639 19.2666 13.8068 18.9833 14.2205C18.7 14.6342 18.3458 15.0176 17.9208 15.3708C16.8819 16.2917 16.2444 16.9882 16.0083 17.4604C15.7722 17.9326 15.6541 18.7944 15.6541 20.0458ZM17 31.1667C15.0403 31.1667 13.1986 30.795 11.475 30.0517C9.75137 29.3085 8.25207 28.2988 6.97707 27.0229C5.70207 25.747 4.69293 24.2477 3.94965 22.525C3.20637 20.8023 2.83426 18.9607 2.83331 17C2.83237 15.0393 3.20448 13.1977 3.94965 11.475C4.69482 9.75232 5.70395 8.25301 6.97707 6.97707C8.25018 5.70113 9.74948 4.69199 11.475 3.94965C13.2005 3.20732 15.0421 2.83521 17 2.83332C18.9578 2.83143 20.7995 3.20354 22.525 3.94965C24.2505 4.69576 25.7498 5.7049 27.0229 6.97707C28.296 8.24924 29.3056 9.74854 30.0517 11.475C30.7978 13.2014 31.1695 15.0431 31.1667 17C31.1638 18.9569 30.7917 20.7985 30.0503 22.525C29.3089 24.2514 28.2998 25.7507 27.0229 27.0229C25.746 28.2951 24.2467 29.3047 22.525 30.0517C20.8033 30.7988 18.9616 31.1704 17 31.1667ZM17 28.3333C20.1639 28.3333 22.8437 27.2354 25.0396 25.0396C27.2354 22.8437 28.3333 20.1639 28.3333 17C28.3333 13.8361 27.2354 11.1562 25.0396 8.9604C22.8437 6.76457 20.1639 5.66665 17 5.66665C13.8361 5.66665 11.1562 6.76457 8.9604 8.9604C6.76456 11.1562 5.66665 13.8361 5.66665 17C5.66665 20.1639 6.76456 22.8437 8.9604 25.0396C11.1562 27.2354 13.8361 28.3333 17 28.3333Z" fill="#699BF7"/>
</svg>
