<svg width="60" height="57" viewBox="0 0 60 57" fill="none" xmlns="http://www.w3.org/2000/svg">
<path d="M47.5 44.9165C47.5 45.5574 47.7634 46.1721 48.2322 46.6253C48.7011 47.0786 49.337 47.3332 50 47.3332C50.663 47.3332 51.2989 47.0786 51.7678 46.6253C52.2366 46.1721 52.5 45.5574 52.5 44.9165V11.0832C52.5 10.4422 52.2366 9.82754 51.7678 9.37433C51.2989 8.92112 50.663 8.6665 50 8.6665C49.337 8.6665 48.7011 8.92112 48.2322 9.37433C47.7634 9.82754 47.5 10.4422 47.5 11.0832V44.9165ZM28.2425 16.0373C28.0101 16.2618 27.8257 16.5283 27.6999 16.8217C27.574 17.1151 27.5093 17.4295 27.5093 17.7471C27.5093 18.0647 27.574 18.3792 27.6999 18.6726C27.8257 18.9659 28.0101 19.2325 28.2425 19.4569L34.5825 25.5832H10C9.33696 25.5832 8.70107 25.8378 8.23223 26.291C7.76339 26.7442 7.5 27.3589 7.5 27.9998C7.5 28.6408 7.76339 29.2555 8.23223 29.7087C8.70107 30.1619 9.33696 30.4165 10 30.4165H34.5825L28.2425 36.5452C27.7737 36.9986 27.5105 37.6135 27.5107 38.2546C27.511 38.8957 27.7746 39.5104 28.2437 39.9635C28.7129 40.4167 29.349 40.6711 30.0121 40.6709C30.6753 40.6707 31.3112 40.4158 31.78 39.9623L42.385 29.7084C42.8537 29.2552 43.117 28.6407 43.117 27.9998C43.117 27.359 42.8537 26.7444 42.385 26.2913L31.78 16.0373C31.5478 15.8126 31.2721 15.6344 30.9686 15.5128C30.6651 15.3912 30.3398 15.3286 30.0113 15.3286C29.6827 15.3286 29.3574 15.3912 29.0539 15.5128C28.7504 15.6344 28.4747 15.8126 28.2425 16.0373Z" fill="black"/>
</svg>
