<svg width="146" height="146" viewBox="0 0 146 146" fill="none" xmlns="http://www.w3.org/2000/svg">
<path d="M129.966 72.6607C129.966 104.309 104.31 129.966 72.6608 129.966C41.012 129.966 15.3556 104.309 15.3556 72.6607C15.3556 41.0119 41.012 15.3555 72.6608 15.3555C104.31 15.3555 129.966 41.0119 129.966 72.6607ZM26.0263 72.6607C26.0263 98.4162 46.9053 119.295 72.6608 119.295C98.4163 119.295 119.295 98.4162 119.295 72.6607C119.295 46.9052 98.4163 26.0262 72.6608 26.0262C46.9053 26.0262 26.0263 46.9052 26.0263 72.6607Z" fill="#EEEEEE"/>
<path d="M68.3404 19.9933C68.1389 17.538 69.9677 15.366 72.4312 15.3561C80.8255 15.3225 89.1442 17.1337 96.7909 20.6837C105.789 24.8612 113.549 31.3033 119.311 39.3796C125.073 47.456 128.639 56.8898 129.661 66.758C130.53 75.1438 129.535 83.5991 126.772 91.5255C125.961 93.8518 123.312 94.8742 121.056 93.8848L119.454 93.1822C117.198 92.1927 116.193 89.5664 116.963 87.2261C119.008 81.0044 119.725 74.4047 119.047 67.8572C118.216 59.8265 115.313 52.1493 110.624 45.5769C105.936 39.0045 99.6207 33.7619 92.2977 30.3623C86.3271 27.5905 79.8533 26.1212 73.3046 26.0309C70.8412 25.9969 68.6848 24.1921 68.4834 21.7368L68.3404 19.9933Z" fill="#0077FF"/>
</svg>
