<svg width="146" height="146" viewBox="0 0 146 146" fill="none" xmlns="http://www.w3.org/2000/svg">
<path d="M129.966 72.6607C129.966 104.309 104.31 129.966 72.6608 129.966C41.012 129.966 15.3556 104.309 15.3556 72.6607C15.3556 41.0119 41.012 15.3555 72.6608 15.3555C104.31 15.3555 129.966 41.0119 129.966 72.6607ZM26.0263 72.6607C26.0263 98.4162 46.9053 119.295 72.6608 119.295C98.4163 119.295 119.295 98.4162 119.295 72.6607C119.295 46.9052 98.4163 26.0262 72.6608 26.0262C46.9053 26.0262 26.0263 46.9052 26.0263 72.6607Z" fill="#EEEEEE"/>
<path d="M68.3404 19.9933C68.1389 17.538 69.9679 15.366 72.4315 15.356C85.0713 15.3051 97.4219 19.4381 107.52 27.1778C118.803 35.8252 126.469 48.3575 129.029 62.3405C131.589 76.3234 128.861 90.7588 121.374 102.843C113.887 114.927 102.176 123.797 88.515 127.729C74.8545 131.662 60.2198 130.377 47.4536 124.124C34.6873 117.871 24.7009 107.096 19.434 93.8927C14.1672 80.689 13.9959 65.999 18.9535 52.676C23.3906 40.7516 31.6529 30.6841 42.3849 24.0064C44.4766 22.7049 47.1805 23.5719 48.3155 25.7584L49.1214 27.3111C50.2564 29.4976 49.3895 32.1728 47.3213 33.5113C38.9291 38.943 32.4679 46.9547 28.9543 56.3974C24.9199 67.2395 25.0592 79.1941 29.3454 89.9391C33.6315 100.684 41.7583 109.453 52.1474 114.541C62.5364 119.63 74.446 120.676 85.5629 117.475C96.6797 114.275 106.21 107.056 112.303 97.2226C118.396 87.3888 120.616 75.6414 118.533 64.2622C116.449 52.883 110.211 42.6843 101.029 35.6472C93.0325 29.5183 83.3004 26.1685 73.3047 26.0308C70.8414 25.9968 68.6848 24.1921 68.4834 21.7368L68.3404 19.9933Z" fill="#0077FF"/>
</svg>
