<svg width="34" height="34" viewBox="0 0 34 34" fill="none" xmlns="http://www.w3.org/2000/svg">
<path d="M16.9291 25.5002C17.425 25.5002 17.8443 25.3288 18.1871 24.9859C18.53 24.6431 18.7009 24.2242 18.7 23.7293C18.699 23.2344 18.5281 22.8151 18.1871 22.4713C17.8462 22.1276 17.4269 21.9566 16.9291 21.9585C16.4314 21.9604 16.0126 22.1318 15.6726 22.4728C15.3326 22.8137 15.1611 23.2326 15.1583 23.7293C15.1555 24.2261 15.3269 24.6454 15.6726 24.9873C16.0182 25.3292 16.4371 25.5002 16.9291 25.5002ZM15.6541 20.046H18.275C18.275 19.2668 18.3638 18.6529 18.5413 18.2043C18.7189 17.7557 19.2204 17.1418 20.0458 16.3627C20.6597 15.7488 21.1437 15.1642 21.4979 14.6088C21.8521 14.0535 22.0291 13.3867 22.0291 12.6085C22.0291 11.2863 21.5451 10.271 20.5771 9.56267C19.609 8.85434 18.4639 8.50017 17.1416 8.50017C15.7958 8.50017 14.704 8.85434 13.8663 9.56267C13.0286 10.271 12.444 11.121 12.1125 12.1127L14.45 13.0335C14.568 12.6085 14.8339 12.1481 15.2476 11.6523C15.6612 11.1564 16.2926 10.9085 17.1416 10.9085C17.8972 10.9085 18.4639 11.1153 18.8416 11.529C19.2194 11.9427 19.4083 12.3969 19.4083 12.8918C19.4083 13.3641 19.2666 13.807 18.9833 14.2207C18.7 14.6343 18.3458 15.0178 17.9208 15.371C16.8819 16.2918 16.2444 16.9884 16.0083 17.4606C15.7722 17.9328 15.6541 18.7946 15.6541 20.046ZM17 31.1668C15.0403 31.1668 13.1986 30.7952 11.475 30.0519C9.75137 29.3086 8.25207 28.299 6.97707 27.0231C5.70207 25.7471 4.69293 24.2478 3.94965 22.5252C3.20637 20.8025 2.83426 18.9608 2.83331 17.0002C2.83237 15.0395 3.20448 13.1978 3.94965 11.4752C4.69482 9.7525 5.70395 8.2532 6.97707 6.97725C8.25018 5.70131 9.74948 4.69217 11.475 3.94984C13.2005 3.2075 15.0421 2.83539 17 2.8335C18.9578 2.83161 20.7995 3.20373 22.525 3.94984C24.2505 4.69595 25.7498 5.70509 27.0229 6.97725C28.296 8.24942 29.3056 9.74873 30.0517 11.4752C30.7978 13.2016 31.1695 15.0433 31.1667 17.0002C31.1638 18.9571 30.7917 20.7987 30.0503 22.5252C29.3089 24.2516 28.2998 25.7509 27.0229 27.0231C25.746 28.2953 24.2467 29.3049 22.525 30.0519C20.8033 30.799 18.9616 31.1706 17 31.1668ZM17 28.3335C20.1639 28.3335 22.8437 27.2356 25.0396 25.0398C27.2354 22.8439 28.3333 20.1641 28.3333 17.0002C28.3333 13.8363 27.2354 11.1564 25.0396 8.96059C22.8437 6.76475 20.1639 5.66684 17 5.66684C13.8361 5.66684 11.1562 6.76475 8.9604 8.96059C6.76456 11.1564 5.66665 13.8363 5.66665 17.0002C5.66665 20.1641 6.76456 22.8439 8.9604 25.0398C11.1562 27.2356 13.8361 28.3335 17 28.3335Z" fill="#699BF7"/>
</svg>
