<svg width="127" height="30" viewBox="0 0 127 30" fill="none" xmlns="http://www.w3.org/2000/svg">
<rect width="56.0202" height="19.6667" rx="9.83333" transform="matrix(1 0 0 -1 39.9798 25.0303)" fill="#0077FF"/>
<circle cx="14.899" cy="14.899" r="14.899" transform="matrix(1 0 0 -1 37 29.7979)" fill="white"/>
<path d="M13 8.88876C9.73818 8.88876 7.09091 11.536 7.09091 14.7979C7.09091 18.0597 9.73818 20.7069 13 20.7069C16.2618 20.7069 18.9091 18.0597 18.9091 14.7979C18.9091 11.536 16.2618 8.88876 13 8.88876ZM1.18182 15.9797H3.54545C4.19545 15.9797 4.72727 15.4479 4.72727 14.7979C4.72727 14.1479 4.19545 13.616 3.54545 13.616H1.18182C0.531818 13.616 0 14.1479 0 14.7979C0 15.4479 0.531818 15.9797 1.18182 15.9797ZM22.4545 15.9797H24.8182C25.4682 15.9797 26 15.4479 26 14.7979C26 14.1479 25.4682 13.616 24.8182 13.616H22.4545C21.8045 13.616 21.2727 14.1479 21.2727 14.7979C21.2727 15.4479 21.8045 15.9797 22.4545 15.9797ZM11.8182 2.97967V5.34331C11.8182 5.99331 12.35 6.52512 13 6.52512C13.65 6.52512 14.1818 5.99331 14.1818 5.34331V2.97967C14.1818 2.32967 13.65 1.79785 13 1.79785C12.35 1.79785 11.8182 2.32967 11.8182 2.97967ZM11.8182 24.2524V26.616C11.8182 27.266 12.35 27.7978 13 27.7978C13.65 27.7978 14.1818 27.266 14.1818 26.616V24.2524C14.1818 23.6024 13.65 23.0706 13 23.0706C12.35 23.0706 11.8182 23.6024 11.8182 24.2524ZM5.89727 6.02876C5.78794 5.9192 5.65807 5.83228 5.5151 5.77298C5.37213 5.71367 5.21887 5.68315 5.06409 5.68315C4.90931 5.68315 4.75605 5.71367 4.61308 5.77298C4.47011 5.83228 4.34024 5.9192 4.23091 6.02876C4.12135 6.13809 4.03443 6.26796 3.97512 6.41093C3.91582 6.5539 3.88529 6.70716 3.88529 6.86194C3.88529 7.01672 3.91582 7.16998 3.97512 7.31295C4.03443 7.45592 4.12135 7.58579 4.23091 7.69512L5.48364 8.94785C5.94454 9.40876 6.70091 9.40876 7.15 8.94785C7.59909 8.48694 7.61091 7.73058 7.15 7.28149L5.89727 6.02876ZM20.5164 20.6479C20.407 20.5383 20.2772 20.4514 20.1342 20.3921C19.9912 20.3328 19.838 20.3022 19.6832 20.3022C19.5284 20.3022 19.3751 20.3328 19.2322 20.3921C19.0892 20.4514 18.9593 20.5383 18.85 20.6479C18.7404 20.7572 18.6535 20.8871 18.5942 21.03C18.5349 21.173 18.5044 21.3263 18.5044 21.481C18.5044 21.6358 18.5349 21.7891 18.5942 21.932C18.6535 22.075 18.7404 22.2049 18.85 22.3142L20.1027 23.5669C20.5636 24.0279 21.32 24.0279 21.7691 23.5669C21.8786 23.4576 21.9656 23.3277 22.0249 23.1848C22.0842 23.0418 22.1147 22.8885 22.1147 22.7338C22.1147 22.579 22.0842 22.4257 22.0249 22.2827C21.9656 22.1398 21.8786 22.0099 21.7691 21.9006L20.5164 20.6479ZM21.7691 7.69512C21.8786 7.58579 21.9656 7.45592 22.0249 7.31295C22.0842 7.16998 22.1147 7.01672 22.1147 6.86194C22.1147 6.70716 22.0842 6.5539 22.0249 6.41093C21.9656 6.26796 21.8786 6.13809 21.7691 6.02876C21.6598 5.9192 21.5299 5.83228 21.3869 5.77298C21.2439 5.71367 21.0907 5.68315 20.9359 5.68315C20.7811 5.68315 20.6279 5.71367 20.4849 5.77298C20.3419 5.83228 20.2121 5.9192 20.1027 6.02876L18.85 7.28149C18.3891 7.7424 18.3891 8.49876 18.85 8.94785C19.3109 9.39694 20.0673 9.40876 20.5164 8.94785L21.7691 7.69512ZM7.15 22.3142C7.25956 22.2049 7.34648 22.075 7.40578 21.932C7.46509 21.7891 7.49562 21.6358 7.49562 21.481C7.49562 21.3263 7.46509 21.173 7.40578 21.03C7.34648 20.8871 7.25956 20.7572 7.15 20.6479C7.04067 20.5383 6.9108 20.4514 6.76783 20.3921C6.62486 20.3328 6.4716 20.3022 6.31682 20.3022C6.16204 20.3022 6.00878 20.3328 5.86581 20.3921C5.72284 20.4514 5.59297 20.5383 5.48364 20.6479L4.23091 21.9006C3.77 22.3615 3.77 23.1179 4.23091 23.5669C4.69182 24.016 5.44818 24.0279 5.89727 23.5669L7.15 22.3142Z" fill="#0077FF"/>
<path d="M117 4.79785C115.022 4.79785 113.089 5.38434 111.444 6.48316C109.8 7.58197 108.518 9.14375 107.761 10.971C107.004 12.7983 106.806 14.8089 107.192 16.7487C107.578 18.6886 108.53 20.4704 109.929 21.8689C111.327 23.2674 113.109 24.2198 115.049 24.6057C116.989 24.9916 119 24.7935 120.827 24.0366C122.654 23.2798 124.216 21.998 125.315 20.3535C126.414 18.7091 127 16.7757 127 14.7978C127 14.2867 126.956 13.7756 126.889 13.2867C126.334 14.0652 125.6 14.6995 124.75 15.1363C123.899 15.5732 122.956 15.8001 122 15.7978C120.728 15.7979 119.489 15.3939 118.461 14.6441C117.434 13.8944 116.671 12.8376 116.283 11.6263C115.895 10.415 115.901 9.11166 116.302 7.90436C116.702 6.69706 117.476 5.64816 118.511 4.90896C118.022 4.8423 117.511 4.79785 117 4.79785Z" fill="#333333"/>
</svg>
