<svg width="146" height="146" viewBox="0 0 146 146" fill="none" xmlns="http://www.w3.org/2000/svg">
<path d="M130.471 73.0235C130.471 104.672 104.815 130.329 73.1661 130.329C41.5173 130.329 15.8608 104.672 15.8608 73.0235C15.8608 41.3747 41.5173 15.7183 73.1661 15.7183C104.815 15.7183 130.471 41.3747 130.471 73.0235ZM26.5316 73.0235C26.5316 98.779 47.4105 119.658 73.1661 119.658C98.9216 119.658 119.801 98.779 119.801 73.0235C119.801 47.268 98.9216 26.389 73.1661 26.389C47.4105 26.389 26.5316 47.268 26.5316 73.0235Z" fill="#EEEEEE"/>
<path d="M68.8458 20.3559C68.6444 17.9005 70.4732 15.7285 72.9368 15.7186C84.1004 15.6738 95.0705 18.8924 104.475 25.027C115.129 31.9764 123.167 42.2729 127.324 54.2941C131.482 66.3154 131.521 79.3782 127.437 91.4244C123.353 103.471 115.376 113.816 104.765 120.829C94.1537 127.843 81.5104 131.127 68.8271 130.164C56.1438 129.201 44.1414 124.045 34.7109 115.51C25.2805 106.974 18.9579 95.543 16.7395 83.0181C14.7811 71.9618 16.1191 60.6078 20.5353 50.3548C21.5099 48.0922 24.2248 47.2608 26.4048 48.4084L27.9528 49.2232C30.1328 50.3708 30.948 53.0621 30.0139 55.3417C26.6779 63.483 25.7016 72.4339 27.2466 81.157C29.052 91.3496 34.1972 100.652 41.8717 107.598C49.5461 114.545 59.3136 118.74 69.6351 119.524C79.9567 120.308 90.2457 117.635 98.8811 111.928C107.516 106.22 114.007 97.8011 117.331 87.998C120.655 78.1949 120.623 67.5645 117.24 57.7817C113.857 47.9989 107.315 39.6197 98.645 33.9643C91.2251 29.1243 82.6076 26.5147 73.8102 26.3934C71.3468 26.3594 69.1903 24.5547 68.9888 22.0993L68.8458 20.3559Z" fill="#0077FF"/>
</svg>
