<svg width="146" height="146" viewBox="0 0 146 146" fill="none" xmlns="http://www.w3.org/2000/svg">
<path d="M130.472 72.7706C130.472 104.419 104.815 130.076 73.1663 130.076C41.5175 130.076 15.8611 104.419 15.8611 72.7706C15.8611 41.1218 41.5175 15.4654 73.1663 15.4654C104.815 15.4654 130.472 41.1218 130.472 72.7706ZM26.5318 72.7706C26.5318 98.5261 47.4108 119.405 73.1663 119.405C98.9218 119.405 119.801 98.5261 119.801 72.7706C119.801 47.0151 98.9218 26.1361 73.1663 26.1361C47.4108 26.1361 26.5318 47.0151 26.5318 72.7706Z" fill="#EEEEEE"/>
<path d="M68.846 20.103C68.6446 17.6477 70.4736 15.4757 72.9372 15.4657C85.577 15.4148 97.9275 19.5478 108.026 27.2875C119.309 35.9349 126.975 48.4672 129.535 62.4501C132.095 76.4331 129.367 90.8685 121.879 102.952C114.392 115.036 102.681 123.906 89.0207 127.839C75.3602 131.772 60.7255 130.487 47.9592 124.234C35.193 117.981 25.2066 107.206 19.9397 94.0024C14.6729 80.7986 14.5016 66.1086 19.4591 52.7857C23.8963 40.8612 32.1586 30.7938 42.8906 24.1161C44.9823 22.8146 47.6862 23.6816 48.8211 25.8681L49.6271 27.4208C50.762 29.6073 49.8952 32.2824 47.827 33.621C39.4347 39.0526 32.9736 47.0644 29.4599 56.5071C25.4255 67.3492 25.5649 79.3037 29.851 90.0488C34.1372 100.794 42.264 109.562 52.6531 114.651C63.0421 119.74 74.9517 120.785 86.0685 117.585C97.1854 114.384 106.716 107.166 112.809 97.3323C118.902 87.4985 121.122 75.7511 119.039 64.3719C116.955 52.9927 110.717 42.794 101.535 35.7568C93.5382 29.628 83.8061 26.2782 73.8104 26.1404C71.347 26.1065 69.1905 24.3018 68.9891 21.8465L68.846 20.103Z" fill="#0077FF"/>
</svg>
