<svg width="146" height="147" viewBox="0 0 146 147" fill="none" xmlns="http://www.w3.org/2000/svg">
<path d="M130.472 73.3971C130.472 105.046 104.815 130.702 73.1663 130.702C41.5175 130.702 15.8611 105.046 15.8611 73.3971C15.8611 41.7483 41.5175 16.0919 73.1663 16.0919C104.815 16.0919 130.472 41.7483 130.472 73.3971ZM26.5318 73.3971C26.5318 99.1527 47.4108 120.032 73.1663 120.032C98.9218 120.032 119.801 99.1527 119.801 73.3971C119.801 47.6416 98.9218 26.7627 73.1663 26.7627C47.4108 26.7627 26.5318 47.6416 26.5318 73.3971Z" fill="#EEEEEE"/>
<path d="M68.846 20.7295C68.6446 18.2742 70.4733 16.1022 72.9368 16.0923C79.3037 16.0668 85.6412 17.1026 91.6861 19.1669C99.1407 21.7126 105.99 25.7679 111.807 31.0795C117.624 36.3911 122.284 42.845 125.495 50.0381C128.706 57.2312 130.399 65.009 130.47 72.8859C130.54 80.7629 128.985 88.5697 125.903 95.819C122.821 103.068 118.277 109.604 112.556 115.019C106.835 120.433 100.059 124.61 92.6506 127.288C86.6434 129.46 80.3255 130.609 73.9592 130.697C71.4958 130.731 69.6287 128.592 69.7863 126.133L69.8982 124.388C70.0558 121.929 72.1797 120.086 74.642 120.008C79.5414 119.853 84.3952 118.926 89.0225 117.253C95.051 115.074 100.565 111.675 105.221 107.268C109.877 102.862 113.575 97.5432 116.083 91.6438C118.591 85.7444 119.856 79.3913 119.799 72.9811C119.742 66.571 118.364 60.2414 115.751 54.3877C113.138 48.534 109.346 43.2819 104.612 38.9594C99.8783 34.6369 94.3041 31.3367 88.2376 29.265C83.5812 27.6749 78.7116 26.8347 73.8102 26.7671C71.3469 26.7331 69.1905 24.9283 68.9891 22.473L68.846 20.7295Z" fill="#0077FF"/>
</svg>
