<svg width="34" height="34" viewBox="0 0 34 34" fill="none" xmlns="http://www.w3.org/2000/svg">
<path d="M16.9291 25.5C17.4249 25.5 17.8443 25.3286 18.1871 24.9858C18.5299 24.643 18.7009 24.2241 18.6999 23.7292C18.699 23.2343 18.528 22.815 18.1871 22.4712C17.8461 22.1274 17.4268 21.9565 16.9291 21.9584C16.4314 21.9603 16.0125 22.1317 15.6725 22.4726C15.3325 22.8136 15.1611 23.2324 15.1583 23.7292C15.1554 24.226 15.3268 24.6453 15.6725 24.9872C16.0182 25.3291 16.437 25.5 16.9291 25.5ZM15.6541 20.0459H18.2749C18.2749 19.2667 18.3637 18.6528 18.5413 18.2042C18.7188 17.7556 19.2203 17.1417 20.0458 16.3625C20.6596 15.7487 21.1437 15.164 21.4978 14.6087C21.852 14.0534 22.0291 13.3866 22.0291 12.6084C22.0291 11.2862 21.5451 10.2709 20.577 9.56255C19.6089 8.85421 18.4638 8.50005 17.1416 8.50005C15.7958 8.50005 14.704 8.85421 13.8663 9.56255C13.0285 10.2709 12.4439 11.1209 12.1124 12.1125L14.4499 13.0334C14.568 12.6084 14.8338 12.148 15.2475 11.6521C15.6612 11.1563 16.2925 10.9084 17.1416 10.9084C17.8971 10.9084 18.4638 11.1152 18.8416 11.5289C19.2194 11.9425 19.4083 12.3968 19.4083 12.8917C19.4083 13.3639 19.2666 13.8069 18.9833 14.2205C18.6999 14.6342 18.3458 15.0177 17.9208 15.3709C16.8819 16.2917 16.2444 16.9882 16.0083 17.4605C15.7721 17.9327 15.6541 18.7945 15.6541 20.0459ZM16.9999 31.1667C15.0402 31.1667 13.1985 30.7951 11.4749 30.0518C9.75131 29.3085 8.252 28.2989 6.977 27.023C5.702 25.747 4.69287 24.2477 3.94959 22.525C3.20631 20.8024 2.8342 18.9607 2.83325 17C2.83231 15.0394 3.20442 13.1977 3.94959 11.475C4.69475 9.75238 5.70389 8.25308 6.977 6.97713C8.25012 5.70119 9.74942 4.69205 11.4749 3.94971C13.2004 3.20738 15.0421 2.83527 16.9999 2.83338C18.9578 2.83149 20.7994 3.2036 22.5249 3.94971C24.2504 4.69583 25.7497 5.70496 27.0228 6.97713C28.296 8.2493 29.3056 9.7486 30.0517 11.475C30.7978 13.2015 31.1694 15.0432 31.1666 17C31.1638 18.9569 30.7916 20.7986 30.0503 22.525C29.3089 24.2515 28.2997 25.7508 27.0228 27.023C25.746 28.2951 24.2466 29.3047 22.5249 30.0518C20.8032 30.7989 18.9615 31.1705 16.9999 31.1667ZM16.9999 28.3334C20.1638 28.3334 22.8437 27.2355 25.0395 25.0396C27.2353 22.8438 28.3333 20.1639 28.3333 17C28.3333 13.8362 27.2353 11.1563 25.0395 8.96046C22.8437 6.76463 20.1638 5.66671 16.9999 5.66671C13.836 5.66671 11.1562 6.76463 8.96034 8.96046C6.7645 11.1563 5.66659 13.8362 5.66659 17C5.66659 20.1639 6.7645 22.8438 8.96034 25.0396C11.1562 27.2355 13.836 28.3334 16.9999 28.3334Z" fill="#699BF7"/>
</svg>
