<svg width="24" height="26" viewBox="0 0 24 26" fill="none" xmlns="http://www.w3.org/2000/svg">
<path fill-rule="evenodd" clip-rule="evenodd" d="M11.5342 0.72934C17.894 0.72934 23.0672 5.90249 23.0672 12.2623C23.0672 15.2629 21.9157 17.9995 20.0313 20.0534L23.7392 23.7535C24.0862 24.1005 24.0873 24.6619 23.7403 25.0089C23.5674 25.1842 23.3388 25.2706 23.1115 25.2706C22.8853 25.2706 22.6579 25.1842 22.4838 25.0113L18.7312 21.2691C16.7571 22.85 14.2542 23.7965 11.5342 23.7965C5.17433 23.7965 0 18.6222 0 12.2623C0 5.90249 5.17433 0.72934 11.5342 0.72934ZM11.5342 2.50583C6.15377 2.50583 1.77649 6.88192 1.77649 12.2623C1.77649 17.6427 6.15377 22.02 11.5342 22.02C16.9134 22.02 21.2907 17.6427 21.2907 12.2623C21.2907 6.88192 16.9134 2.50583 11.5342 2.50583Z" fill="#8A8A8A"/>
</svg>
