<svg width="283" height="280" viewBox="0 0 283 280" fill="none" xmlns="http://www.w3.org/2000/svg">
<path d="M253.096 141.661C253.096 203.364 203.133 253.384 141.5 253.384C79.8667 253.384 29.9033 203.364 29.9033 141.661C29.9033 79.9578 79.8667 29.9375 141.5 29.9375C203.133 29.9375 253.096 79.9578 253.096 141.661ZM50.6835 141.661C50.6835 191.874 91.3433 232.58 141.5 232.58C191.656 232.58 232.316 191.874 232.316 141.661C232.316 91.4474 191.656 50.7414 141.5 50.7414C91.3433 50.7414 50.6835 91.4474 50.6835 141.661Z" fill="#EEEEEE"/>
<path d="M132.74 34.7599C132.539 32.3035 134.368 30.1386 136.83 30.0353C164.803 28.8612 192.262 38.2623 213.695 56.4659C236.264 75.6349 250.303 102.995 252.723 132.526C255.143 162.058 245.745 191.342 226.598 213.938C208.414 235.396 182.852 249.151 155.06 252.556C152.615 252.856 150.461 251.02 150.26 248.565L149.29 236.724C149.088 234.268 150.919 232.124 153.362 231.802C175.658 228.862 196.135 217.728 210.752 200.479C226.334 182.091 233.981 158.26 232.012 134.227C230.043 110.195 218.618 87.9295 200.251 72.33C183.021 57.6952 161.004 50.0516 138.525 50.79C136.064 50.8709 133.912 49.0561 133.711 46.6011L132.74 34.7599Z" fill="#0077FF"/>
</svg>
