<svg width="146" height="146" viewBox="0 0 146 146" fill="none" xmlns="http://www.w3.org/2000/svg">
<path d="M130.472 72.6608C130.472 104.31 104.815 129.966 73.1663 129.966C41.5175 129.966 15.8611 104.31 15.8611 72.6608C15.8611 41.012 41.5175 15.3556 73.1663 15.3556C104.815 15.3556 130.472 41.012 130.472 72.6608ZM26.5318 72.6608C26.5318 98.4163 47.4108 119.295 73.1663 119.295C98.9218 119.295 119.801 98.4163 119.801 72.6608C119.801 46.9053 98.9218 26.0263 73.1663 26.0263C47.4108 26.0263 26.5318 46.9053 26.5318 72.6608Z" fill="#EEEEEE"/>
<path d="M68.8459 19.9932C68.6444 17.5379 66.486 15.693 64.0537 16.0846C51.0727 18.1751 39.1536 24.6787 30.3537 34.5693C20.5619 45.5748 15.3843 59.9284 15.8958 74.6504C16.4072 89.3725 22.5685 103.332 33.1005 113.632C43.6325 123.931 57.7262 129.779 72.4561 129.962C87.1859 130.144 101.42 124.647 112.204 114.612C122.988 104.577 129.494 90.7745 130.37 76.0696C131.246 61.3647 126.426 46.8872 116.91 35.6423C108.358 25.5367 96.6041 18.7395 83.6789 16.3279C81.2571 15.8761 79.0535 17.6669 78.7913 20.1165L78.6051 21.8559C78.3429 24.3055 80.123 26.4823 82.5363 26.9772C92.7333 29.0683 101.985 34.5245 108.765 42.5355C116.509 51.6865 120.431 63.4682 119.718 75.4349C119.005 87.4015 113.711 98.634 104.935 106.801C96.1592 114.967 84.5753 119.44 72.5883 119.292C60.6013 119.143 49.1319 114.384 40.5611 106.002C31.9902 97.6209 26.9763 86.2606 26.5601 74.28C26.1438 62.2993 30.3573 50.6184 38.3258 41.6623C45.3017 33.8218 54.6862 28.5967 64.9319 26.759C67.3568 26.324 69.1903 24.192 68.9889 21.7367L68.8459 19.9932Z" fill="#0077FF"/>
</svg>
