<svg width="9" height="9" viewBox="0 0 9 9" fill="none" xmlns="http://www.w3.org/2000/svg">
<g clip-path="url(#clip0_834_2784)">
<path d="M1.63354 2.71858C1.63354 2.50641 1.71783 2.30292 1.86786 2.15289C2.01789 2.00286 2.22137 1.91858 2.43354 1.91858H4.83354C5.04572 1.91858 5.2492 2.00286 5.39923 2.15289C5.54926 2.30292 5.63354 2.50641 5.63354 2.71858V5.91858C5.63354 6.13075 5.54926 6.33424 5.39923 6.48426C5.2492 6.63429 5.04572 6.71858 4.83354 6.71858H2.43354C2.22137 6.71858 2.01789 6.63429 1.86786 6.48426C1.71783 6.33424 1.63354 6.13075 1.63354 5.91858V2.71858ZM6.65474 3.16098C6.58831 3.19418 6.53243 3.24521 6.49337 3.30837C6.4543 3.37153 6.43358 3.44431 6.43354 3.51858V5.11858C6.43358 5.19284 6.4543 5.26563 6.49337 5.32879C6.53243 5.39195 6.58831 5.44298 6.65474 5.47618L7.45474 5.87618C7.51571 5.90665 7.58346 5.92103 7.65154 5.91796C7.71963 5.91489 7.7858 5.89448 7.84379 5.85866C7.90177 5.82283 7.94964 5.77279 7.98285 5.71327C8.01606 5.65375 8.03351 5.58674 8.03354 5.51858V3.11858C8.03351 3.05042 8.01606 2.98341 7.98285 2.92389C7.94964 2.86437 7.90177 2.81432 7.84379 2.7785C7.7858 2.74268 7.71963 2.72226 7.65154 2.7192C7.58346 2.71613 7.51571 2.73051 7.45474 2.76098L6.65474 3.16098Z" fill="#E0F2FE"/>
</g>
<defs>
<clipPath id="clip0_834_2784">
<rect width="8" height="8" fill="white" transform="translate(0.833496 0.318604)"/>
</clipPath>
</defs>
</svg>
