<svg width="8" height="9" viewBox="0 0 8 9" fill="none" xmlns="http://www.w3.org/2000/svg">
<g clip-path="url(#clip0_834_2583)">
<path d="M0.792358 2.81587C0.792358 2.6037 0.876644 2.40021 1.02667 2.25018C1.1767 2.10015 1.38019 2.01587 1.59236 2.01587H3.99236C4.20453 2.01587 4.40801 2.10015 4.55804 2.25018C4.70807 2.40021 4.79236 2.6037 4.79236 2.81587V6.01587C4.79236 6.22804 4.70807 6.43153 4.55804 6.58155C4.40801 6.73158 4.20453 6.81587 3.99236 6.81587H1.59236C1.38019 6.81587 1.1767 6.73158 1.02667 6.58155C0.876644 6.43153 0.792358 6.22804 0.792358 6.01587V2.81587ZM5.81356 3.25827C5.74713 3.29147 5.69125 3.3425 5.65218 3.40566C5.61311 3.46882 5.5924 3.5416 5.59236 3.61587V5.21587C5.5924 5.29013 5.61311 5.36292 5.65218 5.42608C5.69125 5.48924 5.74713 5.54027 5.81356 5.57347L6.61356 5.97347C6.67453 6.00394 6.74227 6.01832 6.81036 6.01525C6.87844 6.01218 6.94462 5.99177 7.0026 5.95595C7.06058 5.92012 7.10845 5.87008 7.14166 5.81056C7.17487 5.75104 7.19232 5.68403 7.19236 5.61587V3.21587C7.19232 3.14771 7.17487 3.0807 7.14166 3.02118C7.10845 2.96166 7.06058 2.91161 7.0026 2.87579C6.94462 2.83997 6.87844 2.81955 6.81036 2.81649C6.74227 2.81342 6.67453 2.8278 6.61356 2.85827L5.81356 3.25827Z" fill="#EDE9FE"/>
</g>
<defs>
<clipPath id="clip0_834_2583">
<rect width="8" height="8" fill="white" transform="translate(-0.00769043 0.415894)"/>
</clipPath>
</defs>
</svg>
