<svg width="9" height="9" viewBox="0 0 9 9" fill="none" xmlns="http://www.w3.org/2000/svg">
<path d="M1.46802 2.52375C1.46802 2.31158 1.5523 2.1081 1.70233 1.95807C1.85236 1.80804 2.05584 1.72375 2.26802 1.72375H4.66802C4.88019 1.72375 5.08367 1.80804 5.2337 1.95807C5.38373 2.1081 5.46802 2.31158 5.46802 2.52375V5.72375C5.46802 5.93593 5.38373 6.13941 5.2337 6.28944C5.08367 6.43947 4.88019 6.52376 4.66802 6.52376H2.26802C2.05584 6.52376 1.85236 6.43947 1.70233 6.28944C1.5523 6.13941 1.46802 5.93593 1.46802 5.72375V2.52375ZM6.48922 2.96615C6.42279 2.99935 6.36691 3.05039 6.32784 3.11354C6.28877 3.1767 6.26806 3.24949 6.26802 3.32375V4.92375C6.26806 4.99802 6.28877 5.07081 6.32784 5.13397C6.36691 5.19712 6.42279 5.24816 6.48922 5.28135L7.28922 5.68135C7.35019 5.71182 7.41793 5.7262 7.48601 5.72314C7.5541 5.72007 7.62028 5.69966 7.67826 5.66383C7.73624 5.62801 7.78411 5.57796 7.81732 5.51845C7.85053 5.45893 7.86798 5.39191 7.86802 5.32376V2.92375C7.86798 2.8556 7.85053 2.78858 7.81732 2.72906C7.78411 2.66955 7.73624 2.6195 7.67826 2.58368C7.62028 2.54785 7.5541 2.52744 7.48601 2.52437C7.41793 2.52131 7.35019 2.53569 7.28922 2.56615L6.48922 2.96615Z" fill="#E0F2FE"/>
</svg>
