<svg width="9" height="9" viewBox="0 0 9 9" fill="none" xmlns="http://www.w3.org/2000/svg">
<g clip-path="url(#clip0_834_3060)">
<path d="M1.73657 3.36458C1.73657 3.1524 1.82086 2.94892 1.97089 2.79889C2.12092 2.64886 2.3244 2.56458 2.53657 2.56458H4.93657C5.14875 2.56458 5.35223 2.64886 5.50226 2.79889C5.65229 2.94892 5.73657 3.1524 5.73657 3.36458V6.56458C5.73657 6.77675 5.65229 6.98023 5.50226 7.13026C5.35223 7.28029 5.14875 7.36458 4.93657 7.36458H2.53657C2.3244 7.36458 2.12092 7.28029 1.97089 7.13026C1.82086 6.98023 1.73657 6.77675 1.73657 6.56458V3.36458ZM6.75777 3.80698C6.69134 3.84017 6.63546 3.89121 6.59639 3.95436C6.55733 4.01752 6.53661 4.09031 6.53657 4.16458V5.76458C6.53661 5.83884 6.55733 5.91163 6.59639 5.97479C6.63546 6.03794 6.69134 6.08898 6.75777 6.12218L7.55777 6.52218C7.61874 6.55264 7.68648 6.56702 7.75457 6.56396C7.82266 6.56089 7.88883 6.54048 7.94681 6.50465C8.0048 6.46883 8.05266 6.41878 8.08587 6.35927C8.11908 6.29975 8.13654 6.23273 8.13657 6.16458V3.76458C8.13654 3.69642 8.11908 3.6294 8.08587 3.56988C8.05266 3.51037 8.0048 3.46032 7.94681 3.4245C7.88883 3.38867 7.82266 3.36826 7.75457 3.36519C7.68648 3.36213 7.61874 3.37651 7.55777 3.40698L6.75777 3.80698Z" fill="#E0F2FE"/>
</g>
<defs>
<clipPath id="clip0_834_3060">
<rect width="8" height="8" fill="white" transform="translate(0.936523 0.9646)"/>
</clipPath>
</defs>
</svg>
