<svg width="9" height="9" viewBox="0 0 9 9" fill="none" xmlns="http://www.w3.org/2000/svg">
<g clip-path="url(#clip0_834_2117)">
<path d="M1.63354 3.36458C1.63354 3.1524 1.71783 2.94892 1.86786 2.79889C2.01789 2.64886 2.22137 2.56458 2.43354 2.56458H4.83354C5.04572 2.56458 5.2492 2.64886 5.39923 2.79889C5.54926 2.94892 5.63354 3.1524 5.63354 3.36458V6.56458C5.63354 6.77675 5.54926 6.98023 5.39923 7.13026C5.2492 7.28029 5.04572 7.36458 4.83354 7.36458H2.43354C2.22137 7.36458 2.01789 7.28029 1.86786 7.13026C1.71783 6.98023 1.63354 6.77675 1.63354 6.56458V3.36458ZM6.65474 3.80698C6.58831 3.84017 6.53243 3.89121 6.49337 3.95436C6.4543 4.01752 6.43358 4.09031 6.43354 4.16458V5.76458C6.43358 5.83884 6.4543 5.91163 6.49337 5.97479C6.53243 6.03794 6.58831 6.08898 6.65474 6.12218L7.45474 6.52218C7.51571 6.55264 7.58346 6.56702 7.65154 6.56396C7.71963 6.56089 7.7858 6.54048 7.84379 6.50465C7.90177 6.46883 7.94964 6.41878 7.98285 6.35927C8.01606 6.29975 8.03351 6.23273 8.03354 6.16458V3.76458C8.03351 3.69642 8.01606 3.6294 7.98285 3.56988C7.94964 3.51037 7.90177 3.46032 7.84379 3.4245C7.7858 3.38867 7.71963 3.36826 7.65154 3.36519C7.58346 3.36213 7.51571 3.37651 7.45474 3.40698L6.65474 3.80698Z" fill="#EDE9FE"/>
</g>
<defs>
<clipPath id="clip0_834_2117">
<rect width="8" height="8" fill="white" transform="translate(0.833496 0.9646)"/>
</clipPath>
</defs>
</svg>
