<svg width="9" height="9" viewBox="0 0 9 9" fill="none" xmlns="http://www.w3.org/2000/svg">
<g clip-path="url(#clip0_834_3106)">
<path d="M1.73657 2.71858C1.73657 2.50641 1.82086 2.30292 1.97089 2.15289C2.12092 2.00286 2.3244 1.91858 2.53657 1.91858H4.93657C5.14875 1.91858 5.35223 2.00286 5.50226 2.15289C5.65229 2.30292 5.73657 2.50641 5.73657 2.71858V5.91858C5.73657 6.13075 5.65229 6.33424 5.50226 6.48426C5.35223 6.63429 5.14875 6.71858 4.93657 6.71858H2.53657C2.3244 6.71858 2.12092 6.63429 1.97089 6.48426C1.82086 6.33424 1.73657 6.13075 1.73657 5.91858V2.71858ZM6.75777 3.16098C6.69134 3.19418 6.63546 3.24521 6.59639 3.30837C6.55733 3.37153 6.53661 3.44431 6.53657 3.51858V5.11858C6.53661 5.19284 6.55733 5.26563 6.59639 5.32879C6.63546 5.39195 6.69134 5.44298 6.75777 5.47618L7.55777 5.87618C7.61874 5.90665 7.68648 5.92103 7.75457 5.91796C7.82266 5.91489 7.88883 5.89448 7.94681 5.85866C8.0048 5.82283 8.05266 5.77279 8.08587 5.71327C8.11908 5.65375 8.13654 5.58674 8.13657 5.51858V3.11858C8.13654 3.05042 8.11908 2.98341 8.08587 2.92389C8.05266 2.86437 8.0048 2.81432 7.94681 2.7785C7.88883 2.74268 7.82266 2.72226 7.75457 2.7192C7.68648 2.71613 7.61874 2.73051 7.55777 2.76098L6.75777 3.16098Z" fill="#E0F2FE"/>
</g>
<defs>
<clipPath id="clip0_834_3106">
<rect width="8" height="8" fill="white" transform="translate(0.936523 0.318604)"/>
</clipPath>
</defs>
</svg>
