<svg width="55" height="48" viewBox="0 0 55 48" fill="none" xmlns="http://www.w3.org/2000/svg">
<path d="M11.4583 14H43.5416M22.9166 20V36M32.0833 20V36M22.9166 6.00003H32.0833C32.691 6.00003 33.2739 6.21074 33.7037 6.58582C34.1335 6.96089 34.3749 7.4696 34.3749 8.00003V14H20.6249V8.00003C20.6249 7.4696 20.8664 6.96089 21.2961 6.58582C21.7259 6.21074 22.3088 6.00003 22.9166 6.00003ZM13.7499 14H41.2499V40C41.2499 40.5305 41.0085 41.0392 40.5787 41.4142C40.1489 41.7893 39.566 42 38.9583 42H16.0416C15.4338 42 14.8509 41.7893 14.4211 41.4142C13.9914 41.0392 13.7499 40.5305 13.7499 40V14Z" stroke="#8A8A8A" stroke-width="2" stroke-linecap="round" stroke-linejoin="round"/>
</svg>
