<svg width="34" height="34" viewBox="0 0 34 34" fill="none" xmlns="http://www.w3.org/2000/svg">
<path d="M16.9291 25.5C17.4249 25.5 17.8443 25.3286 18.1871 24.9857C18.5299 24.6429 18.7009 24.224 18.6999 23.7292C18.699 23.2343 18.528 22.8149 18.1871 22.4712C17.8461 22.1274 17.4268 21.9564 16.9291 21.9583C16.4314 21.9602 16.0125 22.1316 15.6725 22.4726C15.3325 22.8135 15.1611 23.2324 15.1583 23.7292C15.1554 24.2259 15.3268 24.6453 15.6725 24.9872C16.0182 25.329 16.437 25.5 16.9291 25.5ZM15.6541 20.0458H18.2749C18.2749 19.2667 18.3637 18.6528 18.5413 18.2042C18.7188 17.7555 19.2203 17.1417 20.0458 16.3625C20.6596 15.7486 21.1437 15.164 21.4978 14.6087C21.852 14.0533 22.0291 13.3865 22.0291 12.6083C22.0291 11.2861 21.5451 10.2708 20.577 9.56249C19.6089 8.85415 18.4638 8.49999 17.1416 8.49999C15.7958 8.49999 14.704 8.85415 13.8663 9.56249C13.0285 10.2708 12.4439 11.1208 12.1124 12.1125L14.4499 13.0333C14.568 12.6083 14.8338 12.1479 15.2475 11.6521C15.6612 11.1562 16.2925 10.9083 17.1416 10.9083C17.8971 10.9083 18.4638 11.1152 18.8416 11.5288C19.2194 11.9425 19.4083 12.3968 19.4083 12.8917C19.4083 13.3639 19.2666 13.8068 18.9833 14.2205C18.6999 14.6342 18.3458 15.0176 17.9208 15.3708C16.8819 16.2917 16.2444 16.9882 16.0083 17.4604C15.7721 17.9326 15.6541 18.7944 15.6541 20.0458ZM16.9999 31.1667C15.0402 31.1667 13.1985 30.795 11.4749 30.0517C9.75131 29.3085 8.252 28.2988 6.977 27.0229C5.702 25.747 4.69287 24.2477 3.94959 22.525C3.20631 20.8023 2.8342 18.9607 2.83325 17C2.83231 15.0393 3.20442 13.1977 3.94959 11.475C4.69475 9.75232 5.70389 8.25301 6.977 6.97707C8.25012 5.70113 9.74942 4.69199 11.4749 3.94965C13.2004 3.20732 15.0421 2.83521 16.9999 2.83332C18.9578 2.83143 20.7994 3.20354 22.5249 3.94965C24.2504 4.69576 25.7497 5.7049 27.0228 6.97707C28.296 8.24924 29.3056 9.74854 30.0517 11.475C30.7978 13.2014 31.1694 15.0431 31.1666 17C31.1638 18.9569 30.7916 20.7985 30.0503 22.525C29.3089 24.2514 28.2997 25.7507 27.0228 27.0229C25.746 28.2951 24.2466 29.3047 22.5249 30.0517C20.8032 30.7988 18.9615 31.1704 16.9999 31.1667ZM16.9999 28.3333C20.1638 28.3333 22.8437 27.2354 25.0395 25.0396C27.2353 22.8437 28.3333 20.1639 28.3333 17C28.3333 13.8361 27.2353 11.1562 25.0395 8.9604C22.8437 6.76457 20.1638 5.66665 16.9999 5.66665C13.836 5.66665 11.1562 6.76457 8.96034 8.9604C6.7645 11.1562 5.66659 13.8361 5.66659 17C5.66659 20.1639 6.7645 22.8437 8.96034 25.0396C11.1562 27.2354 13.836 28.3333 16.9999 28.3333Z" fill="#699BF7"/>
</svg>
