<svg width="25" height="24" viewBox="0 0 25 24" fill="none" xmlns="http://www.w3.org/2000/svg">
<path d="M20.0194 4.88109L19.2835 4.14515C19.0755 3.93716 18.6915 3.96917 18.4515 4.25711L15.8913 6.80108C14.7392 6.30514 13.4754 6.06514 12.1473 6.06514C8.19519 6.08107 4.77141 8.38504 3.12329 11.6973C3.02726 11.9052 3.02726 12.1612 3.12329 12.3372C3.89122 13.9052 5.04329 15.2012 6.4833 16.1772L4.3873 18.3051C4.1473 18.5451 4.11529 18.9291 4.27534 19.1371L5.01128 19.8731C5.21928 20.081 5.60326 20.049 5.84326 19.7611L19.8912 5.71321C20.1952 5.47334 20.2272 5.08938 20.0192 4.88137L20.0194 4.88109ZM12.9953 9.71298C12.7233 9.64896 12.4353 9.56901 12.1633 9.56901C10.8033 9.56901 9.71538 10.657 9.71538 12.0169C9.71538 12.2889 9.7794 12.5769 9.85935 12.8489L8.78724 13.9049C8.46728 13.345 8.2913 12.7209 8.2913 12.017C8.2913 9.88899 10.0033 8.17697 12.1313 8.17697C12.8354 8.17697 13.4593 8.35295 14.0193 8.67291L12.9953 9.71298Z" fill="#666666" fill-opacity="0.8"/>
<path d="M21.1714 11.6974C20.6114 10.5774 19.8753 9.56945 18.9634 8.75342L15.9874 11.6974V12.0174C15.9874 14.1454 14.2754 15.8574 12.1474 15.8574H11.8274L9.93945 17.7454C10.6435 17.8893 11.3795 17.9854 12.0995 17.9854C16.0516 17.9854 19.4754 15.6814 21.1235 12.3532C21.2675 12.1292 21.2675 11.9053 21.1714 11.6973L21.1714 11.6974Z" fill="#666666" fill-opacity="0.8"/>
</svg>
