<svg width="914" height="155" viewBox="0 0 914 155" fill="none" xmlns="http://www.w3.org/2000/svg">
<path d="M5.18066 105.706L155.725 140.058L306.27 20.73L456.814 27.962L607.358 150.906L757.903 4.45799L908.447 49.658" stroke="#953BDE"/>
<path d="M5.18085 109.096C7.68349 109.096 9.71229 107.578 9.71229 105.706C9.71229 103.834 7.68349 102.316 5.18085 102.316C2.67821 102.316 0.649414 103.834 0.649414 105.706C0.649414 107.578 2.67821 109.096 5.18085 109.096Z" fill="white" stroke="#953BDE"/>
<path d="M155.725 143.448C158.227 143.448 160.256 141.93 160.256 140.058C160.256 138.186 158.227 136.668 155.725 136.668C153.222 136.668 151.193 138.186 151.193 140.058C151.193 141.93 153.222 143.448 155.725 143.448Z" fill="white" stroke="#953BDE"/>
<path d="M306.27 24.12C308.772 24.12 310.801 22.6022 310.801 20.73C310.801 18.8578 308.772 17.34 306.27 17.34C303.767 17.34 301.738 18.8578 301.738 20.73C301.738 22.6022 303.767 24.12 306.27 24.12Z" fill="white" stroke="#953BDE"/>
<path d="M456.814 31.352C459.316 31.352 461.345 29.8342 461.345 27.962C461.345 26.0897 459.316 24.572 456.814 24.572C454.311 24.572 452.282 26.0897 452.282 27.962C452.282 29.8342 454.311 31.352 456.814 31.352Z" fill="white" stroke="#953BDE"/>
<path d="M607.359 154.296C609.861 154.296 611.89 152.778 611.89 150.906C611.89 149.034 609.861 147.516 607.359 147.516C604.856 147.516 602.827 149.034 602.827 150.906C602.827 152.778 604.856 154.296 607.359 154.296Z" fill="white" stroke="#953BDE"/>
<path d="M757.903 7.84799C760.405 7.84799 762.434 6.33024 762.434 4.45799C762.434 2.58575 760.405 1.06799 757.903 1.06799C755.4 1.06799 753.371 2.58575 753.371 4.45799C753.371 6.33024 755.4 7.84799 757.903 7.84799Z" fill="white" stroke="#953BDE"/>
<path d="M908.447 53.048C910.95 53.048 912.979 51.5302 912.979 49.658C912.979 47.7857 910.95 46.268 908.447 46.268C905.945 46.268 903.916 47.7857 903.916 49.658C903.916 51.5302 905.945 53.048 908.447 53.048Z" fill="white" stroke="#953BDE"/>
</svg>
