<svg width="21" height="20" viewBox="0 0 21 20" fill="none" xmlns="http://www.w3.org/2000/svg">
<path fill-rule="evenodd" clip-rule="evenodd" d="M8.11469 14.707C7.92721 14.5195 7.8219 14.2652 7.8219 14C7.8219 13.7348 7.92721 13.4805 8.11469 13.293L11.4077 10L8.11469 6.70701C7.93253 6.51841 7.83173 6.26581 7.83401 6.00361C7.83629 5.74141 7.94146 5.4906 8.12687 5.30519C8.31228 5.11978 8.56309 5.01461 8.82528 5.01234C9.08748 5.01006 9.34008 5.11085 9.52869 5.29301L13.5287 9.29301C13.7162 9.48054 13.8215 9.73485 13.8215 10C13.8215 10.2652 13.7162 10.5195 13.5287 10.707L9.52869 14.707C9.34116 14.8945 9.08685 14.9998 8.82169 14.9998C8.55652 14.9998 8.30221 14.8945 8.11469 14.707Z" fill="#18181B"/>
</svg>
