<svg width="21" height="20" viewBox="0 0 21 20" fill="none" xmlns="http://www.w3.org/2000/svg">
<path fill-rule="evenodd" clip-rule="evenodd" d="M13.5287 5.293C13.7162 5.48053 13.8215 5.73484 13.8215 6C13.8215 6.26516 13.7162 6.51947 13.5287 6.707L10.2357 10L13.5287 13.293C13.7108 13.4816 13.8116 13.7342 13.8094 13.9964C13.8071 14.2586 13.7019 14.5094 13.5165 14.6948C13.3311 14.8802 13.0803 14.9854 12.8181 14.9877C12.5559 14.99 12.3033 14.8892 12.1147 14.707L8.11469 10.707C7.92721 10.5195 7.8219 10.2652 7.8219 10C7.8219 9.73484 7.92721 9.48053 8.11469 9.293L12.1147 5.293C12.3022 5.10553 12.5565 5.00021 12.8217 5.00021C13.0869 5.00021 13.3412 5.10553 13.5287 5.293Z" fill="#18181B"/>
</svg>
