<svg width="9" height="9" viewBox="0 0 9 9" fill="none" xmlns="http://www.w3.org/2000/svg">
<g clip-path="url(#clip0_995_237)">
<path d="M0.952759 3.36464C0.952759 3.15246 1.03704 2.94898 1.18707 2.79895C1.3371 2.64892 1.54059 2.56464 1.75276 2.56464H4.15276C4.36493 2.56464 4.56841 2.64892 4.71844 2.79895C4.86847 2.94898 4.95276 3.15246 4.95276 3.36464V6.56464C4.95276 6.77681 4.86847 6.98029 4.71844 7.13032C4.56841 7.28035 4.36493 7.36464 4.15276 7.36464H1.75276C1.54059 7.36464 1.3371 7.28035 1.18707 7.13032C1.03704 6.98029 0.952759 6.77681 0.952759 6.56464V3.36464ZM5.97396 3.80704C5.90753 3.84023 5.85165 3.89127 5.81258 3.95443C5.77351 4.01758 5.7528 4.09037 5.75276 4.16464V5.76464C5.7528 5.8389 5.77351 5.91169 5.81258 5.97485C5.85165 6.038 5.90753 6.08904 5.97396 6.12224L6.77396 6.52224C6.83493 6.5527 6.90267 6.56708 6.97076 6.56402C7.03884 6.56095 7.10502 6.54054 7.163 6.50471C7.22098 6.46889 7.26885 6.41885 7.30206 6.35933C7.33527 6.29981 7.35272 6.23279 7.35276 6.16464V3.76464C7.35272 3.69648 7.33527 3.62946 7.30206 3.56994C7.26885 3.51043 7.22098 3.46038 7.163 3.42456C7.10502 3.38874 7.03884 3.36832 6.97076 3.36525C6.90267 3.36219 6.83493 3.37657 6.77396 3.40704L5.97396 3.80704Z" fill="#E0F2FE"/>
</g>
<defs>
<clipPath id="clip0_995_237">
<rect width="8" height="8" fill="white" transform="translate(0.15271 0.964638)"/>
</clipPath>
</defs>
</svg>
