<svg width="8" height="8" viewBox="0 0 8 8" fill="none" xmlns="http://www.w3.org/2000/svg">
<g clip-path="url(#clip0_995_811)">
<path d="M0.800293 2.40031C0.800293 2.18814 0.884578 1.98465 1.03461 1.83463C1.18464 1.6846 1.38812 1.60031 1.60029 1.60031H4.00029C4.21247 1.60031 4.41595 1.6846 4.56598 1.83463C4.71601 1.98465 4.80029 2.18814 4.80029 2.40031V5.60031C4.80029 5.81248 4.71601 6.01597 4.56598 6.166C4.41595 6.31603 4.21247 6.40031 4.00029 6.40031H1.60029C1.38812 6.40031 1.18464 6.31603 1.03461 6.166C0.884578 6.01597 0.800293 5.81248 0.800293 5.60031V2.40031ZM5.82149 2.84271C5.75506 2.87591 5.69918 2.92694 5.66011 2.9901C5.62105 3.05326 5.60033 3.12605 5.60029 3.20031V4.80031C5.60033 4.87458 5.62105 4.94736 5.66011 5.01052C5.69918 5.07368 5.75506 5.12472 5.82149 5.15791L6.62149 5.55791C6.68246 5.58838 6.7502 5.60276 6.81829 5.59969C6.88638 5.59663 6.95255 5.57621 7.01054 5.54039C7.06852 5.50457 7.11638 5.45452 7.1496 5.395C7.18281 5.33548 7.20026 5.26847 7.20029 5.20031V2.80031C7.20026 2.73215 7.18281 2.66514 7.1496 2.60562C7.11638 2.5461 7.06852 2.49606 7.01054 2.46023C6.95255 2.42441 6.88638 2.404 6.81829 2.40093C6.7502 2.39786 6.68246 2.41225 6.62149 2.44271L5.82149 2.84271Z" fill="#E0F2FE"/>
</g>
<defs>
<clipPath id="clip0_995_811">
<rect width="8" height="8" fill="white" transform="translate(0.000244141 0.000305176)"/>
</clipPath>
</defs>
</svg>
