<svg width="9" height="9" viewBox="0 0 9 9" fill="none" xmlns="http://www.w3.org/2000/svg">
<path d="M1.03223 2.71885C1.03223 2.50667 1.11651 2.30319 1.26654 2.15316C1.41657 2.00313 1.62005 1.91885 1.83223 1.91885H4.23223C4.4444 1.91885 4.64788 2.00313 4.79791 2.15316C4.94794 2.30319 5.03223 2.50667 5.03223 2.71885V5.91885C5.03223 6.13102 4.94794 6.3345 4.79791 6.48453C4.64788 6.63456 4.4444 6.71885 4.23223 6.71885H1.83223C1.62005 6.71885 1.41657 6.63456 1.26654 6.48453C1.11651 6.3345 1.03223 6.13102 1.03223 5.91885V2.71885ZM6.05343 3.16125C5.98699 3.19444 5.93111 3.24548 5.89205 3.30864C5.85298 3.37179 5.83227 3.44458 5.83223 3.51885V5.11885C5.83227 5.19311 5.85298 5.2659 5.89205 5.32906C5.93111 5.39221 5.98699 5.44325 6.05343 5.47645L6.85343 5.87645C6.91439 5.90691 6.98214 5.92129 7.05022 5.91823C7.11831 5.91516 7.18449 5.89475 7.24247 5.85892C7.30045 5.8231 7.34832 5.77306 7.38153 5.71354C7.41474 5.65402 7.43219 5.587 7.43223 5.51885V3.11885C7.43219 3.05069 7.41474 2.98367 7.38153 2.92415C7.34832 2.86464 7.30045 2.81459 7.24247 2.77877C7.18449 2.74294 7.11831 2.72253 7.05022 2.71946C6.98214 2.7164 6.91439 2.73078 6.85343 2.76125L6.05343 3.16125Z" fill="#E0F2FE"/>
</svg>
