<svg width="9" height="9" viewBox="0 0 9 9" fill="none" xmlns="http://www.w3.org/2000/svg">
<path d="M1.37183 2.91318C1.37183 2.70101 1.45611 2.49753 1.60614 2.3475C1.75617 2.19747 1.95965 2.11318 2.17183 2.11318H4.57183C4.784 2.11318 4.98748 2.19747 5.13751 2.3475C5.28754 2.49753 5.37183 2.70101 5.37183 2.91318V6.11318C5.37183 6.32536 5.28754 6.52884 5.13751 6.67887C4.98748 6.8289 4.784 6.91318 4.57183 6.91318H2.17183C1.95965 6.91318 1.75617 6.8289 1.60614 6.67887C1.45611 6.52884 1.37183 6.32536 1.37183 6.11318V2.91318ZM6.39303 3.35558C6.32659 3.38878 6.27071 3.43981 6.23165 3.50297C6.19258 3.56613 6.17187 3.63892 6.17183 3.71318V5.31318C6.17187 5.38745 6.19258 5.46023 6.23165 5.52339C6.27071 5.58655 6.32659 5.63759 6.39303 5.67078L7.19303 6.07078C7.25399 6.10125 7.32174 6.11563 7.38982 6.11256C7.45791 6.1095 7.52409 6.08908 7.58207 6.05326C7.64005 6.01744 7.68792 5.96739 7.72113 5.90787C7.75434 5.84836 7.77179 5.78134 7.77183 5.71318V3.31318C7.77179 3.24503 7.75434 3.17801 7.72113 3.11849C7.68792 3.05897 7.64005 3.00893 7.58207 2.9731C7.52409 2.93728 7.45791 2.91687 7.38982 2.9138C7.32174 2.91073 7.25399 2.92512 7.19303 2.95558L6.39303 3.35558Z" fill="#E0F2FE"/>
</svg>
