<svg width="9" height="9" viewBox="0 0 9 9" fill="none" xmlns="http://www.w3.org/2000/svg">
<g clip-path="url(#clip0_650_3894)">
<path d="M0.840576 2.6212C0.840576 2.40902 0.924862 2.20554 1.07489 2.05551C1.22492 1.90548 1.4284 1.8212 1.64058 1.8212H4.04058C4.25275 1.8212 4.45623 1.90548 4.60626 2.05551C4.75629 2.20554 4.84058 2.40902 4.84058 2.6212V5.8212C4.84058 6.03337 4.75629 6.23685 4.60626 6.38688C4.45623 6.53691 4.25275 6.6212 4.04058 6.6212H1.64058C1.4284 6.6212 1.22492 6.53691 1.07489 6.38688C0.924862 6.23685 0.840576 6.03337 0.840576 5.8212V2.6212ZM5.86178 3.0636C5.79534 3.09679 5.73946 3.14783 5.7004 3.21099C5.66133 3.27415 5.64062 3.34693 5.64058 3.4212V5.0212C5.64062 5.09546 5.66133 5.16825 5.7004 5.23141C5.73946 5.29457 5.79534 5.3456 5.86178 5.3788L6.66178 5.7788C6.72274 5.80926 6.79049 5.82365 6.85857 5.82058C6.92666 5.81751 6.99284 5.7971 7.05082 5.76128C7.1088 5.72545 7.15667 5.67541 7.18988 5.61589C7.22309 5.55637 7.24054 5.48935 7.24058 5.4212V3.0212C7.24054 2.95304 7.22309 2.88602 7.18988 2.82651C7.15667 2.76699 7.1088 2.71694 7.05082 2.68112C6.99284 2.6453 6.92666 2.62488 6.85857 2.62182C6.79049 2.61875 6.72274 2.63313 6.66178 2.6636L5.86178 3.0636Z" fill="#E0F2FE"/>
</g>
<defs>
<clipPath id="clip0_650_3894">
<rect width="8" height="8" fill="white" transform="translate(0.0405273 0.221191)"/>
</clipPath>
</defs>
</svg>
