<svg width="9" height="9" viewBox="0 0 9 9" fill="none" xmlns="http://www.w3.org/2000/svg">
<g clip-path="url(#clip0_995_2629)">
<path d="M0.952759 2.71866C0.952759 2.50649 1.03704 2.30301 1.18707 2.15298C1.3371 2.00295 1.54059 1.91866 1.75276 1.91866H4.15276C4.36493 1.91866 4.56841 2.00295 4.71844 2.15298C4.86847 2.30301 4.95276 2.50649 4.95276 2.71866V5.91866C4.95276 6.13084 4.86847 6.33432 4.71844 6.48435C4.56841 6.63438 4.36493 6.71866 4.15276 6.71866H1.75276C1.54059 6.71866 1.3371 6.63438 1.18707 6.48435C1.03704 6.33432 0.952759 6.13084 0.952759 5.91866V2.71866ZM5.97396 3.16106C5.90753 3.19426 5.85165 3.24529 5.81258 3.30845C5.77351 3.37161 5.7528 3.4444 5.75276 3.51866V5.11866C5.7528 5.19293 5.77351 5.26572 5.81258 5.32887C5.85165 5.39203 5.90753 5.44307 5.97396 5.47626L6.77396 5.87626C6.83493 5.90673 6.90267 5.92111 6.97076 5.91804C7.03884 5.91498 7.10502 5.89456 7.163 5.85874C7.22098 5.82292 7.26885 5.77287 7.30206 5.71335C7.33527 5.65384 7.35272 5.58682 7.35276 5.51866V3.11866C7.35272 3.05051 7.33527 2.98349 7.30206 2.92397C7.26885 2.86445 7.22098 2.81441 7.163 2.77859C7.10502 2.74276 7.03884 2.72235 6.97076 2.71928C6.90267 2.71621 6.83493 2.7306 6.77396 2.76106L5.97396 3.16106Z" fill="#E0F2FE"/>
</g>
<defs>
<clipPath id="clip0_995_2629">
<rect width="8" height="8" fill="white" transform="translate(0.15271 0.318665)"/>
</clipPath>
</defs>
</svg>
