<svg width="9" height="9" viewBox="0 0 9 9" fill="none" xmlns="http://www.w3.org/2000/svg">
<path d="M1.03223 3.36484C1.03223 3.15267 1.11651 2.94919 1.26654 2.79916C1.41657 2.64913 1.62005 2.56484 1.83223 2.56484H4.23223C4.4444 2.56484 4.64788 2.64913 4.79791 2.79916C4.94794 2.94919 5.03223 3.15267 5.03223 3.36484V6.56484C5.03223 6.77702 4.94794 6.9805 4.79791 7.13053C4.64788 7.28056 4.4444 7.36484 4.23223 7.36484H1.83223C1.62005 7.36484 1.41657 7.28056 1.26654 7.13053C1.11651 6.9805 1.03223 6.77702 1.03223 6.56484V3.36484ZM6.05343 3.80724C5.98699 3.84044 5.93111 3.89147 5.89205 3.95463C5.85298 4.01779 5.83227 4.09058 5.83223 4.16484V5.76484C5.83227 5.83911 5.85298 5.91189 5.89205 5.97505C5.93111 6.03821 5.98699 6.08925 6.05343 6.12244L6.85343 6.52244C6.91439 6.55291 6.98214 6.56729 7.05022 6.56422C7.11831 6.56116 7.18449 6.54074 7.24247 6.50492C7.30045 6.4691 7.34832 6.41905 7.38153 6.35953C7.41474 6.30002 7.43219 6.233 7.43223 6.16484V3.76484C7.43219 3.69669 7.41474 3.62967 7.38153 3.57015C7.34832 3.51063 7.30045 3.46059 7.24247 3.42476C7.18449 3.38894 7.11831 3.36853 7.05022 3.36546C6.98214 3.36239 6.91439 3.37678 6.85343 3.40724L6.05343 3.80724Z" fill="#EDE9FE"/>
</svg>
