<svg width="8" height="9" viewBox="0 0 8 9" fill="none" xmlns="http://www.w3.org/2000/svg">
<g clip-path="url(#clip0_995_5442)">
<path d="M0.791748 2.91318C0.791748 2.70101 0.876033 2.49753 1.02606 2.3475C1.17609 2.19747 1.37957 2.11318 1.59175 2.11318H3.99175C4.20392 2.11318 4.4074 2.19747 4.55743 2.3475C4.70746 2.49753 4.79175 2.70101 4.79175 2.91318V6.11318C4.79175 6.32536 4.70746 6.52884 4.55743 6.67887C4.4074 6.8289 4.20392 6.91318 3.99175 6.91318H1.59175C1.37957 6.91318 1.17609 6.8289 1.02606 6.67887C0.876033 6.52884 0.791748 6.32536 0.791748 6.11318V2.91318ZM5.81295 3.35558C5.74652 3.38878 5.69064 3.43981 5.65157 3.50297C5.6125 3.56613 5.59179 3.63892 5.59175 3.71318V5.31318C5.59179 5.38745 5.6125 5.46023 5.65157 5.52339C5.69064 5.58655 5.74652 5.63759 5.81295 5.67078L6.61295 6.07078C6.67392 6.10125 6.74166 6.11563 6.80975 6.11256C6.87783 6.1095 6.94401 6.08908 7.00199 6.05326C7.05997 6.01744 7.10784 5.96739 7.14105 5.90787C7.17426 5.84836 7.19171 5.78134 7.19175 5.71318V3.31318C7.19171 3.24503 7.17426 3.17801 7.14105 3.11849C7.10784 3.05897 7.05997 3.00893 7.00199 2.9731C6.94401 2.93728 6.87783 2.91687 6.80975 2.9138C6.74166 2.91073 6.67392 2.92512 6.61295 2.95558L5.81295 3.35558Z" fill="#E0F2FE"/>
</g>
<defs>
<clipPath id="clip0_995_5442">
<rect width="8" height="8" fill="white" transform="translate(-0.00830078 0.513184)"/>
</clipPath>
</defs>
</svg>
