<svg width="9" height="9" viewBox="0 0 9 9" fill="none" xmlns="http://www.w3.org/2000/svg">
<path d="M1.37183 2.81602C1.37183 2.60384 1.45611 2.40036 1.60614 2.25033C1.75617 2.1003 1.95965 2.01602 2.17183 2.01602H4.57183C4.784 2.01602 4.98748 2.1003 5.13751 2.25033C5.28754 2.40036 5.37183 2.60384 5.37183 2.81602V6.01602C5.37183 6.22819 5.28754 6.43167 5.13751 6.5817C4.98748 6.73173 4.784 6.81602 4.57183 6.81602H2.17183C1.95965 6.81602 1.75617 6.73173 1.60614 6.5817C1.45611 6.43167 1.37183 6.22819 1.37183 6.01602V2.81602ZM6.39303 3.25842C6.32659 3.29161 6.27071 3.34265 6.23165 3.40581C6.19258 3.46896 6.17187 3.54175 6.17183 3.61602V5.21602C6.17187 5.29028 6.19258 5.36307 6.23165 5.42623C6.27071 5.48938 6.32659 5.54042 6.39303 5.57362L7.19303 5.97362C7.25399 6.00408 7.32174 6.01846 7.38982 6.0154C7.45791 6.01233 7.52409 5.99192 7.58207 5.95609C7.64005 5.92027 7.68792 5.87023 7.72113 5.81071C7.75434 5.75119 7.77179 5.68417 7.77183 5.61602V3.21602C7.77179 3.14786 7.75434 3.08084 7.72113 3.02132C7.68792 2.96181 7.64005 2.91176 7.58207 2.87594C7.52409 2.84011 7.45791 2.8197 7.38982 2.81663C7.32174 2.81357 7.25399 2.82795 7.19303 2.85842L6.39303 3.25842Z" fill="#EDE9FE"/>
</svg>
