<svg width="9" height="8" viewBox="0 0 9 8" fill="none" xmlns="http://www.w3.org/2000/svg">
<g clip-path="url(#clip0_995_337)">
<path d="M1.72241 2.40001C1.72241 2.18783 1.8067 1.98435 1.95673 1.83432C2.10676 1.68429 2.31024 1.60001 2.52241 1.60001H4.92241C5.13459 1.60001 5.33807 1.68429 5.4881 1.83432C5.63813 1.98435 5.72241 2.18783 5.72241 2.40001V5.60001C5.72241 5.81218 5.63813 6.01566 5.4881 6.16569C5.33807 6.31572 5.13459 6.40001 4.92241 6.40001H2.52241C2.31024 6.40001 2.10676 6.31572 1.95673 6.16569C1.8067 6.01566 1.72241 5.81218 1.72241 5.60001V2.40001ZM6.74361 2.84241C6.67718 2.8756 6.6213 2.92664 6.58223 2.9898C6.54317 3.05295 6.52245 3.12574 6.52241 3.20001V4.80001C6.52245 4.87427 6.54317 4.94706 6.58223 5.01022C6.6213 5.07337 6.67718 5.12441 6.74361 5.15761L7.54361 5.55761C7.60458 5.58807 7.67232 5.60245 7.74041 5.59939C7.8085 5.59632 7.87467 5.57591 7.93265 5.54008C7.99064 5.50426 8.0385 5.45422 8.07171 5.3947C8.10492 5.33518 8.12238 5.26816 8.12241 5.20001V2.80001C8.12238 2.73185 8.10492 2.66483 8.07171 2.60531C8.0385 2.5458 7.99064 2.49575 7.93265 2.45993C7.87467 2.4241 7.8085 2.40369 7.74041 2.40062C7.67232 2.39756 7.60458 2.41194 7.54361 2.44241L6.74361 2.84241Z" fill="white"/>
</g>
<defs>
<clipPath id="clip0_995_337">
<rect width="8" height="8" fill="white" transform="translate(0.922363)"/>
</clipPath>
</defs>
</svg>
