<svg width="65" height="3" viewBox="0 0 65 3" fill="none" xmlns="http://www.w3.org/2000/svg">
<path d="M63.9942 2.01261C64.5499 2.01239 65.0002 1.56172 65 1.00603V1.00603C64.9997 0.450327 64.5491 2.44324e-05 63.9934 0.000246716L1.00615 0.0254421C0.450451 0.0256644 0.000149001 0.476327 0.000371284 1.03203V1.03203C0.000593568 1.58772 0.451257 2.03803 1.00696 2.0378L63.9942 2.01261Z" fill="#EEEEEE"/>
<path d="M64 2C64.5523 2 65 1.55228 65 1V1C65 0.447715 64.5523 0 64 0L1 0C0.447715 0 0 0.447715 0 1V1C0 1.55228 0.447715 2 1 2L64 2Z" fill="#0077FF"/>
</svg>
