<svg width="65" height="3" viewBox="0 0 65 3" fill="none" xmlns="http://www.w3.org/2000/svg">
<path d="M63.9942 2.01285C64.5499 2.01263 65.0002 1.56197 65 1.00627V1.00627C64.9997 0.450571 64.5491 0.000268573 63.9934 0.000490857L1.00615 0.0256862C0.450451 0.0259085 0.000149001 0.476571 0.000371284 1.03227V1.03227C0.000593568 1.58797 0.451257 2.03827 1.00696 2.03805L63.9942 2.01285Z" fill="#EEEEEE"/>
<path d="M64 2.00024C64.5523 2.00024 65 1.55253 65 1.00024V1.00024C65 0.447959 64.5523 0.000244141 64 0.000244141L1 0.000244141C0.447715 0.000244141 0 0.447959 0 1.00024V1.00024C0 1.55253 0.447715 2.00024 1 2.00024L64 2.00024Z" fill="#0077FF"/>
</svg>
