<svg width="82" height="83" viewBox="0 0 82 83" fill="none" xmlns="http://www.w3.org/2000/svg">
<path d="M73.1456 41.2934C73.1456 59.2719 58.7539 73.8463 41.0008 73.8463C23.2477 73.8463 8.85602 59.2719 8.85602 41.2934C8.85602 23.3149 23.2477 8.74048 41.0008 8.74048C58.7539 8.74048 73.1456 23.3149 73.1456 41.2934ZM14.8417 41.2934C14.8417 55.9241 26.5535 67.7847 41.0008 67.7847C55.4481 67.7847 67.1599 55.9241 67.1599 41.2934C67.1599 26.6627 55.4481 14.8021 41.0008 14.8021C26.5535 14.8021 14.8417 26.6627 14.8417 41.2934Z" fill="#EEEEEE"/>
<path d="M38.6185 11.8846C38.4829 10.2108 39.7307 8.72206 41.4028 8.74318C48.8494 8.83723 56.0695 11.5503 61.7961 16.4703C68.2971 22.0556 72.341 30.0275 73.038 38.6321C73.735 47.2368 71.0282 55.7694 65.5129 62.353C60.6487 68.1594 53.9514 72.0302 46.6091 73.3474C44.972 73.6411 43.5201 72.3938 43.3854 70.7311C43.2499 69.0573 44.5017 67.6013 46.1428 67.2682C51.8909 66.1013 57.1181 63.0039 60.9485 58.4315C65.4368 53.0739 67.6396 46.1301 67.0724 39.1277C66.5052 32.1253 63.2143 25.6379 57.9239 21.0927C53.4011 17.207 47.7337 15.0128 41.864 14.8167C40.204 14.7612 38.7532 13.5473 38.6185 11.8846Z" fill="#0077FF"/>
</svg>
