<svg width="82" height="84" viewBox="0 0 82 84" fill="none" xmlns="http://www.w3.org/2000/svg">
<path d="M73.1456 41.7853C73.1456 59.7638 58.7539 74.3382 41.0008 74.3382C23.2477 74.3382 8.85602 59.7638 8.85602 41.7853C8.85602 23.8069 23.2477 9.23242 41.0008 9.23242C58.7539 9.23242 73.1456 23.8069 73.1456 41.7853ZM14.8417 41.7853C14.8417 56.416 26.5535 68.2766 41.0008 68.2766C55.4481 68.2766 67.1599 56.416 67.1599 41.7853C67.1599 27.1546 55.4481 15.2941 41.0008 15.2941C26.5535 15.2941 14.8417 27.1546 14.8417 41.7853Z" fill="#EEEEEE"/>
<path d="M38.6185 12.3763C38.4829 10.7025 39.7306 9.21377 41.4027 9.2349C48.3073 9.32217 55.0316 11.6612 60.5548 15.9481C66.8838 20.8604 71.1839 27.9795 72.62 35.9227C74.0561 43.8659 72.5256 52.0661 68.3258 58.9305C64.126 65.7949 57.5568 70.8335 49.894 73.0676C42.2313 75.3017 34.0221 74.5718 26.861 71.0197C19.6999 67.4676 14.0981 61.3468 11.1438 53.8463C8.18937 46.3458 8.09329 38.0009 10.8742 30.4327C13.3014 23.827 17.769 18.2246 23.5719 14.4327C24.9766 13.5148 26.8116 14.1021 27.5747 15.5909C28.3345 17.0734 27.7411 18.8873 26.3617 19.8306C21.8611 22.9081 18.3952 27.3452 16.484 32.5467C14.221 38.7056 14.2992 45.4966 16.7034 51.6004C19.1077 57.7043 23.6663 62.6853 29.494 65.576C35.3216 68.4667 42.0022 69.0607 48.238 67.2426C54.4739 65.4245 59.8199 61.3241 63.2377 55.7379C66.6554 50.1517 67.9009 43.4785 66.7322 37.0144C65.5636 30.5503 62.0642 24.7568 56.9137 20.7592C52.562 17.3816 47.2941 15.4899 41.8638 15.3084C40.2038 15.253 38.7532 14.039 38.6185 12.3763Z" fill="#0077FF"/>
</svg>
