<svg width="83" height="83" viewBox="0 0 83 83" fill="none" xmlns="http://www.w3.org/2000/svg">
<path d="M73.6463 41.4269C73.6463 59.4054 59.2546 73.9798 41.5015 73.9798C23.7485 73.9798 9.35675 59.4054 9.35675 41.4269C9.35675 23.4485 23.7485 8.87402 41.5015 8.87402C59.2546 8.87402 73.6463 23.4485 73.6463 41.4269ZM15.3424 41.4269C15.3424 56.0577 27.0542 67.9182 41.5015 67.9182C55.9488 67.9182 67.6607 56.0577 67.6607 41.4269C67.6607 26.7962 55.9488 14.9357 41.5015 14.9357C27.0542 14.9357 15.3424 26.7962 15.3424 41.4269Z" fill="#EEEEEE"/>
<path d="M39.1194 12.0179C38.9838 10.3441 40.2314 8.8554 41.9035 8.87656C46.4317 8.93389 50.909 9.95986 55.0372 11.9007C60.0848 14.2737 64.4376 17.9333 67.6697 22.5211C70.9017 27.109 72.9022 32.468 73.4755 38.0737C73.9448 42.6632 73.4443 47.2893 72.0208 51.6481C71.4992 53.2455 69.6961 53.9487 68.1718 53.2717C66.6688 52.6042 66.0067 50.845 66.491 49.2605C67.5316 45.856 67.8863 42.2635 67.5217 38.6981C67.0552 34.1362 65.4272 29.7751 62.797 26.0415C60.1668 22.308 56.6245 19.3299 52.5167 17.3987C49.3202 15.8959 45.8665 15.0671 42.3647 14.9501C40.7047 14.8946 39.2541 13.6806 39.1194 12.0179Z" fill="#0077FF"/>
</svg>
