<svg width="82" height="83" viewBox="0 0 82 83" fill="none" xmlns="http://www.w3.org/2000/svg">
<path d="M73.1456 41.6518C73.1456 59.6303 58.7539 74.2047 41.0008 74.2047C23.2477 74.2047 8.85602 59.6303 8.85602 41.6518C8.85602 23.6733 23.2477 9.09888 41.0008 9.09888C58.7539 9.09888 73.1456 23.6733 73.1456 41.6518ZM14.8417 41.6518C14.8417 56.2825 26.5535 68.1431 41.0008 68.1431C55.4481 68.1431 67.1599 56.2825 67.1599 41.6518C67.1599 27.0211 55.4481 15.1605 41.0008 15.1605C26.5535 15.1605 14.8417 27.0211 14.8417 41.6518Z" fill="#EEEEEE"/>
<path d="M38.6185 12.2428C38.4829 10.569 39.7306 9.08024 41.4027 9.10139C47.4813 9.17829 53.4368 11.0005 58.563 14.3868C64.5391 18.3345 69.0483 24.1835 71.3803 31.0124C73.7123 37.8412 73.7344 45.2617 71.4433 52.1047C69.1522 58.9477 64.6781 64.8243 58.7258 68.8085C52.7735 72.7928 45.6813 74.6584 38.5668 74.1112C31.4522 73.5641 24.7196 70.6354 19.4297 65.7865C14.1397 60.9377 10.5932 54.4443 9.34873 47.3294C8.28069 41.2229 8.96053 34.9566 11.2759 29.2606C11.9092 27.7025 13.7582 27.1293 15.2311 27.9145C16.6833 28.6886 17.2191 30.4928 16.624 32.0406C14.8909 36.5486 14.4029 41.4711 15.2426 46.2721C16.2553 52.0622 19.1415 57.3465 23.4464 61.2924C27.7513 65.2384 33.2302 67.6217 39.02 68.067C44.8098 68.5123 50.5813 66.9941 55.4252 63.7517C60.2692 60.5093 63.9102 55.727 65.7747 50.1582C67.6392 44.5895 67.6211 38.5508 65.7234 32.9935C63.8256 27.4363 60.156 22.6764 55.2928 19.4638C51.2719 16.8076 46.624 15.334 41.8639 15.1749C40.2039 15.1194 38.7532 13.9055 38.6185 12.2428Z" fill="#0077FF"/>
</svg>
