<svg width="34" height="34" viewBox="0 0 34 34" fill="none" xmlns="http://www.w3.org/2000/svg">
<path d="M16.9291 25.4999C17.425 25.4999 17.8443 25.3285 18.1871 24.9857C18.53 24.6428 18.7009 24.224 18.7 23.7291C18.699 23.2342 18.5281 22.8149 18.1871 22.4711C17.8462 22.1273 17.4269 21.9564 16.9291 21.9583C16.4314 21.9601 16.0126 22.1316 15.6726 22.4725C15.3326 22.8135 15.1611 23.2323 15.1583 23.7291C15.1555 24.2259 15.3269 24.6452 15.6726 24.9871C16.0182 25.329 16.4371 25.4999 16.9291 25.4999ZM15.6541 20.0458H18.275C18.275 19.2666 18.3638 18.6527 18.5413 18.2041C18.7189 17.7555 19.2204 17.1416 20.0458 16.3624C20.6597 15.7485 21.1437 15.1639 21.4979 14.6086C21.8521 14.0533 22.0291 13.3865 22.0291 12.6083C22.0291 11.286 21.5451 10.2708 20.5771 9.56243C19.609 8.85409 18.4639 8.49993 17.1416 8.49993C15.7958 8.49993 14.704 8.85409 13.8663 9.56243C13.0286 10.2708 12.444 11.1208 12.1125 12.1124L14.45 13.0333C14.568 12.6083 14.8339 12.1478 15.2476 11.652C15.6612 11.1562 16.2926 10.9083 17.1416 10.9083C17.8972 10.9083 18.4639 11.1151 18.8416 11.5288C19.2194 11.9424 19.4083 12.3967 19.4083 12.8916C19.4083 13.3638 19.2666 13.8068 18.9833 14.2204C18.7 14.6341 18.3458 15.0175 17.9208 15.3708C16.8819 16.2916 16.2444 16.9881 16.0083 17.4603C15.7722 17.9326 15.6541 18.7944 15.6541 20.0458ZM17 31.1666C15.0403 31.1666 13.1986 30.795 11.475 30.0517C9.75137 29.3084 8.25207 28.2988 6.97707 27.0228C5.70207 25.7469 4.69293 24.2476 3.94965 22.5249C3.20637 20.8023 2.83426 18.9606 2.83331 16.9999C2.83237 15.0393 3.20448 13.1976 3.94965 11.4749C4.69482 9.75226 5.70395 8.25295 6.97707 6.97701C8.25018 5.70106 9.74948 4.69193 11.475 3.94959C13.2005 3.20726 15.0421 2.83515 17 2.83326C18.9578 2.83137 20.7995 3.20348 22.525 3.94959C24.2505 4.6957 25.7498 5.70484 27.0229 6.97701C28.296 8.24918 29.3056 9.74848 30.0517 11.4749C30.7978 13.2014 31.1695 15.043 31.1667 16.9999C31.1638 18.9568 30.7917 20.7985 30.0503 22.5249C29.3089 24.2514 28.2998 25.7507 27.0229 27.0228C25.746 28.295 24.2467 29.3046 22.525 30.0517C20.8033 30.7987 18.9616 31.1704 17 31.1666ZM17 28.3333C20.1639 28.3333 22.8437 27.2353 25.0396 25.0395C27.2354 22.8437 28.3333 20.1638 28.3333 16.9999C28.3333 13.836 27.2354 11.1562 25.0396 8.96034C22.8437 6.76451 20.1639 5.66659 17 5.66659C13.8361 5.66659 11.1562 6.76451 8.9604 8.96034C6.76456 11.1562 5.66665 13.836 5.66665 16.9999C5.66665 20.1638 6.76456 22.8437 8.9604 25.0395C11.1562 27.2353 13.8361 28.3333 17 28.3333Z" fill="#699BF7"/>
</svg>
