<svg width="127" height="30" viewBox="0 0 127 30" fill="none" xmlns="http://www.w3.org/2000/svg">
<rect width="56.0202" height="19.6667" rx="9.83333" transform="matrix(1 0 0 -1 39.9798 25.0305)" fill="#0077FF"/>
<circle cx="14.899" cy="14.899" r="14.899" transform="matrix(1 0 0 -1 37 29.7981)" fill="white"/>
<path d="M13 8.889C9.73818 8.889 7.09091 11.5363 7.09091 14.7981C7.09091 18.0599 9.73818 20.7072 13 20.7072C16.2618 20.7072 18.9091 18.0599 18.9091 14.7981C18.9091 11.5363 16.2618 8.889 13 8.889ZM1.18182 15.9799H3.54545C4.19545 15.9799 4.72727 15.4481 4.72727 14.7981C4.72727 14.1481 4.19545 13.6163 3.54545 13.6163H1.18182C0.531818 13.6163 0 14.1481 0 14.7981C0 15.4481 0.531818 15.9799 1.18182 15.9799ZM22.4545 15.9799H24.8182C25.4682 15.9799 26 15.4481 26 14.7981C26 14.1481 25.4682 13.6163 24.8182 13.6163H22.4545C21.8045 13.6163 21.2727 14.1481 21.2727 14.7981C21.2727 15.4481 21.8045 15.9799 22.4545 15.9799ZM11.8182 2.97991V5.34355C11.8182 5.99355 12.35 6.52537 13 6.52537C13.65 6.52537 14.1818 5.99355 14.1818 5.34355V2.97991C14.1818 2.32991 13.65 1.7981 13 1.7981C12.35 1.7981 11.8182 2.32991 11.8182 2.97991ZM11.8182 24.2526V26.6163C11.8182 27.2663 12.35 27.7981 13 27.7981C13.65 27.7981 14.1818 27.2663 14.1818 26.6163V24.2526C14.1818 23.6026 13.65 23.0708 13 23.0708C12.35 23.0708 11.8182 23.6026 11.8182 24.2526ZM5.89727 6.029C5.78794 5.91945 5.65807 5.83253 5.5151 5.77322C5.37213 5.71392 5.21887 5.68339 5.06409 5.68339C4.90931 5.68339 4.75605 5.71392 4.61308 5.77322C4.47011 5.83253 4.34024 5.91945 4.23091 6.029C4.12135 6.13834 4.03443 6.26821 3.97512 6.41118C3.91582 6.55414 3.88529 6.70741 3.88529 6.86219C3.88529 7.01697 3.91582 7.17023 3.97512 7.3132C4.03443 7.45617 4.12135 7.58603 4.23091 7.69537L5.48364 8.9481C5.94454 9.409 6.70091 9.409 7.15 8.9481C7.59909 8.48719 7.61091 7.73082 7.15 7.28173L5.89727 6.029ZM20.5164 20.6481C20.407 20.5385 20.2772 20.4516 20.1342 20.3923C19.9912 20.333 19.838 20.3025 19.6832 20.3025C19.5284 20.3025 19.3751 20.333 19.2322 20.3923C19.0892 20.4516 18.9593 20.5385 18.85 20.6481C18.7404 20.7574 18.6535 20.8873 18.5942 21.0303C18.5349 21.1732 18.5044 21.3265 18.5044 21.4813C18.5044 21.6361 18.5349 21.7893 18.5942 21.9323C18.6535 22.0753 18.7404 22.2051 18.85 22.3145L20.1027 23.5672C20.5636 24.0281 21.32 24.0281 21.7691 23.5672C21.8786 23.4579 21.9656 23.328 22.0249 23.185C22.0842 23.042 22.1147 22.8888 22.1147 22.734C22.1147 22.5792 22.0842 22.426 22.0249 22.283C21.9656 22.14 21.8786 22.0102 21.7691 21.9008L20.5164 20.6481ZM21.7691 7.69537C21.8786 7.58603 21.9656 7.45617 22.0249 7.3132C22.0842 7.17023 22.1147 7.01697 22.1147 6.86219C22.1147 6.70741 22.0842 6.55414 22.0249 6.41118C21.9656 6.26821 21.8786 6.13834 21.7691 6.029C21.6598 5.91945 21.5299 5.83253 21.3869 5.77322C21.2439 5.71392 21.0907 5.68339 20.9359 5.68339C20.7811 5.68339 20.6279 5.71392 20.4849 5.77322C20.3419 5.83253 20.2121 5.91945 20.1027 6.029L18.85 7.28173C18.3891 7.74264 18.3891 8.499 18.85 8.9481C19.3109 9.39719 20.0673 9.409 20.5164 8.9481L21.7691 7.69537ZM7.15 22.3145C7.25956 22.2051 7.34648 22.0753 7.40578 21.9323C7.46509 21.7893 7.49562 21.6361 7.49562 21.4813C7.49562 21.3265 7.46509 21.1732 7.40578 21.0303C7.34648 20.8873 7.25956 20.7574 7.15 20.6481C7.04067 20.5385 6.9108 20.4516 6.76783 20.3923C6.62486 20.333 6.4716 20.3025 6.31682 20.3025C6.16204 20.3025 6.00878 20.333 5.86581 20.3923C5.72284 20.4516 5.59297 20.5385 5.48364 20.6481L4.23091 21.9008C3.77 22.3617 3.77 23.1181 4.23091 23.5672C4.69182 24.0163 5.44818 24.0281 5.89727 23.5672L7.15 22.3145Z" fill="#0077FF"/>
<path d="M117 4.7981C115.022 4.7981 113.089 5.38459 111.444 6.4834C109.8 7.58221 108.518 9.144 107.761 10.9713C107.004 12.7985 106.806 14.8092 107.192 16.749C107.578 18.6888 108.53 20.4706 109.929 21.8692C111.327 23.2677 113.109 24.2201 115.049 24.6059C116.989 24.9918 119 24.7938 120.827 24.0369C122.654 23.28 124.216 21.9983 125.315 20.3538C126.414 18.7093 127 16.7759 127 14.7981C127 14.287 126.956 13.7759 126.889 13.287C126.334 14.0655 125.6 14.6997 124.75 15.1366C123.899 15.5735 122.956 15.8003 122 15.7981C120.728 15.7981 119.489 15.3941 118.461 14.6444C117.434 13.8946 116.671 12.8379 116.283 11.6265C115.895 10.4152 115.901 9.1119 116.302 7.9046C116.702 6.6973 117.476 5.64841 118.511 4.90921C118.022 4.84254 117.511 4.7981 117 4.7981Z" fill="#333333"/>
</svg>
