<svg width="35" height="34" viewBox="0 0 35 34" fill="none" xmlns="http://www.w3.org/2000/svg">
<path opacity="0.3" d="M17.5 5.66669C11.0688 5.66669 5.83337 10.7525 5.83337 17C5.83337 23.2475 11.0688 28.3334 17.5 28.3334C23.9313 28.3334 29.1667 23.2475 29.1667 17C29.1667 10.7525 23.9313 5.66669 17.5 5.66669ZM16.0417 22.6667H13.125V11.3334H16.0417V22.6667ZM17.5 22.6667V11.3334L24.7917 17L17.5 22.6667Z" fill="black"/>
<path d="M17.5 5.66665C23.9312 5.66665 29.1666 10.7525 29.1666 17C29.1666 23.2475 23.9312 28.3333 17.5 28.3333C11.0687 28.3333 5.83329 23.2475 5.83329 17C5.83329 10.7525 11.0687 5.66665 17.5 5.66665ZM17.5 2.83331C9.44996 2.83331 2.91663 9.17998 2.91663 17C2.91663 24.82 9.44996 31.1666 17.5 31.1666C25.55 31.1666 32.0833 24.82 32.0833 17C32.0833 9.17998 25.55 2.83331 17.5 2.83331ZM16.0416 11.3333H13.125V22.6666H16.0416V11.3333ZM24.7916 17L17.5 11.3333V22.6666L24.7916 17Z" fill="black"/>
</svg>
