<svg width="48" height="49" viewBox="0 0 48 49" fill="none" xmlns="http://www.w3.org/2000/svg">
<path fill-rule="evenodd" clip-rule="evenodd" d="M16.7196 6.61102C20.1927 5.79633 23.8073 5.79633 27.2805 6.61102C32.2962 7.78754 36.2125 11.7038 37.389 16.7196C38.2037 20.1927 38.2037 23.8073 37.389 27.2804C36.2125 32.2962 32.2962 36.2125 27.2804 37.389C23.8073 38.2037 20.1927 38.2037 16.7196 37.389C11.7039 36.2125 7.78755 32.2962 6.61102 27.2805C5.79633 23.8073 5.79633 20.1927 6.61102 16.7195C7.78755 11.7038 11.7038 7.78754 16.7196 6.61102ZM23.0666 17.7453C23.0666 17.1562 22.5891 16.6787 22 16.6787C21.4109 16.6787 20.9333 17.1562 20.9333 17.7453V20.9333H17.7453C17.1562 20.9333 16.6787 21.4109 16.6787 22C16.6787 22.5891 17.1562 23.0666 17.7453 23.0666H20.9333V26.2546C20.9333 26.8437 21.4109 27.3212 22 27.3212C22.5891 27.3212 23.0666 26.8437 23.0666 26.2546V23.0666H26.2546C26.8437 23.0666 27.3212 22.5891 27.3212 22C27.3212 21.4109 26.8437 20.9333 26.2546 20.9333H23.0666V17.7453Z" fill="#2264E5" fill-opacity="0.63"/>
</svg>
