<svg width="146" height="146" viewBox="0 0 146 146" fill="none" xmlns="http://www.w3.org/2000/svg">
<path d="M130.472 73.0235C130.472 104.672 104.815 130.329 73.1663 130.329C41.5175 130.329 15.8611 104.672 15.8611 73.0235C15.8611 41.3747 41.5175 15.7183 73.1663 15.7183C104.815 15.7183 130.472 41.3747 130.472 73.0235ZM26.5318 73.0235C26.5318 98.779 47.4108 119.658 73.1663 119.658C98.9218 119.658 119.801 98.779 119.801 73.0235C119.801 47.268 98.9218 26.389 73.1663 26.389C47.4108 26.389 26.5318 47.268 26.5318 73.0235Z" fill="#EEEEEE"/>
<path d="M68.8459 20.3559C68.6444 17.9005 70.4733 15.7285 72.9368 15.7186C84.1004 15.6738 95.0706 18.8924 104.475 25.027C115.129 31.9764 123.167 42.2729 127.325 54.2941C131.482 66.3154 131.521 79.3782 127.437 91.4244C123.353 103.471 115.376 113.816 104.765 120.829C94.1538 127.843 81.5105 131.127 68.8272 130.164C56.1439 129.201 44.1415 124.045 34.711 115.51C25.2805 106.974 18.958 95.543 16.7395 83.0181C14.7812 71.9618 16.1191 60.6078 20.5354 50.3548C21.5099 48.0922 24.2249 47.2608 26.4049 48.4084L27.9529 49.2232C30.1329 50.3708 30.9481 53.0621 30.0139 55.3417C26.6779 63.483 25.7016 72.4339 27.2467 81.157C29.0521 91.3496 34.1973 100.652 41.8717 107.598C49.5462 114.545 59.3136 118.74 69.6352 119.524C79.9567 120.308 90.2457 117.635 98.8811 111.928C107.517 106.22 114.007 97.8011 117.331 87.998C120.655 78.1949 120.623 67.5645 117.24 57.7817C113.857 47.9989 107.315 39.6197 98.645 33.9643C91.2252 29.1243 82.6077 26.5147 73.8102 26.3934C71.3469 26.3594 69.1903 24.5547 68.9889 22.0993L68.8459 20.3559Z" fill="#0077FF"/>
</svg>
