<svg width="26" height="24" viewBox="0 0 26 24" fill="none" xmlns="http://www.w3.org/2000/svg">
<path d="M13.05 0.666626C9.62835 0.704029 6.35853 1.9452 3.93888 4.12507C1.51922 6.30494 0.141523 9.25072 0.100006 12.3333C0.141523 15.4159 1.51922 18.3616 3.93888 20.5415C6.35853 22.7214 9.62835 23.9626 13.05 24C16.4717 23.9626 19.7415 22.7214 22.1611 20.5415C24.5808 18.3616 25.9585 15.4159 26 12.3333C25.9585 9.25072 24.5808 6.30494 22.1611 4.12507C19.7415 1.9452 16.4717 0.704029 13.05 0.666626ZM20.45 13.1666H13.975V19H12.125V13.1666H5.65001V11.5H12.125V5.66663H13.975V11.5H20.45V13.1666Z" fill="#0077FF"/>
</svg>
