<svg width="41" height="35" viewBox="0 0 41 35" fill="none" xmlns="http://www.w3.org/2000/svg">
<path d="M38.7917 21C38.2502 21 37.7309 21.1844 37.348 21.5126C36.9651 21.8408 36.75 22.2859 36.75 22.75V29.75C36.75 30.2141 36.5349 30.6593 36.152 30.9874C35.7691 31.3156 35.2498 31.5 34.7083 31.5H6.125C5.58352 31.5 5.06421 31.3156 4.68132 30.9874C4.29844 30.6593 4.08333 30.2141 4.08333 29.75V22.75C4.08333 22.2859 3.86823 21.8408 3.48534 21.5126C3.10246 21.1844 2.58315 21 2.04167 21C1.50018 21 0.980877 21.1844 0.59799 21.5126C0.215103 21.8408 0 22.2859 0 22.75V29.75C0 31.1424 0.645311 32.4777 1.79397 33.4623C2.94263 34.4469 4.50055 35 6.125 35H34.7083C36.3328 35 37.8907 34.4469 39.0394 33.4623C40.188 32.4777 40.8333 31.1424 40.8333 29.75V22.75C40.8333 22.2859 40.6182 21.8408 40.2353 21.5126C39.8525 21.1844 39.3331 21 38.7917 21ZM18.9671 23.9925C19.1613 24.1518 19.3902 24.2767 19.6408 24.36C19.8852 24.4526 20.1495 24.5004 20.4167 24.5004C20.6839 24.5004 20.9481 24.4526 21.1925 24.36C21.4431 24.2767 21.6721 24.1518 21.8662 23.9925L30.0329 16.9925C30.4174 16.663 30.6334 16.216 30.6334 15.75C30.6334 15.284 30.4174 14.837 30.0329 14.5075C29.6485 14.178 29.127 13.9928 28.5833 13.9928C28.0396 13.9928 27.5182 14.178 27.1337 14.5075L22.4583 18.5325V1.75C22.4583 1.28587 22.2432 0.840752 21.8603 0.512563C21.4775 0.184374 20.9581 0 20.4167 0C19.8752 0 19.3559 0.184374 18.973 0.512563C18.5901 0.840752 18.375 1.28587 18.375 1.75V18.5325L13.6996 14.5075C13.5092 14.3443 13.2832 14.2149 13.0345 14.1266C12.7858 14.0383 12.5192 13.9928 12.25 13.9928C11.9808 13.9928 11.7142 14.0383 11.4655 14.1266C11.2168 14.2149 10.9908 14.3443 10.8004 14.5075C10.6101 14.6707 10.4591 14.8644 10.356 15.0776C10.253 15.2908 10.2 15.5192 10.2 15.75C10.2 15.9808 10.253 16.2092 10.356 16.4224C10.4591 16.6356 10.6101 16.8293 10.8004 16.9925L18.9671 23.9925Z" fill="#699BF7"/>
</svg>
