<svg width="146" height="146" viewBox="0 0 146 146" fill="none" xmlns="http://www.w3.org/2000/svg">
<path d="M130.472 72.6608C130.472 104.31 104.815 129.966 73.1663 129.966C41.5175 129.966 15.8611 104.31 15.8611 72.6608C15.8611 41.012 41.5175 15.3556 73.1663 15.3556C104.815 15.3556 130.472 41.012 130.472 72.6608ZM26.5318 72.6608C26.5318 98.4163 47.4108 119.295 73.1663 119.295C98.9218 119.295 119.801 98.4163 119.801 72.6608C119.801 46.9053 98.9218 26.0263 73.1663 26.0263C47.4108 26.0263 26.5318 46.9053 26.5318 72.6608Z" fill="#EEEEEE"/>
<path d="M68.8459 19.9932C68.6444 17.5379 70.4733 15.3659 72.9369 15.3559C86.5456 15.3009 99.7873 20.0959 110.239 28.9626C121.828 38.7947 129.037 52.8281 130.28 67.9755C131.522 83.1229 126.697 98.1436 116.865 109.733C107.998 120.184 95.7148 127.073 82.2791 129.237C79.8468 129.629 77.6884 127.784 77.487 125.328L77.344 123.585C77.1425 121.13 78.9762 118.998 81.4011 118.563C92.0145 116.659 101.693 111.122 108.728 102.83C116.729 93.3985 120.656 81.1748 119.645 68.848C118.634 56.5211 112.767 45.1009 103.336 37.0996C95.0431 30.0645 84.592 26.1791 73.8102 26.0306C71.3469 25.9967 69.1903 24.192 68.9889 21.7367L68.8459 19.9932Z" fill="#0077FF"/>
</svg>
