<svg width="34" height="34" viewBox="0 0 34 34" fill="none" xmlns="http://www.w3.org/2000/svg">
<path d="M16.9293 25.5C17.4252 25.5 17.8445 25.3286 18.1873 24.9858C18.5302 24.643 18.7011 24.2241 18.7002 23.7292C18.6992 23.2343 18.5283 22.815 18.1873 22.4712C17.8464 22.1274 17.4271 21.9565 16.9293 21.9584C16.4316 21.9603 16.0127 22.1317 15.6727 22.4726C15.3327 22.8136 15.1613 23.2324 15.1585 23.7292C15.1557 24.226 15.3271 24.6453 15.6727 24.9872C16.0184 25.3291 16.4373 25.5 16.9293 25.5ZM15.6543 20.0459H18.2752C18.2752 19.2667 18.3639 18.6528 18.5415 18.2042C18.7191 17.7556 19.2206 17.1417 20.046 16.3625C20.6599 15.7487 21.1439 15.164 21.4981 14.6087C21.8522 14.0534 22.0293 13.3866 22.0293 12.6084C22.0293 11.2862 21.5453 10.2709 20.5772 9.56255C19.6092 8.85421 18.4641 8.50005 17.1418 8.50005C15.796 8.50005 14.7042 8.85421 13.8665 9.56255C13.0288 10.2709 12.4442 11.1209 12.1127 12.1125L14.4502 13.0334C14.5682 12.6084 14.8341 12.148 15.2477 11.6521C15.6614 11.1563 16.2928 10.9084 17.1418 10.9084C17.8974 10.9084 18.4641 11.1152 18.8418 11.5289C19.2196 11.9425 19.4085 12.3968 19.4085 12.8917C19.4085 13.3639 19.2668 13.8069 18.9835 14.2205C18.7002 14.6342 18.346 15.0177 17.921 15.3709C16.8821 16.2917 16.2446 16.9882 16.0085 17.4605C15.7724 17.9327 15.6543 18.7945 15.6543 20.0459ZM17.0002 31.1667C15.0404 31.1667 13.1988 30.7951 11.4752 30.0518C9.75155 29.3085 8.25225 28.2989 6.97725 27.023C5.70225 25.747 4.69311 24.2477 3.94983 22.525C3.20655 20.8024 2.83444 18.9607 2.8335 17C2.83255 15.0394 3.20466 13.1977 3.94983 11.475C4.695 9.75238 5.70414 8.25308 6.97725 6.97713C8.25036 5.70119 9.74967 4.69205 11.4752 3.94971C13.2007 3.20738 15.0423 2.83527 17.0002 2.83338C18.958 2.83149 20.7997 3.2036 22.5252 3.94971C24.2507 4.69583 25.75 5.70496 27.0231 6.97713C28.2962 8.2493 29.3058 9.7486 30.0519 11.475C30.798 13.2015 31.1697 15.0432 31.1668 17C31.164 18.9569 30.7919 20.7986 30.0505 22.525C29.3091 24.2515 28.3 25.7508 27.0231 27.023C25.7462 28.2951 24.2469 29.3047 22.5252 30.0518C20.8034 30.7989 18.9618 31.1705 17.0002 31.1667ZM17.0002 28.3334C20.1641 28.3334 22.8439 27.2355 25.0397 25.0396C27.2356 22.8438 28.3335 20.1639 28.3335 17C28.3335 13.8362 27.2356 11.1563 25.0397 8.96046C22.8439 6.76463 20.1641 5.66671 17.0002 5.66671C13.8363 5.66671 11.1564 6.76463 8.96058 8.96046C6.76475 11.1563 5.66683 13.8362 5.66683 17C5.66683 20.1639 6.76475 22.8438 8.96058 25.0396C11.1564 27.2355 13.8363 28.3334 17.0002 28.3334Z" fill="#699BF7"/>
</svg>
