<svg width="9" height="8" viewBox="0 0 9 8" fill="none" xmlns="http://www.w3.org/2000/svg">
<g clip-path="url(#clip0_995_1408)">
<path d="M0.911621 2.39998C0.911621 2.1878 0.995907 1.98432 1.14594 1.83429C1.29596 1.68426 1.49945 1.59998 1.71162 1.59998H4.11162C4.32379 1.59998 4.52728 1.68426 4.67731 1.83429C4.82734 1.98432 4.91162 2.1878 4.91162 2.39998V5.59998C4.91162 5.81215 4.82734 6.01563 4.67731 6.16566C4.52728 6.31569 4.32379 6.39998 4.11162 6.39998H1.71162C1.49945 6.39998 1.29596 6.31569 1.14594 6.16566C0.995907 6.01563 0.911621 5.81215 0.911621 5.59998V2.39998ZM5.93282 2.84238C5.86639 2.87557 5.81051 2.92661 5.77144 2.98977C5.73237 3.05292 5.71166 3.12571 5.71162 3.19998V4.79998C5.71166 4.87424 5.73237 4.94703 5.77144 5.01019C5.81051 5.07334 5.86639 5.12438 5.93282 5.15758L6.73282 5.55758C6.79379 5.58804 6.86153 5.60242 6.92962 5.59936C6.99771 5.59629 7.06388 5.57588 7.12186 5.54005C7.17985 5.50423 7.22771 5.45419 7.26092 5.39467C7.29413 5.33515 7.31158 5.26813 7.31162 5.19998V2.79998C7.31158 2.73182 7.29413 2.6648 7.26092 2.60528C7.22771 2.54577 7.17985 2.49572 7.12186 2.4599C7.06388 2.42407 6.99771 2.40366 6.92962 2.40059C6.86153 2.39753 6.79379 2.41191 6.73282 2.44238L5.93282 2.84238Z" fill="#E0F2FE"/>
</g>
<defs>
<clipPath id="clip0_995_1408">
<rect width="8" height="8" fill="white" transform="translate(0.111572)"/>
</clipPath>
</defs>
</svg>
