<svg width="9" height="9" viewBox="0 0 9 9" fill="none" xmlns="http://www.w3.org/2000/svg">
<g clip-path="url(#clip0_995_2481)">
<path d="M1.75854 3.16987C1.75854 2.9577 1.84283 2.75422 1.99286 2.60419C2.14289 2.45416 2.34637 2.36987 2.55854 2.36987H4.95854C5.17072 2.36987 5.3742 2.45416 5.52423 2.60419C5.67426 2.75422 5.75854 2.9577 5.75854 3.16987V6.36987C5.75854 6.58205 5.67426 6.78553 5.52423 6.93556C5.3742 7.08559 5.17072 7.16987 4.95854 7.16987H2.55854C2.34637 7.16987 2.14289 7.08559 1.99286 6.93556C1.84283 6.78553 1.75854 6.58205 1.75854 6.36987V3.16987ZM6.77974 3.61227C6.71331 3.64547 6.65743 3.6965 6.61837 3.75966C6.5793 3.82282 6.55858 3.89561 6.55854 3.96987V5.56987C6.55858 5.64414 6.5793 5.71693 6.61837 5.78008C6.65743 5.84324 6.71331 5.89428 6.77974 5.92747L7.57974 6.32747C7.64071 6.35794 7.70846 6.37232 7.77654 6.36925C7.84463 6.36619 7.9108 6.34577 7.96879 6.30995C8.02677 6.27413 8.07464 6.22408 8.10785 6.16456C8.14106 6.10505 8.15851 6.03803 8.15854 5.96987V3.56987C8.15851 3.50172 8.14106 3.4347 8.10785 3.37518C8.07464 3.31566 8.02677 3.26562 7.96879 3.2298C7.9108 3.19397 7.84463 3.17356 7.77654 3.17049C7.70846 3.16742 7.64071 3.18181 7.57974 3.21227L6.77974 3.61227Z" fill="white"/>
</g>
<defs>
<clipPath id="clip0_995_2481">
<rect width="8" height="8" fill="white" transform="translate(0.958496 0.769897)"/>
</clipPath>
</defs>
</svg>
