<svg width="9" height="9" viewBox="0 0 9 9" fill="none" xmlns="http://www.w3.org/2000/svg">
<g clip-path="url(#clip0_995_2000)">
<path d="M1.69702 2.85127C1.69702 2.6391 1.78131 2.43561 1.93134 2.28558C2.08137 2.13555 2.28485 2.05127 2.49702 2.05127H4.89702C5.10919 2.05127 5.31268 2.13555 5.46271 2.28558C5.61274 2.43561 5.69702 2.6391 5.69702 2.85127V6.05127C5.69702 6.26344 5.61274 6.46693 5.46271 6.61695C5.31268 6.76698 5.10919 6.85127 4.89702 6.85127H2.49702C2.28485 6.85127 2.08137 6.76698 1.93134 6.61695C1.78131 6.46693 1.69702 6.26344 1.69702 6.05127V2.85127ZM6.71822 3.29367C6.65179 3.32687 6.59591 3.3779 6.55684 3.44106C6.51777 3.50422 6.49706 3.577 6.49702 3.65127V5.25127C6.49706 5.32553 6.51777 5.39832 6.55684 5.46148C6.59591 5.52464 6.65179 5.57567 6.71822 5.60887L7.51822 6.00887C7.57919 6.03934 7.64693 6.05372 7.71502 6.05065C7.78311 6.04758 7.84928 6.02717 7.90726 5.99135C7.96525 5.95552 8.01311 5.90548 8.04632 5.84596C8.07953 5.78644 8.09698 5.71943 8.09702 5.65127V3.25127C8.09698 3.18311 8.07953 3.1161 8.04632 3.05658C8.01311 2.99706 7.96525 2.94702 7.90726 2.91119C7.84928 2.87537 7.78311 2.85495 7.71502 2.85189C7.64693 2.84882 7.57919 2.8632 7.51822 2.89367L6.71822 3.29367Z" fill="#EDE9FE"/>
</g>
<defs>
<clipPath id="clip0_995_2000">
<rect width="8" height="8" fill="white" transform="translate(0.896973 0.451294)"/>
</clipPath>
</defs>
</svg>
