<svg width="9" height="8" viewBox="0 0 9 8" fill="none" xmlns="http://www.w3.org/2000/svg">
<g clip-path="url(#clip0_995_2403)">
<path d="M0.855835 2.39998C0.855835 2.1878 0.94012 1.98432 1.09015 1.83429C1.24018 1.68426 1.44366 1.59998 1.65583 1.59998H4.05583C4.26801 1.59998 4.47149 1.68426 4.62152 1.83429C4.77155 1.98432 4.85583 2.1878 4.85583 2.39998V5.59998C4.85583 5.81215 4.77155 6.01563 4.62152 6.16566C4.47149 6.31569 4.26801 6.39998 4.05583 6.39998H1.65583C1.44366 6.39998 1.24018 6.31569 1.09015 6.16566C0.94012 6.01563 0.855835 5.81215 0.855835 5.59998V2.39998ZM5.87703 2.84238C5.8106 2.87557 5.75472 2.92661 5.71566 2.98977C5.67659 3.05292 5.65587 3.12571 5.65583 3.19998V4.79998C5.65587 4.87424 5.67659 4.94703 5.71566 5.01019C5.75472 5.07334 5.8106 5.12438 5.87703 5.15758L6.67703 5.55758C6.738 5.58804 6.80575 5.60242 6.87383 5.59936C6.94192 5.59629 7.00809 5.57588 7.06608 5.54005C7.12406 5.50423 7.17193 5.45419 7.20514 5.39467C7.23835 5.33515 7.2558 5.26813 7.25583 5.19998V2.79998C7.2558 2.73182 7.23835 2.6648 7.20514 2.60528C7.17193 2.54577 7.12406 2.49572 7.06608 2.4599C7.00809 2.42407 6.94192 2.40366 6.87383 2.40059C6.80575 2.39753 6.738 2.41191 6.67703 2.44238L5.87703 2.84238Z" fill="#E0F2FE"/>
</g>
<defs>
<clipPath id="clip0_995_2403">
<rect width="8" height="8" fill="white" transform="translate(0.0557861)"/>
</clipPath>
</defs>
</svg>
