<svg width="9" height="9" viewBox="0 0 9 9" fill="none" xmlns="http://www.w3.org/2000/svg">
<g clip-path="url(#clip0_995_1044)">
<path d="M0.855835 3.30256C0.855835 3.09039 0.94012 2.88691 1.09015 2.73688C1.24018 2.58685 1.44366 2.50256 1.65583 2.50256H4.05583C4.26801 2.50256 4.47149 2.58685 4.62152 2.73688C4.77155 2.88691 4.85583 3.09039 4.85583 3.30256V6.50256C4.85583 6.71474 4.77155 6.91822 4.62152 7.06825C4.47149 7.21828 4.26801 7.30256 4.05583 7.30256H1.65583C1.44366 7.30256 1.24018 7.21828 1.09015 7.06825C0.94012 6.91822 0.855835 6.71474 0.855835 6.50256V3.30256ZM5.87703 3.74496C5.8106 3.77816 5.75472 3.82919 5.71566 3.89235C5.67659 3.95551 5.65587 4.0283 5.65583 4.10256V5.70256C5.65587 5.77683 5.67659 5.84962 5.71566 5.91277C5.75472 5.97593 5.8106 6.02697 5.87703 6.06016L6.67703 6.46016C6.738 6.49063 6.80575 6.50501 6.87383 6.50194C6.94192 6.49888 7.00809 6.47846 7.06608 6.44264C7.12406 6.40682 7.17193 6.35677 7.20514 6.29726C7.23835 6.23774 7.2558 6.17072 7.25583 6.10256V3.70256C7.2558 3.63441 7.23835 3.56739 7.20514 3.50787C7.17193 3.44835 7.12406 3.39831 7.06608 3.36249C7.00809 3.32666 6.94192 3.30625 6.87383 3.30318C6.80575 3.30012 6.738 3.3145 6.67703 3.34496L5.87703 3.74496Z" fill="#EDE9FE"/>
</g>
<defs>
<clipPath id="clip0_995_1044">
<rect width="8" height="8" fill="white" transform="translate(0.0557861 0.902588)"/>
</clipPath>
</defs>
</svg>
