<svg width="8" height="9" viewBox="0 0 8 9" fill="none" xmlns="http://www.w3.org/2000/svg">
<path d="M0.800049 3.20527C0.800049 2.9931 0.884334 2.78962 1.03436 2.63959C1.18439 2.48956 1.38788 2.40527 1.60005 2.40527H4.00005C4.21222 2.40527 4.4157 2.48956 4.56573 2.63959C4.71576 2.78962 4.80005 2.9931 4.80005 3.20527V6.40527C4.80005 6.61745 4.71576 6.82093 4.56573 6.97096C4.4157 7.12099 4.21222 7.20527 4.00005 7.20527H1.60005C1.38788 7.20527 1.18439 7.12099 1.03436 6.97096C0.884334 6.82093 0.800049 6.61745 0.800049 6.40527V3.20527ZM5.82125 3.64767C5.75482 3.68087 5.69894 3.7319 5.65987 3.79506C5.6208 3.85822 5.60009 3.93101 5.60005 4.00527V5.60527C5.60009 5.67954 5.6208 5.75233 5.65987 5.81548C5.69894 5.87864 5.75482 5.92968 5.82125 5.96287L6.62125 6.36287C6.68222 6.39334 6.74996 6.40772 6.81805 6.40465C6.88613 6.40159 6.95231 6.38117 7.01029 6.34535C7.06827 6.30953 7.11614 6.25948 7.14935 6.19997C7.18256 6.14045 7.20001 6.07343 7.20005 6.00527V3.60527C7.20001 3.53712 7.18256 3.4701 7.14935 3.41058C7.11614 3.35106 7.06827 3.30102 7.01029 3.2652C6.95231 3.22937 6.88613 3.20896 6.81805 3.20589C6.74996 3.20283 6.68222 3.21721 6.62125 3.24767L5.82125 3.64767Z" fill="#E0F2FE"/>
</svg>
