<svg width="8" height="9" viewBox="0 0 8 9" fill="none" xmlns="http://www.w3.org/2000/svg">
<path d="M0.800049 2.85127C0.800049 2.6391 0.884334 2.43561 1.03436 2.28558C1.18439 2.13555 1.38788 2.05127 1.60005 2.05127H4.00005C4.21222 2.05127 4.4157 2.13555 4.56573 2.28558C4.71576 2.43561 4.80005 2.6391 4.80005 2.85127V6.05127C4.80005 6.26344 4.71576 6.46693 4.56573 6.61695C4.4157 6.76698 4.21222 6.85127 4.00005 6.85127H1.60005C1.38788 6.85127 1.18439 6.76698 1.03436 6.61695C0.884334 6.46693 0.800049 6.26344 0.800049 6.05127V2.85127ZM5.82125 3.29367C5.75482 3.32687 5.69894 3.3779 5.65987 3.44106C5.6208 3.50422 5.60009 3.577 5.60005 3.65127V5.25127C5.60009 5.32553 5.6208 5.39832 5.65987 5.46148C5.69894 5.52464 5.75482 5.57567 5.82125 5.60887L6.62125 6.00887C6.68222 6.03934 6.74996 6.05372 6.81805 6.05065C6.88613 6.04758 6.95231 6.02717 7.01029 5.99135C7.06827 5.95552 7.11614 5.90548 7.14935 5.84596C7.18256 5.78644 7.20001 5.71943 7.20005 5.65127V3.25127C7.20001 3.18311 7.18256 3.1161 7.14935 3.05658C7.11614 2.99706 7.06827 2.94702 7.01029 2.91119C6.95231 2.87537 6.88613 2.85495 6.81805 2.85189C6.74996 2.84882 6.68222 2.8632 6.62125 2.89367L5.82125 3.29367Z" fill="#E0F2FE"/>
</svg>
