<svg width="9" height="9" viewBox="0 0 9 9" fill="none" xmlns="http://www.w3.org/2000/svg">
<g clip-path="url(#clip0_995_2324)">
<path d="M1.69702 3.20527C1.69702 2.9931 1.78131 2.78962 1.93134 2.63959C2.08137 2.48956 2.28485 2.40527 2.49702 2.40527H4.89702C5.10919 2.40527 5.31268 2.48956 5.46271 2.63959C5.61274 2.78962 5.69702 2.9931 5.69702 3.20527V6.40527C5.69702 6.61745 5.61274 6.82093 5.46271 6.97096C5.31268 7.12099 5.10919 7.20527 4.89702 7.20527H2.49702C2.28485 7.20527 2.08137 7.12099 1.93134 6.97096C1.78131 6.82093 1.69702 6.61745 1.69702 6.40527V3.20527ZM6.71822 3.64767C6.65179 3.68087 6.59591 3.7319 6.55684 3.79506C6.51777 3.85822 6.49706 3.93101 6.49702 4.00527V5.60527C6.49706 5.67954 6.51777 5.75233 6.55684 5.81548C6.59591 5.87864 6.65179 5.92968 6.71822 5.96287L7.51822 6.36287C7.57919 6.39334 7.64693 6.40772 7.71502 6.40465C7.78311 6.40159 7.84928 6.38117 7.90726 6.34535C7.96525 6.30953 8.01311 6.25948 8.04632 6.19997C8.07953 6.14045 8.09698 6.07343 8.09702 6.00527V3.60527C8.09698 3.53712 8.07953 3.4701 8.04632 3.41058C8.01311 3.35106 7.96525 3.30102 7.90726 3.2652C7.84928 3.22937 7.78311 3.20896 7.71502 3.20589C7.64693 3.20283 7.57919 3.21721 7.51822 3.24767L6.71822 3.64767Z" fill="#E0F2FE"/>
</g>
<defs>
<clipPath id="clip0_995_2324">
<rect width="8" height="8" fill="white" transform="translate(0.896973 0.805298)"/>
</clipPath>
</defs>
</svg>
