<svg width="8" height="8" viewBox="0 0 8 8" fill="none" xmlns="http://www.w3.org/2000/svg">
<path d="M0.800049 2.39998C0.800049 2.1878 0.884334 1.98432 1.03436 1.83429C1.18439 1.68426 1.38788 1.59998 1.60005 1.59998H4.00005C4.21222 1.59998 4.4157 1.68426 4.56573 1.83429C4.71576 1.98432 4.80005 2.1878 4.80005 2.39998V5.59998C4.80005 5.81215 4.71576 6.01563 4.56573 6.16566C4.4157 6.31569 4.21222 6.39998 4.00005 6.39998H1.60005C1.38788 6.39998 1.18439 6.31569 1.03436 6.16566C0.884334 6.01563 0.800049 5.81215 0.800049 5.59998V2.39998ZM5.82125 2.84238C5.75482 2.87557 5.69894 2.92661 5.65987 2.98977C5.6208 3.05292 5.60009 3.12571 5.60005 3.19998V4.79998C5.60009 4.87424 5.6208 4.94703 5.65987 5.01019C5.69894 5.07334 5.75482 5.12438 5.82125 5.15758L6.62125 5.55758C6.68222 5.58804 6.74996 5.60242 6.81805 5.59936C6.88613 5.59629 6.95231 5.57588 7.01029 5.54005C7.06827 5.50423 7.11614 5.45419 7.14935 5.39467C7.18256 5.33515 7.20001 5.26813 7.20005 5.19998V2.79998C7.20001 2.73182 7.18256 2.6648 7.14935 2.60528C7.11614 2.54577 7.06827 2.49572 7.01029 2.4599C6.95231 2.42407 6.88613 2.40366 6.81805 2.40059C6.74996 2.39753 6.68222 2.41191 6.62125 2.44238L5.82125 2.84238Z" fill="#E0F2FE"/>
</svg>
