<svg width="49" height="42" viewBox="0 0 49 42" fill="none" xmlns="http://www.w3.org/2000/svg">
<path d="M42.875 24.5C42.3335 24.5 41.8142 24.6844 41.4313 25.0126C41.0484 25.3408 40.8333 25.7859 40.8333 26.25V33.25C40.8333 33.7141 40.6182 34.1593 40.2354 34.4874C39.8525 34.8156 39.3332 35 38.7917 35H10.2083C9.66686 35 9.14755 34.8156 8.76467 34.4874C8.38178 34.1593 8.16668 33.7141 8.16668 33.25V26.25C8.16668 25.7859 7.95157 25.3408 7.56869 25.0126C7.1858 24.6844 6.66649 24.5 6.12501 24.5C5.58353 24.5 5.06422 24.6844 4.68133 25.0126C4.29845 25.3408 4.08334 25.7859 4.08334 26.25V33.25C4.08334 34.6424 4.72865 35.9777 5.87731 36.9623C7.02597 37.9469 8.58389 38.5 10.2083 38.5H38.7917C40.4161 38.5 41.974 37.9469 43.1227 36.9623C44.2714 35.9777 44.9167 34.6424 44.9167 33.25V26.25C44.9167 25.7859 44.7016 25.3408 44.3187 25.0126C43.9358 24.6844 43.4165 24.5 42.875 24.5ZM23.0504 27.4925C23.2446 27.6518 23.4736 27.7767 23.7242 27.86C23.9686 27.9526 24.2328 28.0004 24.5 28.0004C24.7672 28.0004 25.0315 27.9526 25.2758 27.86C25.5265 27.7767 25.7554 27.6518 25.9496 27.4925L34.1163 20.4925C34.5007 20.163 34.7167 19.716 34.7167 19.25C34.7167 18.784 34.5007 18.337 34.1163 18.0075C33.7318 17.678 33.2104 17.4928 32.6667 17.4928C32.123 17.4928 31.6015 17.678 31.2171 18.0075L26.5417 22.0325V5.25C26.5417 4.78587 26.3266 4.34075 25.9437 4.01256C25.5608 3.68437 25.0415 3.5 24.5 3.5C23.9585 3.5 23.4392 3.68437 23.0563 4.01256C22.6734 4.34075 22.4583 4.78587 22.4583 5.25V22.0325L17.7829 18.0075C17.5926 17.8443 17.3666 17.7149 17.1179 17.6266C16.8691 17.5383 16.6026 17.4928 16.3333 17.4928C16.0641 17.4928 15.7976 17.5383 15.5488 17.6266C15.3001 17.7149 15.0741 17.8443 14.8838 18.0075C14.6934 18.1707 14.5424 18.3644 14.4394 18.5776C14.3363 18.7908 14.2833 19.0192 14.2833 19.25C14.2833 19.4808 14.3363 19.7092 14.4394 19.9224C14.5424 20.1356 14.6934 20.3293 14.8838 20.4925L23.0504 27.4925Z" fill="#699BF7"/>
</svg>
