<svg width="146" height="146" viewBox="0 0 146 146" fill="none" xmlns="http://www.w3.org/2000/svg">
<path d="M130.472 72.6608C130.472 104.31 104.815 129.966 73.1663 129.966C41.5175 129.966 15.8611 104.31 15.8611 72.6608C15.8611 41.012 41.5175 15.3556 73.1663 15.3556C104.815 15.3556 130.472 41.012 130.472 72.6608ZM26.5318 72.6608C26.5318 98.4163 47.4108 119.295 73.1663 119.295C98.9218 119.295 119.801 98.4163 119.801 72.6608C119.801 46.9053 98.9218 26.0263 73.1663 26.0263C47.4108 26.0263 26.5318 46.9053 26.5318 72.6608Z" fill="#EEEEEE"/>
<path d="M68.8459 19.9932C68.6444 17.5379 70.4731 15.3659 72.9367 15.356C78.9541 15.3319 84.9474 16.2557 90.6941 18.102C97.8589 20.4037 104.5 24.0942 110.239 28.9626C115.977 33.831 120.701 39.782 124.139 46.4759C126.897 51.8449 128.786 57.6075 129.743 63.5484C130.134 65.9806 128.289 68.1388 125.834 68.3403L124.091 68.4833C121.635 68.6847 119.503 66.8513 119.068 64.4264C118.253 59.8811 116.765 55.4739 114.648 51.3517C111.849 45.9043 108.005 41.0614 103.336 37.0996C98.6655 33.1377 93.261 30.1345 87.4303 28.2613C83.0182 26.8438 78.4274 26.0945 73.8101 26.0308C71.3467 25.9968 69.1903 24.192 68.9889 21.7367L68.8459 19.9932Z" fill="#0077FF"/>
</svg>
