<svg width="146" height="146" viewBox="0 0 146 146" fill="none" xmlns="http://www.w3.org/2000/svg">
<path d="M130.472 73.0235C130.472 104.672 104.815 130.329 73.1663 130.329C41.5175 130.329 15.8611 104.672 15.8611 73.0235C15.8611 41.3747 41.5175 15.7182 73.1663 15.7182C104.815 15.7182 130.472 41.3747 130.472 73.0235ZM26.5318 73.0235C26.5318 98.779 47.4108 119.658 73.1663 119.658C98.9218 119.658 119.801 98.779 119.801 73.0235C119.801 47.2679 98.9218 26.389 73.1663 26.389C47.4108 26.389 26.5318 47.2679 26.5318 73.0235Z" fill="#EEEEEE"/>
<path d="M68.8459 20.3558C68.6444 17.9005 70.4734 15.7285 72.937 15.7186C85.1729 15.6693 97.1485 19.5409 107.075 26.8274C118.205 34.9968 126.011 46.9095 129.058 60.375C132.106 73.8406 130.189 87.9536 123.661 100.119C117.133 112.284 106.433 121.684 93.528 126.589C80.6229 131.495 66.3805 131.576 53.4201 126.819C40.4596 122.062 29.6522 112.785 22.9854 100.696C16.3186 88.6061 14.2405 74.5159 17.1332 61.0164C19.7134 48.9757 26.0933 38.1268 35.2725 30.0357C37.1206 28.4067 39.9305 28.8153 41.4109 30.7845L42.4621 32.1827C43.9425 34.1519 43.5293 36.9334 41.7105 38.5951C34.5723 45.1168 29.6084 53.7262 27.5671 63.2522C25.213 74.238 26.9041 85.7044 32.3296 95.5429C37.755 105.381 46.5499 112.93 57.097 116.802C67.6441 120.673 79.2344 120.607 89.7365 116.615C100.239 112.623 108.946 104.973 114.259 95.0734C119.571 85.1735 121.131 73.6884 118.651 62.7303C116.171 51.7722 109.818 42.0777 100.761 35.4295C92.9075 29.6648 83.4782 26.5266 73.8102 26.3933C71.3469 26.3594 69.1903 24.5547 68.9889 22.0993L68.8459 20.3558Z" fill="#0077FF"/>
</svg>
