<svg width="230" height="220" viewBox="0 0 230 220" fill="none" xmlns="http://www.w3.org/2000/svg">
<path d="M204.898 109.964C204.898 157.862 162.277 196.69 109.703 196.69C57.1283 196.69 14.5082 157.862 14.5082 109.964C14.5082 62.0673 57.1283 23.239 109.703 23.239C162.277 23.239 204.898 62.0673 204.898 109.964ZM32.2343 109.964C32.2343 148.943 66.9181 180.541 109.703 180.541C152.488 180.541 187.171 148.943 187.171 109.964C187.171 70.9862 152.488 39.3881 109.703 39.3881C66.9181 39.3881 32.2343 70.9862 32.2343 109.964Z" fill="#EEEEEE"/>
<path d="M102.301 27.7588C102.088 25.3995 103.843 23.3749 106.28 23.295C129.948 22.5183 153.148 29.8119 171.287 43.8317C190.539 58.7117 202.515 79.9498 204.579 102.874C206.643 125.798 198.627 148.53 182.294 166.069C166.972 182.524 145.507 193.144 122.134 195.947C119.603 196.251 117.301 194.344 117.078 191.865L116.418 184.534C116.205 182.175 117.964 180.173 120.371 179.869C139.177 177.487 156.428 168.883 168.777 155.622C182.069 141.349 188.592 122.849 186.912 104.194C185.233 85.5388 175.487 68.2554 159.82 56.1462C145.346 44.96 126.915 39.0357 108.047 39.404C105.484 39.4541 103.184 37.5684 102.961 35.0902L102.301 27.7588Z" fill="#0077FF"/>
</svg>
