<svg width="24" height="28" viewBox="0 0 24 28" fill="none" xmlns="http://www.w3.org/2000/svg">
<path fill-rule="evenodd" clip-rule="evenodd" d="M9.50329 24.8874C10.1754 25.639 11.0382 26.0519 11.9335 26.0519H11.9348C12.834 26.0519 13.7007 25.639 14.3741 24.8861C14.7348 24.4862 15.3498 24.4536 15.7482 24.8144C16.1478 25.1752 16.1803 25.794 15.8208 26.1939C14.7725 27.3623 13.3932 28.0058 11.9348 28.0058H11.9322C10.4777 28.0045 9.10106 27.361 8.05657 26.1926C7.69716 25.7927 7.7296 25.1739 8.12923 24.8144C8.52886 24.4523 9.14388 24.4849 9.50329 24.8874ZM11.9981 0C17.7655 0 21.6399 4.50958 21.6399 8.72087C21.6399 10.8871 22.1887 11.8054 22.7713 12.7797C23.3474 13.7411 24.0001 14.8326 24.0001 16.8959C23.5472 22.1675 18.0653 22.5974 11.9981 22.5974C5.93099 22.5974 0.447735 22.1675 7.82094e-05 16.9793C-0.00379698 14.8326 0.648848 13.7411 1.22494 12.7797L1.42832 12.4361C1.92906 11.5721 2.35637 10.6322 2.35637 8.72087C2.35637 4.50958 6.23072 0 11.9981 0ZM11.9981 1.95389C7.46335 1.95389 4.30262 5.52039 4.30262 8.72087C4.30262 11.429 3.55396 12.6808 2.89224 13.7854C2.36156 14.6724 1.94246 15.3732 1.94246 16.8959C2.15915 19.3526 3.77454 20.6435 11.9981 20.6435C20.1763 20.6435 21.8423 19.2953 22.0577 16.8113C22.0538 15.3732 21.6347 14.6724 21.104 13.7854C20.4423 12.6808 19.6936 11.429 19.6936 8.72087C19.6936 5.52039 16.5329 1.95389 11.9981 1.95389Z" fill="#0077FF"/>
</svg>
