<svg width="25" height="25" viewBox="0 0 25 25" fill="none" xmlns="http://www.w3.org/2000/svg">
<path d="M20.0194 5.66747L19.2835 4.93153C19.0755 4.72354 18.6915 4.75554 18.4515 5.04349L15.8913 7.58746C14.7392 7.09151 13.4754 6.85151 12.1473 6.85151C8.19519 6.86745 4.77141 9.17142 3.12329 12.4836C3.02726 12.6916 3.02726 12.9475 3.12329 13.1235C3.89122 14.6916 5.04329 15.9876 6.4833 16.9635L4.3873 19.0915C4.1473 19.3315 4.11529 19.7155 4.27534 19.9235L5.01128 20.6594C5.21928 20.8674 5.60326 20.8354 5.84326 20.5475L19.8912 6.49958C20.1952 6.25972 20.2272 5.87575 20.0192 5.66774L20.0194 5.66747ZM12.9953 10.4994C12.7233 10.4353 12.4353 10.3554 12.1633 10.3554C10.8033 10.3554 9.71538 11.4434 9.71538 12.8033C9.71538 13.0753 9.7794 13.3633 9.85935 13.6353L8.78724 14.6913C8.46728 14.1314 8.2913 13.5073 8.2913 12.8033C8.2913 10.6754 10.0033 8.96335 12.1313 8.96335C12.8354 8.96335 13.4593 9.13933 14.0193 9.45929L12.9953 10.4994Z" fill="#666666" fill-opacity="0.8"/>
<path d="M21.1714 12.4836C20.6114 11.3635 19.8753 10.3556 18.9634 9.53955L15.9874 12.4836V12.8035C15.9874 14.9315 14.2754 16.6435 12.1474 16.6435H11.8274L9.93945 18.5315C10.6435 18.6755 11.3795 18.7715 12.0995 18.7715C16.0516 18.7715 19.4754 16.4675 21.1235 13.1394C21.2675 12.9153 21.2675 12.6914 21.1714 12.4834L21.1714 12.4836Z" fill="#666666" fill-opacity="0.8"/>
</svg>
