<svg width="250" height="181" viewBox="0 0 250 181" fill="none" xmlns="http://www.w3.org/2000/svg">
<path d="M249.677 179.983H0.836914V180.71H249.677V179.983Z" fill="#CCCCCC"/>
<path d="M249.677 144.335H0.836914V145.063H249.677V144.335Z" fill="#CCCCCC"/>
<path d="M249.677 108.688H0.836914V109.415H249.677V108.688Z" fill="#CCCCCC"/>
<path d="M249.677 72.3125H0.836914V73.04H249.677V72.3125Z" fill="#CCCCCC"/>
<path d="M249.677 36.665H0.836914V37.3925H249.677V36.665Z" fill="#CCCCCC"/>
<path d="M249.677 1.0175H0.836914V1.745H249.677V1.0175Z" fill="#CCCCCC"/>
<path d="M249.677 161.795H0.836914V162.523H249.677V161.795Z" fill="#EBEBEB"/>
<path d="M249.677 126.147H0.836914V126.875H249.677V126.147Z" fill="#EBEBEB"/>
<path d="M249.677 90.5H0.836914V91.2275H249.677V90.5Z" fill="#EBEBEB"/>
<path d="M249.677 54.8525H0.836914V55.58H249.677V54.8525Z" fill="#EBEBEB"/>
<path d="M249.677 19.205H0.836914V19.9325H249.677V19.205Z" fill="#EBEBEB"/>
<path d="M249.677 179.983H0.836914V180.71H249.677V179.983Z" fill="#333333"/>
<path d="M21.7881 1.38125C21.7881 1.38125 49.3798 13.3122 63.1757 37.1742C76.9716 61.0362 90.7674 138.588 104.563 144.553C118.359 150.519 132.155 81.9155 145.951 72.9672C159.747 64.019 173.543 96.8293 187.339 90.8638C201.134 84.8983 228.726 37.1742 228.726 37.1742" stroke="#4D9E6F" stroke-width="2"/>
<path d="M21.7881 126.657C21.7881 126.657 49.3798 156.484 63.1757 144.553C76.9716 132.622 90.7674 55.0708 104.563 55.0708C118.359 55.0708 132.155 144.553 145.951 144.553C159.747 144.553 173.543 58.0535 187.339 55.0708C201.134 52.088 228.726 126.657 228.726 126.657" stroke="#67E3FF" stroke-width="2"/>
<path d="M21.7881 90.8637C21.7881 90.8637 49.3798 141.57 63.1757 144.553C76.9716 147.536 90.7674 105.777 104.563 108.76C118.359 111.743 132.155 168.415 145.951 162.45C159.747 156.484 173.543 96.8292 187.339 72.9672C201.134 49.1052 228.726 19.2777 228.726 19.2777" stroke="#8A8A8A" stroke-width="2"/>
</svg>
