<svg width="34" height="34" viewBox="0 0 34 34" fill="none" xmlns="http://www.w3.org/2000/svg">
<path d="M16.9288 25.5C17.4247 25.5 17.844 25.3286 18.1868 24.9857C18.5297 24.6429 18.7006 24.224 18.6997 23.7292C18.6987 23.2343 18.5278 22.8149 18.1868 22.4712C17.8459 22.1274 17.4266 21.9564 16.9288 21.9583C16.4311 21.9602 16.0123 22.1316 15.6723 22.4726C15.3323 22.8135 15.1608 23.2324 15.158 23.7292C15.1552 24.2259 15.3266 24.6453 15.6723 24.9872C16.0179 25.329 16.4368 25.5 16.9288 25.5ZM15.6538 20.0458H18.2747C18.2747 19.2667 18.3635 18.6528 18.541 18.2042C18.7186 17.7555 19.2201 17.1417 20.0455 16.3625C20.6594 15.7486 21.1434 15.164 21.4976 14.6087C21.8518 14.0533 22.0288 13.3865 22.0288 12.6083C22.0288 11.2861 21.5448 10.2708 20.5768 9.56249C19.6087 8.85415 18.4636 8.49999 17.1413 8.49999C15.7955 8.49999 14.7037 8.85415 13.866 9.56249C13.0283 10.2708 12.4437 11.1208 12.1122 12.1125L14.4497 13.0333C14.5677 12.6083 14.8336 12.1479 15.2473 11.6521C15.6609 11.1562 16.2923 10.9083 17.1413 10.9083C17.8969 10.9083 18.4636 11.1152 18.8413 11.5288C19.2191 11.9425 19.408 12.3968 19.408 12.8917C19.408 13.3639 19.2663 13.8068 18.983 14.2205C18.6997 14.6342 18.3455 15.0176 17.9205 15.3708C16.8816 16.2917 16.2441 16.9882 16.008 17.4604C15.7719 17.9326 15.6538 18.7944 15.6538 20.0458ZM16.9997 31.1667C15.04 31.1667 13.1983 30.795 11.4747 30.0517C9.75107 29.3085 8.25176 28.2988 6.97676 27.0229C5.70176 25.747 4.69262 24.2477 3.94934 22.525C3.20607 20.8023 2.83395 18.9607 2.83301 17C2.83207 15.0393 3.20418 13.1977 3.94934 11.475C4.69451 9.75232 5.70365 8.25301 6.97676 6.97707C8.24987 5.70113 9.74918 4.69199 11.4747 3.94965C13.2002 3.20732 15.0418 2.83521 16.9997 2.83332C18.9575 2.83143 20.7992 3.20354 22.5247 3.94965C24.2502 4.69576 25.7495 5.7049 27.0226 6.97707C28.2957 8.24924 29.3053 9.74854 30.0514 11.475C30.7975 13.2014 31.1692 15.0431 31.1663 17C31.1635 18.9569 30.7914 20.7985 30.05 22.525C29.3086 24.2514 28.2995 25.7507 27.0226 27.0229C25.7457 28.2951 24.2464 29.3047 22.5247 30.0517C20.803 30.7988 18.9613 31.1704 16.9997 31.1667ZM16.9997 28.3333C20.1636 28.3333 22.8434 27.2354 25.0393 25.0396C27.2351 22.8437 28.333 20.1639 28.333 17C28.333 13.8361 27.2351 11.1562 25.0393 8.9604C22.8434 6.76457 20.1636 5.66665 16.9997 5.66665C13.8358 5.66665 11.1559 6.76457 8.96009 8.9604C6.76426 11.1562 5.66634 13.8361 5.66634 17C5.66634 20.1639 6.76426 22.8437 8.96009 25.0396C11.1559 27.2354 13.8358 28.3333 16.9997 28.3333Z" fill="#699BF7"/>
</svg>
