<svg width="146" height="146" viewBox="0 0 146 146" fill="none" xmlns="http://www.w3.org/2000/svg">
<path d="M130.581 73.1443C130.581 104.793 104.925 130.45 73.2762 130.45C41.6274 130.45 15.9709 104.793 15.9709 73.1443C15.9709 41.4955 41.6274 15.8391 73.2762 15.8391C104.925 15.8391 130.581 41.4955 130.581 73.1443ZM26.6417 73.1443C26.6417 98.8999 47.5207 119.779 73.2762 119.779C99.0317 119.779 119.911 98.8999 119.911 73.1443C119.911 47.3888 99.0317 26.5098 73.2762 26.5098C47.5207 26.5098 26.6417 47.3888 26.6417 73.1443Z" fill="#EEEEEE"/>
<path d="M68.9557 20.4767C68.7543 18.0214 70.583 15.8494 73.0466 15.8395C81.4409 15.8059 89.7595 17.6171 97.4063 21.1671C106.405 25.3446 114.165 31.7867 119.927 39.863C125.688 47.9394 129.255 57.3732 130.277 67.2414C131.145 75.6272 130.151 84.0825 127.387 92.0089C126.576 94.3352 123.928 95.3576 121.671 94.3682L120.069 93.6656C117.813 92.6761 116.808 90.0498 117.578 87.7095C119.623 81.4878 120.341 74.8881 119.663 68.3406C118.831 60.3099 115.929 52.6327 111.24 46.0603C106.551 39.4879 100.236 34.2453 92.9131 30.8457C86.9425 28.0739 80.4686 26.6046 73.9199 26.5142C71.4566 26.4802 69.3002 24.6755 69.0988 22.2202L68.9557 20.4767Z" fill="#0077FF"/>
</svg>
