<svg width="18" height="18" viewBox="0 0 18 18" fill="none" xmlns="http://www.w3.org/2000/svg">
<g clip-path="url(#clip0_793_2389)">
<path d="M9.962 14.8275C9.626 14.8275 9.34 14.7095 9.104 14.4735C8.868 14.2375 8.75 13.9518 8.75 13.6163V4.3275H8V3.5775H11V3H15.5V3.5775H18.5V4.3275H17.75V13.6163C17.75 13.9613 17.6345 14.2495 17.4035 14.481C17.1725 14.7125 16.884 14.828 16.538 14.8275H9.962ZM17 4.3275H9.5V13.6163C9.5 13.7508 9.54325 13.8613 9.62975 13.9478C9.71625 14.0343 9.827 14.0775 9.962 14.0775H16.5387C16.6538 14.0775 16.7595 14.0295 16.856 13.9335C16.9525 13.8375 17.0005 13.7315 17 13.6155V4.3275ZM11.606 12.5775H12.356V5.8275H11.606V12.5775ZM14.144 12.5775H14.894V5.8275H14.144V12.5775Z" fill="black"/>
</g>
<defs>
<clipPath id="clip0_793_2389">
<rect width="18" height="18" fill="white"/>
</clipPath>
</defs>
</svg>
