<svg width="8" height="9" viewBox="0 0 8 9" fill="none" xmlns="http://www.w3.org/2000/svg">
<g clip-path="url(#clip0_995_5845)">
<path d="M0.792358 2.91328C0.792358 2.70111 0.876644 2.49762 1.02667 2.3476C1.1767 2.19757 1.38019 2.11328 1.59236 2.11328H3.99236C4.20453 2.11328 4.40801 2.19757 4.55804 2.3476C4.70807 2.49762 4.79236 2.70111 4.79236 2.91328V6.11328C4.79236 6.32545 4.70807 6.52894 4.55804 6.67897C4.40801 6.829 4.20453 6.91328 3.99236 6.91328H1.59236C1.38019 6.91328 1.1767 6.829 1.02667 6.67897C0.876644 6.52894 0.792358 6.32545 0.792358 6.11328V2.91328ZM5.81356 3.35568C5.74713 3.38888 5.69125 3.43991 5.65218 3.50307C5.61311 3.56623 5.5924 3.63902 5.59236 3.71328V5.31328C5.5924 5.38755 5.61311 5.46033 5.65218 5.52349C5.69125 5.58665 5.74713 5.63769 5.81356 5.67088L6.61356 6.07088C6.67453 6.10135 6.74227 6.11573 6.81036 6.11266C6.87844 6.1096 6.94462 6.08918 7.0026 6.05336C7.06058 6.01754 7.10845 5.96749 7.14166 5.90797C7.17487 5.84845 7.19232 5.78144 7.19236 5.71328V3.31328C7.19232 3.24512 7.17487 3.17811 7.14166 3.11859C7.10845 3.05907 7.06058 3.00903 7.0026 2.9732C6.94462 2.93738 6.87844 2.91697 6.81036 2.9139C6.74227 2.91083 6.67453 2.92522 6.61356 2.95568L5.81356 3.35568Z" fill="#E0F2FE"/>
</g>
<defs>
<clipPath id="clip0_995_5845">
<rect width="8" height="8" fill="white" transform="translate(-0.00769043 0.513184)"/>
</clipPath>
</defs>
</svg>
