<svg width="9" height="9" viewBox="0 0 9 9" fill="none" xmlns="http://www.w3.org/2000/svg">
<path d="M1.46802 2.52412C1.46802 2.31195 1.5523 2.10846 1.70233 1.95844C1.85236 1.80841 2.05584 1.72412 2.26802 1.72412H4.66802C4.88019 1.72412 5.08367 1.80841 5.2337 1.95844C5.38373 2.10846 5.46802 2.31195 5.46802 2.52412V5.72412C5.46802 5.93629 5.38373 6.13978 5.2337 6.28981C5.08367 6.43984 4.88019 6.52412 4.66802 6.52412H2.26802C2.05584 6.52412 1.85236 6.43984 1.70233 6.28981C1.5523 6.13978 1.46802 5.93629 1.46802 5.72412V2.52412ZM6.48922 2.96652C6.42279 2.99972 6.36691 3.05075 6.32784 3.11391C6.28877 3.17707 6.26806 3.24986 6.26802 3.32412V4.92412C6.26806 4.99839 6.28877 5.07117 6.32784 5.13433C6.36691 5.19749 6.42279 5.24852 6.48922 5.28172L7.28922 5.68172C7.35019 5.71219 7.41793 5.72657 7.48601 5.7235C7.5541 5.72044 7.62028 5.70002 7.67826 5.6642C7.73624 5.62838 7.78411 5.57833 7.81732 5.51881C7.85053 5.45929 7.86798 5.39228 7.86802 5.32412V2.92412C7.86798 2.85596 7.85053 2.78895 7.81732 2.72943C7.78411 2.66991 7.73624 2.61987 7.67826 2.58404C7.62028 2.54822 7.5541 2.52781 7.48601 2.52474C7.41793 2.52167 7.35019 2.53606 7.28922 2.56652L6.48922 2.96652Z" fill="#E0F2FE"/>
</svg>
