<svg width="9" height="9" viewBox="0 0 9 9" fill="none" xmlns="http://www.w3.org/2000/svg">
<g clip-path="url(#clip0_995_6082)">
<path d="M0.848145 2.91328C0.848145 2.70111 0.93243 2.49762 1.08246 2.3476C1.23249 2.19757 1.43597 2.11328 1.64814 2.11328H4.04814C4.26032 2.11328 4.4638 2.19757 4.61383 2.3476C4.76386 2.49762 4.84814 2.70111 4.84814 2.91328V6.11328C4.84814 6.32545 4.76386 6.52894 4.61383 6.67897C4.4638 6.829 4.26032 6.91328 4.04814 6.91328H1.64814C1.43597 6.91328 1.23249 6.829 1.08246 6.67897C0.93243 6.52894 0.848145 6.32545 0.848145 6.11328V2.91328ZM5.86934 3.35568C5.80291 3.38888 5.74703 3.43991 5.70797 3.50307C5.6689 3.56623 5.64818 3.63902 5.64814 3.71328V5.31328C5.64818 5.38755 5.6689 5.46033 5.70797 5.52349C5.74703 5.58665 5.80291 5.63769 5.86934 5.67088L6.66934 6.07088C6.73031 6.10135 6.79805 6.11573 6.86614 6.11266C6.93423 6.1096 7.0004 6.08918 7.05839 6.05336C7.11637 6.01754 7.16424 5.96749 7.19745 5.90797C7.23066 5.84845 7.24811 5.78144 7.24814 5.71328V3.31328C7.24811 3.24512 7.23066 3.17811 7.19745 3.11859C7.16424 3.05907 7.11637 3.00903 7.05839 2.9732C7.0004 2.93738 6.93423 2.91697 6.86614 2.9139C6.79805 2.91083 6.73031 2.92522 6.66934 2.95568L5.86934 3.35568Z" fill="#E0F2FE"/>
</g>
<defs>
<clipPath id="clip0_995_6082">
<rect width="8" height="8" fill="white" transform="translate(0.0480957 0.513184)"/>
</clipPath>
</defs>
</svg>
