<svg width="9" height="9" viewBox="0 0 9 9" fill="none" xmlns="http://www.w3.org/2000/svg">
<g clip-path="url(#clip0_995_4287)">
<path d="M1.75854 3.17012C1.75854 2.95794 1.84283 2.75446 1.99286 2.60443C2.14289 2.4544 2.34637 2.37012 2.55854 2.37012H4.95854C5.17072 2.37012 5.3742 2.4544 5.52423 2.60443C5.67426 2.75446 5.75854 2.95794 5.75854 3.17012V6.37012C5.75854 6.58229 5.67426 6.78577 5.52423 6.9358C5.3742 7.08583 5.17072 7.17012 4.95854 7.17012H2.55854C2.34637 7.17012 2.14289 7.08583 1.99286 6.9358C1.84283 6.78577 1.75854 6.58229 1.75854 6.37012V3.17012ZM6.77974 3.61252C6.71331 3.64571 6.65743 3.69675 6.61837 3.75991C6.5793 3.82307 6.55858 3.89585 6.55854 3.97012V5.57012C6.55858 5.64438 6.5793 5.71717 6.61837 5.78033C6.65743 5.84349 6.71331 5.89452 6.77974 5.92772L7.57974 6.32772C7.64071 6.35818 7.70846 6.37257 7.77654 6.3695C7.84463 6.36643 7.9108 6.34602 7.96879 6.3102C8.02677 6.27437 8.07464 6.22433 8.10785 6.16481C8.14106 6.10529 8.15851 6.03827 8.15854 5.97012V3.57012C8.15851 3.50196 8.14106 3.43494 8.10785 3.37543C8.07464 3.31591 8.02677 3.26586 7.96879 3.23004C7.9108 3.19422 7.84463 3.1738 7.77654 3.17074C7.70846 3.16767 7.64071 3.18205 7.57974 3.21252L6.77974 3.61252Z" fill="white"/>
</g>
<defs>
<clipPath id="clip0_995_4287">
<rect width="8" height="8" fill="white" transform="translate(0.958496 0.77002)"/>
</clipPath>
</defs>
</svg>
