<svg width="9" height="9" viewBox="0 0 9 9" fill="none" xmlns="http://www.w3.org/2000/svg">
<g clip-path="url(#clip0_995_825)">
<path d="M1.73657 2.7187C1.73657 2.50653 1.82086 2.30304 1.97089 2.15302C2.12092 2.00299 2.3244 1.9187 2.53657 1.9187H4.93657C5.14875 1.9187 5.35223 2.00299 5.50226 2.15302C5.65229 2.30304 5.73657 2.50653 5.73657 2.7187V5.9187C5.73657 6.13087 5.65229 6.33436 5.50226 6.48439C5.35223 6.63442 5.14875 6.7187 4.93657 6.7187H2.53657C2.3244 6.7187 2.12092 6.63442 1.97089 6.48439C1.82086 6.33436 1.73657 6.13087 1.73657 5.9187V2.7187ZM6.75777 3.1611C6.69134 3.1943 6.63546 3.24533 6.59639 3.30849C6.55733 3.37165 6.53661 3.44444 6.53657 3.5187V5.1187C6.53661 5.19297 6.55733 5.26575 6.59639 5.32891C6.63546 5.39207 6.69134 5.4431 6.75777 5.4763L7.55777 5.8763C7.61874 5.90677 7.68648 5.92115 7.75457 5.91808C7.82266 5.91502 7.88883 5.8946 7.94681 5.85878C8.0048 5.82296 8.05266 5.77291 8.08587 5.71339C8.11908 5.65387 8.13654 5.58686 8.13657 5.5187V3.1187C8.13654 3.05054 8.11908 2.98353 8.08587 2.92401C8.05266 2.86449 8.0048 2.81445 7.94681 2.77862C7.88883 2.7428 7.82266 2.72239 7.75457 2.71932C7.68648 2.71625 7.61874 2.73064 7.55777 2.7611L6.75777 3.1611Z" fill="#E0F2FE"/>
</g>
<defs>
<clipPath id="clip0_995_825">
<rect width="8" height="8" fill="white" transform="translate(0.936523 0.318604)"/>
</clipPath>
</defs>
</svg>
