<svg width="9" height="9" viewBox="0 0 9 9" fill="none" xmlns="http://www.w3.org/2000/svg">
<g clip-path="url(#clip0_995_5457)">
<path d="M1.63354 2.7187C1.63354 2.50653 1.71783 2.30304 1.86786 2.15302C2.01789 2.00299 2.22137 1.9187 2.43354 1.9187H4.83354C5.04572 1.9187 5.2492 2.00299 5.39923 2.15302C5.54926 2.30304 5.63354 2.50653 5.63354 2.7187V5.9187C5.63354 6.13087 5.54926 6.33436 5.39923 6.48439C5.2492 6.63442 5.04572 6.7187 4.83354 6.7187H2.43354C2.22137 6.7187 2.01789 6.63442 1.86786 6.48439C1.71783 6.33436 1.63354 6.13087 1.63354 5.9187V2.7187ZM6.65474 3.1611C6.58831 3.1943 6.53243 3.24533 6.49337 3.30849C6.4543 3.37165 6.43358 3.44444 6.43354 3.5187V5.1187C6.43358 5.19297 6.4543 5.26575 6.49337 5.32891C6.53243 5.39207 6.58831 5.4431 6.65474 5.4763L7.45474 5.8763C7.51571 5.90677 7.58346 5.92115 7.65154 5.91808C7.71963 5.91502 7.7858 5.8946 7.84379 5.85878C7.90177 5.82296 7.94964 5.77291 7.98285 5.71339C8.01606 5.65387 8.03351 5.58686 8.03354 5.5187V3.1187C8.03351 3.05054 8.01606 2.98353 7.98285 2.92401C7.94964 2.86449 7.90177 2.81445 7.84379 2.77862C7.7858 2.7428 7.71963 2.72239 7.65154 2.71932C7.58346 2.71625 7.51571 2.73064 7.45474 2.7611L6.65474 3.1611Z" fill="#E0F2FE"/>
</g>
<defs>
<clipPath id="clip0_995_5457">
<rect width="8" height="8" fill="white" transform="translate(0.833496 0.318604)"/>
</clipPath>
</defs>
</svg>
