<svg width="9" height="9" viewBox="0 0 9 9" fill="none" xmlns="http://www.w3.org/2000/svg">
<g clip-path="url(#clip0_995_6123)">
<path d="M1.73657 3.36445C1.73657 3.15228 1.82086 2.9488 1.97089 2.79877C2.12092 2.64874 2.3244 2.56445 2.53657 2.56445H4.93657C5.14875 2.56445 5.35223 2.64874 5.50226 2.79877C5.65229 2.9488 5.73657 3.15228 5.73657 3.36445V6.56445C5.73657 6.77663 5.65229 6.98011 5.50226 7.13014C5.35223 7.28017 5.14875 7.36445 4.93657 7.36445H2.53657C2.3244 7.36445 2.12092 7.28017 1.97089 7.13014C1.82086 6.98011 1.73657 6.77663 1.73657 6.56445V3.36445ZM6.75777 3.80685C6.69134 3.84005 6.63546 3.89108 6.59639 3.95424C6.55733 4.0174 6.53661 4.09019 6.53657 4.16445V5.76445C6.53661 5.83872 6.55733 5.91151 6.59639 5.97466C6.63546 6.03782 6.69134 6.08886 6.75777 6.12205L7.55777 6.52205C7.61874 6.55252 7.68648 6.5669 7.75457 6.56383C7.82266 6.56077 7.88883 6.54035 7.94681 6.50453C8.0048 6.46871 8.05266 6.41866 8.08587 6.35914C8.11908 6.29963 8.13654 6.23261 8.13657 6.16445V3.76445C8.13654 3.6963 8.11908 3.62928 8.08587 3.56976C8.05266 3.51024 8.0048 3.4602 7.94681 3.42438C7.88883 3.38855 7.82266 3.36814 7.75457 3.36507C7.68648 3.36201 7.61874 3.37639 7.55777 3.40685L6.75777 3.80685Z" fill="#E0F2FE"/>
</g>
<defs>
<clipPath id="clip0_995_6123">
<rect width="8" height="8" fill="white" transform="translate(0.936523 0.964355)"/>
</clipPath>
</defs>
</svg>
