<svg width="8" height="8" viewBox="0 0 8 8" fill="none" xmlns="http://www.w3.org/2000/svg">
<path d="M0.800049 2.4001C0.800049 2.18792 0.884334 1.98444 1.03436 1.83441C1.18439 1.68438 1.38788 1.6001 1.60005 1.6001H4.00005C4.21222 1.6001 4.4157 1.68438 4.56573 1.83441C4.71576 1.98444 4.80005 2.18792 4.80005 2.4001V5.6001C4.80005 5.81227 4.71576 6.01575 4.56573 6.16578C4.4157 6.31581 4.21222 6.4001 4.00005 6.4001H1.60005C1.38788 6.4001 1.18439 6.31581 1.03436 6.16578C0.884334 6.01575 0.800049 5.81227 0.800049 5.6001V2.4001ZM5.82125 2.8425C5.75482 2.87569 5.69894 2.92673 5.65987 2.98989C5.6208 3.05305 5.60009 3.12583 5.60005 3.2001V4.8001C5.60009 4.87436 5.6208 4.94715 5.65987 5.01031C5.69894 5.07347 5.75482 5.1245 5.82125 5.1577L6.62125 5.5577C6.68222 5.58816 6.74996 5.60255 6.81805 5.59948C6.88613 5.59641 6.95231 5.576 7.01029 5.54018C7.06827 5.50435 7.11614 5.45431 7.14935 5.39479C7.18256 5.33527 7.20001 5.26825 7.20005 5.2001V2.8001C7.20001 2.73194 7.18256 2.66492 7.14935 2.60541C7.11614 2.54589 7.06827 2.49584 7.01029 2.46002C6.95231 2.4242 6.88613 2.40378 6.81805 2.40072C6.74996 2.39765 6.68222 2.41203 6.62125 2.4425L5.82125 2.8425Z" fill="#E0F2FE"/>
</svg>
