<svg width="9" height="9" viewBox="0 0 9 9" fill="none" xmlns="http://www.w3.org/2000/svg">
<g clip-path="url(#clip0_995_4508)">
<path d="M1.63354 3.36445C1.63354 3.15228 1.71783 2.9488 1.86786 2.79877C2.01789 2.64874 2.22137 2.56445 2.43354 2.56445H4.83354C5.04572 2.56445 5.2492 2.64874 5.39923 2.79877C5.54926 2.9488 5.63354 3.15228 5.63354 3.36445V6.56445C5.63354 6.77663 5.54926 6.98011 5.39923 7.13014C5.2492 7.28017 5.04572 7.36445 4.83354 7.36445H2.43354C2.22137 7.36445 2.01789 7.28017 1.86786 7.13014C1.71783 6.98011 1.63354 6.77663 1.63354 6.56445V3.36445ZM6.65474 3.80685C6.58831 3.84005 6.53243 3.89108 6.49337 3.95424C6.4543 4.0174 6.43358 4.09019 6.43354 4.16445V5.76445C6.43358 5.83872 6.4543 5.91151 6.49337 5.97466C6.53243 6.03782 6.58831 6.08886 6.65474 6.12205L7.45474 6.52205C7.51571 6.55252 7.58346 6.5669 7.65154 6.56383C7.71963 6.56077 7.7858 6.54035 7.84379 6.50453C7.90177 6.46871 7.94964 6.41866 7.98285 6.35914C8.01606 6.29963 8.03351 6.23261 8.03354 6.16445V3.76445C8.03351 3.6963 8.01606 3.62928 7.98285 3.56976C7.94964 3.51024 7.90177 3.4602 7.84379 3.42438C7.7858 3.38855 7.71963 3.36814 7.65154 3.36507C7.58346 3.36201 7.51571 3.37639 7.45474 3.40685L6.65474 3.80685Z" fill="#EDE9FE"/>
</g>
<defs>
<clipPath id="clip0_995_4508">
<rect width="8" height="8" fill="white" transform="translate(0.833496 0.964355)"/>
</clipPath>
</defs>
</svg>
