<svg width="34" height="34" viewBox="0 0 34 34" fill="none" xmlns="http://www.w3.org/2000/svg">
<path d="M16.9293 25.4999C17.4252 25.4999 17.8445 25.3285 18.1873 24.9857C18.5302 24.6428 18.7011 24.224 18.7002 23.7291C18.6992 23.2342 18.5283 22.8149 18.1873 22.4711C17.8464 22.1273 17.4271 21.9564 16.9293 21.9583C16.4316 21.9601 16.0127 22.1316 15.6727 22.4725C15.3327 22.8135 15.1613 23.2323 15.1585 23.7291C15.1557 24.2259 15.3271 24.6452 15.6727 24.9871C16.0184 25.329 16.4373 25.4999 16.9293 25.4999ZM15.6543 20.0458H18.2752C18.2752 19.2666 18.3639 18.6527 18.5415 18.2041C18.7191 17.7555 19.2206 17.1416 20.046 16.3624C20.6599 15.7485 21.1439 15.1639 21.4981 14.6086C21.8522 14.0533 22.0293 13.3865 22.0293 12.6083C22.0293 11.286 21.5453 10.2708 20.5772 9.56243C19.6092 8.85409 18.4641 8.49993 17.1418 8.49993C15.796 8.49993 14.7042 8.85409 13.8665 9.56243C13.0288 10.2708 12.4442 11.1208 12.1127 12.1124L14.4502 13.0333C14.5682 12.6083 14.8341 12.1478 15.2477 11.652C15.6614 11.1562 16.2928 10.9083 17.1418 10.9083C17.8974 10.9083 18.4641 11.1151 18.8418 11.5288C19.2196 11.9424 19.4085 12.3967 19.4085 12.8916C19.4085 13.3638 19.2668 13.8068 18.9835 14.2204C18.7002 14.6341 18.346 15.0175 17.921 15.3708C16.8821 16.2916 16.2446 16.9881 16.0085 17.4603C15.7724 17.9326 15.6543 18.7944 15.6543 20.0458ZM17.0002 31.1666C15.0404 31.1666 13.1988 30.795 11.4752 30.0517C9.75155 29.3084 8.25225 28.2988 6.97725 27.0228C5.70225 25.7469 4.69311 24.2476 3.94983 22.5249C3.20655 20.8023 2.83444 18.9606 2.8335 16.9999C2.83255 15.0393 3.20466 13.1976 3.94983 11.4749C4.695 9.75226 5.70414 8.25295 6.97725 6.97701C8.25036 5.70106 9.74967 4.69193 11.4752 3.94959C13.2007 3.20726 15.0423 2.83515 17.0002 2.83326C18.958 2.83137 20.7997 3.20348 22.5252 3.94959C24.2507 4.6957 25.75 5.70484 27.0231 6.97701C28.2962 8.24918 29.3058 9.74848 30.0519 11.4749C30.798 13.2014 31.1697 15.043 31.1668 16.9999C31.164 18.9568 30.7919 20.7985 30.0505 22.5249C29.3091 24.2514 28.3 25.7507 27.0231 27.0228C25.7462 28.295 24.2469 29.3046 22.5252 30.0517C20.8034 30.7987 18.9618 31.1704 17.0002 31.1666ZM17.0002 28.3333C20.1641 28.3333 22.8439 27.2353 25.0397 25.0395C27.2356 22.8437 28.3335 20.1638 28.3335 16.9999C28.3335 13.836 27.2356 11.1562 25.0397 8.96034C22.8439 6.76451 20.1641 5.66659 17.0002 5.66659C13.8363 5.66659 11.1564 6.76451 8.96058 8.96034C6.76475 11.1562 5.66683 13.836 5.66683 16.9999C5.66683 20.1638 6.76475 22.8437 8.96058 25.0395C11.1564 27.2353 13.8363 28.3333 17.0002 28.3333Z" fill="#699BF7"/>
</svg>
