<svg width="24" height="28" viewBox="0 0 24 28" fill="none" xmlns="http://www.w3.org/2000/svg">
<path fill-rule="evenodd" clip-rule="evenodd" d="M9.50323 24.8874C10.1753 25.639 11.0382 26.0519 11.9335 26.0519H11.9348C12.8339 26.0519 13.7007 25.639 14.3741 24.8861C14.7348 24.4862 15.3498 24.4536 15.7481 24.8144C16.1478 25.1752 16.1802 25.794 15.8208 26.1939C14.7724 27.3623 13.3931 28.0058 11.9348 28.0058H11.9322C10.4777 28.0045 9.101 27.361 8.05651 26.1926C7.6971 25.7927 7.72954 25.1739 8.12917 24.8144C8.5288 24.4523 9.14382 24.4849 9.50323 24.8874ZM11.9981 0C17.7655 0 21.6398 4.50958 21.6398 8.72087C21.6398 10.8871 22.1887 11.8054 22.7713 12.7797C23.3474 13.7411 24 14.8326 24 16.8959C23.5472 22.1675 18.0652 22.5974 11.9981 22.5974C5.93093 22.5974 0.447674 22.1675 1.71742e-05 16.9793C-0.00385802 14.8326 0.648787 13.7411 1.22488 12.7797L1.42826 12.4361C1.929 11.5721 2.3563 10.6322 2.3563 8.72087C2.3563 4.50958 6.23066 0 11.9981 0ZM11.9981 1.95389C7.46329 1.95389 4.30256 5.52039 4.30256 8.72087C4.30256 11.429 3.5539 12.6808 2.89217 13.7854C2.36149 14.6724 1.9424 15.3732 1.9424 16.8959C2.15908 19.3526 3.77448 20.6435 11.9981 20.6435C20.1762 20.6435 21.8422 19.2953 22.0576 16.8113C22.0537 15.3732 21.6346 14.6724 21.104 13.7854C20.4422 12.6808 19.6936 11.429 19.6936 8.72087C19.6936 5.52039 16.5329 1.95389 11.9981 1.95389Z" fill="#0077FF"/>
</svg>
