<svg width="22" height="24" viewBox="0 0 22 24" fill="none" xmlns="http://www.w3.org/2000/svg">
<path fill-rule="evenodd" clip-rule="evenodd" d="M15.5016 0.323715C19.2097 0.323715 21.7005 2.86295 21.7005 6.64172V17.4874C21.7005 21.2992 19.2863 23.7783 15.55 23.8019L6.47693 23.8054C2.76891 23.8054 0.276855 21.2662 0.276855 17.4874V6.64172C0.276855 2.82875 2.69107 0.350841 6.42739 0.328433L15.5005 0.323715H15.5016ZM15.5016 2.0928L6.43329 2.09752C3.68766 2.11403 2.04595 3.81236 2.04595 6.64172V17.4874C2.04595 20.3357 3.70299 22.0363 6.47575 22.0363L15.5441 22.0328C18.2897 22.0163 19.9314 20.3156 19.9314 17.4874V6.64172C19.9314 3.79349 18.2756 2.0928 15.5016 2.0928ZM15.2741 16.2145C15.7624 16.2145 16.1587 16.6108 16.1587 17.099C16.1587 17.5873 15.7624 17.9836 15.2741 17.9836H6.75892C6.27065 17.9836 5.87437 17.5873 5.87437 17.099C5.87437 16.6108 6.27065 16.2145 6.75892 16.2145H15.2741ZM15.2741 11.277C15.7624 11.277 16.1587 11.6733 16.1587 12.1615C16.1587 12.6498 15.7624 13.0461 15.2741 13.0461H6.75892C6.27065 13.0461 5.87437 12.6498 5.87437 12.1615C5.87437 11.6733 6.27065 11.277 6.75892 11.277H15.2741ZM10.0078 6.35089C10.4961 6.35089 10.8923 6.74716 10.8923 7.23543C10.8923 7.7237 10.4961 8.11998 10.0078 8.11998H6.75856C6.2703 8.11998 5.87402 7.7237 5.87402 7.23543C5.87402 6.74716 6.2703 6.35089 6.75856 6.35089H10.0078Z" fill="#0077FF"/>
</svg>
