<svg width="22" height="22" viewBox="0 0 22 22" fill="none" xmlns="http://www.w3.org/2000/svg">
<path fill-rule="evenodd" clip-rule="evenodd" d="M15.3782 0.482899C17.1045 0.482899 18.5935 1.05939 19.6831 2.15118C20.8222 3.29129 21.447 4.94991 21.4448 6.82217L21.4464 14.3331C21.4483 14.362 21.4486 14.391 21.4474 14.4199L21.4448 15.5662C21.4448 19.3568 19.0046 21.9044 15.3729 21.9044H6.091C2.46243 21.9044 0.0244141 19.3568 0.0244141 15.5662V6.82109C0.0244141 3.03041 2.46243 0.482899 6.091 0.482899H15.3782ZM15.6752 12.1118C15.0439 12.1118 14.3032 13.1564 13.6472 14.0786C12.7476 15.3453 11.8168 16.6561 10.4148 16.6561C9.46686 16.6561 8.59837 16.2911 7.83293 15.968C6.61554 15.4548 6.06373 15.2906 5.52374 15.735C4.44279 16.6258 3.37471 18.2478 2.88393 19.046C3.65854 19.8446 4.75891 20.2941 6.091 20.2941H15.3729C18.0835 20.2941 19.8345 18.439 19.8345 15.5662L19.8345 14.7084L19.8097 14.6823C18.8699 13.7141 17.2471 12.1118 15.6752 12.1118ZM15.3782 2.09321H6.091C3.3846 2.09321 1.63473 3.94937 1.63473 6.82109V15.5662C1.63473 16.2839 1.74396 16.9382 1.95005 17.5158C2.5713 16.5778 3.50955 15.3079 4.50066 14.4919C5.84473 13.3861 7.29187 13.9938 8.45773 14.4844C9.14373 14.7731 9.79215 15.0458 10.4148 15.0458C10.9859 15.0458 11.702 14.0367 12.3354 13.1467C13.2146 11.9057 14.213 10.5015 15.6752 10.5015C17.2798 10.5015 18.7332 11.4876 19.8356 12.4663L19.8345 6.82109C19.8366 5.35785 19.39 4.13616 18.5441 3.28914C17.7626 2.50653 16.6686 2.09321 15.3782 2.09321ZM7.38569 4.9805C8.92193 4.98158 10.1715 6.23118 10.1726 7.76635V7.76742C10.1726 9.30366 8.92301 10.5533 7.38569 10.5533C5.84838 10.5533 4.59878 9.30366 4.59878 7.76742C4.59878 6.23011 5.84838 4.9805 7.38569 4.9805ZM7.38462 6.59082C6.7362 6.59082 6.20909 7.11793 6.20909 7.76742C6.20909 8.41584 6.7362 8.94295 7.38569 8.94295C8.03411 8.94295 8.5623 8.41584 8.5623 7.76849C8.56122 7.119 8.03304 6.59189 7.38462 6.59082Z" fill="#0077FF"/>
</svg>
