<svg width="23" height="22" viewBox="0 0 23 22" fill="none" xmlns="http://www.w3.org/2000/svg">
<path fill-rule="evenodd" clip-rule="evenodd" d="M16.3011 0.483032C18.0273 0.483032 19.5163 1.05952 20.606 2.15132C21.745 3.29142 22.3698 4.95004 22.3677 6.8223L22.3692 14.3332C22.3711 14.3621 22.3714 14.3911 22.3702 14.42L22.3677 15.5663C22.3677 19.357 19.9275 21.9045 16.2957 21.9045H7.01385C3.38528 21.9045 0.947266 19.357 0.947266 15.5663V6.82123C0.947266 3.03055 3.38528 0.483032 7.01385 0.483032H16.3011ZM16.598 12.112C15.9668 12.112 15.226 13.1565 14.5701 14.0787C13.6705 15.3455 12.7397 16.6563 11.3377 16.6563C10.3897 16.6563 9.52122 16.2913 8.75578 15.9681C7.53839 15.455 6.98659 15.2907 6.44659 15.7352C5.36564 16.6259 4.29756 18.248 3.80678 19.0461C4.5814 19.8448 5.68176 20.2942 7.01385 20.2942H16.2957C19.0064 20.2942 20.7574 18.4391 20.7574 15.5663L20.7573 14.7085L20.7326 14.6825C19.7928 13.7142 18.17 12.112 16.598 12.112ZM16.3011 2.09335H7.01385C4.30745 2.09335 2.55758 3.9495 2.55758 6.82123V15.5663C2.55758 16.2841 2.66681 16.9383 2.8729 17.5159C3.49415 16.5779 4.4324 15.308 5.42351 14.492C6.76758 13.3863 8.21472 13.9939 9.38059 14.4845C10.0666 14.7733 10.715 15.046 11.3377 15.046C11.9088 15.046 12.6248 14.0368 13.2582 13.1469C14.1375 11.9058 15.1358 10.5017 16.598 10.5017C18.2027 10.5017 19.656 11.4878 20.7585 12.4664L20.7574 6.82123C20.7595 5.35799 20.3129 4.1363 19.4669 3.28927C18.6854 2.50666 17.5915 2.09335 16.3011 2.09335ZM8.30855 4.98064C9.84479 4.98171 11.0944 6.23132 11.0955 7.76648V7.76755C11.0955 9.30379 9.84586 10.5534 8.30855 10.5534C6.77123 10.5534 5.52163 9.30379 5.52163 7.76755C5.52163 6.23024 6.77123 4.98064 8.30855 4.98064ZM8.30747 6.59095C7.65905 6.59095 7.13194 7.11806 7.13194 7.76755C7.13194 8.41597 7.65905 8.94308 8.30855 8.94308C8.95697 8.94308 9.48515 8.41597 9.48515 7.76863C9.48408 7.11913 8.95589 6.59203 8.30747 6.59095Z" fill="#0077FF"/>
</svg>
