<svg width="22" height="22" viewBox="0 0 22 22" fill="none" xmlns="http://www.w3.org/2000/svg">
<path fill-rule="evenodd" clip-rule="evenodd" d="M15.6868 0.48291C17.4131 0.48291 18.9021 1.0594 19.9917 2.1512C21.1307 3.2913 21.7555 4.94992 21.7534 6.82218L21.755 14.3331C21.7569 14.362 21.7572 14.391 21.756 14.4199L21.7534 15.5662C21.7534 19.3569 19.3132 21.9044 15.6814 21.9044H6.3996C2.77102 21.9044 0.333008 19.3569 0.333008 15.5662V6.8211C0.333008 3.03043 2.77102 0.48291 6.3996 0.48291H15.6868ZM15.9838 12.1118C15.3525 12.1118 14.6118 13.1564 13.9558 14.0786C13.0562 15.3454 12.1254 16.6561 10.7234 16.6561C9.77546 16.6561 8.90696 16.2911 8.14153 15.968C6.92413 15.4549 6.37233 15.2906 5.83234 15.7351C4.75138 16.6258 3.6833 18.2478 3.19252 19.046C3.96714 19.8446 5.0675 20.2941 6.3996 20.2941H15.6814C18.3921 20.2941 20.1431 18.439 20.1431 15.5662L20.1431 14.7084L20.1183 14.6823C19.1785 13.7141 17.5557 12.1118 15.9838 12.1118ZM15.6868 2.09322H6.3996C3.6932 2.09322 1.94332 3.94938 1.94332 6.8211V15.5662C1.94332 16.2839 2.05255 16.9382 2.25864 17.5158C2.87989 16.5778 3.81815 15.3079 4.80925 14.4919C6.15333 13.3861 7.60046 13.9938 8.76633 14.4844C9.45232 14.7732 10.1007 15.0458 10.7234 15.0458C11.2945 15.0458 12.0106 14.0367 12.644 13.1467C13.5232 11.9057 14.5216 10.5015 15.9838 10.5015C17.5884 10.5015 19.0418 11.4876 20.1442 12.4663L20.1431 6.8211C20.1452 5.35787 19.6986 4.13618 18.8527 3.28915C18.0711 2.50654 16.9772 2.09322 15.6868 2.09322ZM7.69429 4.98052C9.23053 4.98159 10.4801 6.23119 10.4812 7.76636V7.76743C10.4812 9.30367 9.2316 10.5533 7.69429 10.5533C6.15698 10.5533 4.90737 9.30367 4.90737 7.76743C4.90737 6.23012 6.15698 4.98052 7.69429 4.98052ZM7.69321 6.59083C7.0448 6.59083 6.51769 7.11794 6.51769 7.76743C6.51769 8.41585 7.0448 8.94296 7.69429 8.94296C8.34271 8.94296 8.87089 8.41585 8.87089 7.76851C8.86982 7.11901 8.34163 6.5919 7.69321 6.59083Z" fill="#0077FF"/>
</svg>
