<svg width="22" height="24" viewBox="0 0 22 24" fill="none" xmlns="http://www.w3.org/2000/svg">
<path fill-rule="evenodd" clip-rule="evenodd" d="M15.5016 0.323669C19.2097 0.323669 21.7005 2.8629 21.7005 6.64168V17.4874C21.7005 21.2992 19.2863 23.7783 15.55 23.8018L6.47693 23.8054C2.76891 23.8054 0.276855 21.2662 0.276855 17.4874V6.64168C0.276855 2.8287 2.69107 0.350795 6.42739 0.328387L15.5005 0.323669H15.5016ZM15.5016 2.09276L6.43329 2.09748C3.68766 2.11399 2.04595 3.81231 2.04595 6.64168V17.4874C2.04595 20.3356 3.70299 22.0363 6.47575 22.0363L15.5441 22.0328C18.2897 22.0162 19.9314 20.3156 19.9314 17.4874V6.64168C19.9314 3.79344 18.2756 2.09276 15.5016 2.09276ZM15.2741 16.2145C15.7624 16.2145 16.1587 16.6107 16.1587 17.099C16.1587 17.5873 15.7624 17.9835 15.2741 17.9835H6.75892C6.27065 17.9835 5.87437 17.5873 5.87437 17.099C5.87437 16.6107 6.27065 16.2145 6.75892 16.2145H15.2741ZM15.2741 11.2769C15.7624 11.2769 16.1587 11.6732 16.1587 12.1615C16.1587 12.6497 15.7624 13.046 15.2741 13.046H6.75892C6.27065 13.046 5.87437 12.6497 5.87437 12.1615C5.87437 11.6732 6.27065 11.2769 6.75892 11.2769H15.2741ZM10.0078 6.35084C10.4961 6.35084 10.8923 6.74712 10.8923 7.23538C10.8923 7.72365 10.4961 8.11993 10.0078 8.11993H6.75856C6.2703 8.11993 5.87402 7.72365 5.87402 7.23538C5.87402 6.74712 6.2703 6.35084 6.75856 6.35084H10.0078Z" fill="#0077FF"/>
</svg>
