<svg width="22" height="22" viewBox="0 0 22 22" fill="none" xmlns="http://www.w3.org/2000/svg">
<path fill-rule="evenodd" clip-rule="evenodd" d="M15.3782 0.483032C17.1045 0.483032 18.5935 1.05952 19.6831 2.15132C20.8222 3.29142 21.447 4.95004 21.4448 6.8223L21.4464 14.3332C21.4483 14.3621 21.4486 14.3911 21.4474 14.42L21.4448 15.5663C21.4448 19.357 19.0046 21.9045 15.3729 21.9045H6.091C2.46243 21.9045 0.0244141 19.357 0.0244141 15.5663V6.82123C0.0244141 3.03055 2.46243 0.483032 6.091 0.483032H15.3782ZM15.6752 12.112C15.0439 12.112 14.3032 13.1565 13.6472 14.0787C12.7476 15.3455 11.8168 16.6563 10.4148 16.6563C9.46686 16.6563 8.59837 16.2913 7.83293 15.9681C6.61554 15.455 6.06373 15.2907 5.52374 15.7352C4.44279 16.6259 3.37471 18.248 2.88393 19.0461C3.65854 19.8448 4.75891 20.2942 6.091 20.2942H15.3729C18.0835 20.2942 19.8345 18.4391 19.8345 15.5663L19.8345 14.7085L19.8097 14.6825C18.8699 13.7142 17.2471 12.112 15.6752 12.112ZM15.3782 2.09335H6.091C3.3846 2.09335 1.63473 3.9495 1.63473 6.82123V15.5663C1.63473 16.2841 1.74396 16.9383 1.95005 17.5159C2.5713 16.5779 3.50955 15.308 4.50066 14.492C5.84473 13.3863 7.29187 13.9939 8.45773 14.4845C9.14373 14.7733 9.79215 15.046 10.4148 15.046C10.9859 15.046 11.702 14.0368 12.3354 13.1469C13.2146 11.9058 14.213 10.5017 15.6752 10.5017C17.2798 10.5017 18.7332 11.4878 19.8356 12.4664L19.8345 6.82123C19.8366 5.35799 19.39 4.1363 18.5441 3.28927C17.7626 2.50666 16.6686 2.09335 15.3782 2.09335ZM7.38569 4.98064C8.92193 4.98171 10.1715 6.23132 10.1726 7.76648V7.76755C10.1726 9.30379 8.92301 10.5534 7.38569 10.5534C5.84838 10.5534 4.59878 9.30379 4.59878 7.76755C4.59878 6.23024 5.84838 4.98064 7.38569 4.98064ZM7.38462 6.59095C6.7362 6.59095 6.20909 7.11806 6.20909 7.76755C6.20909 8.41597 6.7362 8.94308 7.38569 8.94308C8.03411 8.94308 8.5623 8.41597 8.5623 7.76863C8.56122 7.11913 8.03304 6.59203 7.38462 6.59095Z" fill="#0077FF"/>
</svg>
