<svg width="34" height="34" viewBox="0 0 34 34" fill="none" xmlns="http://www.w3.org/2000/svg">
<path d="M16.9293 25.5C17.4252 25.5 17.8445 25.3286 18.1873 24.9857C18.5302 24.6429 18.7011 24.224 18.7002 23.7292C18.6992 23.2343 18.5283 22.8149 18.1873 22.4712C17.8464 22.1274 17.4271 21.9564 16.9293 21.9583C16.4316 21.9602 16.0127 22.1316 15.6727 22.4726C15.3327 22.8135 15.1613 23.2324 15.1585 23.7292C15.1557 24.2259 15.3271 24.6453 15.6727 24.9872C16.0184 25.329 16.4373 25.5 16.9293 25.5ZM15.6543 20.0458H18.2752C18.2752 19.2667 18.3639 18.6528 18.5415 18.2042C18.7191 17.7555 19.2206 17.1417 20.046 16.3625C20.6599 15.7486 21.1439 15.164 21.4981 14.6087C21.8522 14.0533 22.0293 13.3865 22.0293 12.6083C22.0293 11.2861 21.5453 10.2708 20.5772 9.56249C19.6092 8.85415 18.4641 8.49999 17.1418 8.49999C15.796 8.49999 14.7042 8.85415 13.8665 9.56249C13.0288 10.2708 12.4442 11.1208 12.1127 12.1125L14.4502 13.0333C14.5682 12.6083 14.8341 12.1479 15.2477 11.6521C15.6614 11.1562 16.2928 10.9083 17.1418 10.9083C17.8974 10.9083 18.4641 11.1152 18.8418 11.5288C19.2196 11.9425 19.4085 12.3968 19.4085 12.8917C19.4085 13.3639 19.2668 13.8068 18.9835 14.2205C18.7002 14.6342 18.346 15.0176 17.921 15.3708C16.8821 16.2917 16.2446 16.9882 16.0085 17.4604C15.7724 17.9326 15.6543 18.7944 15.6543 20.0458ZM17.0002 31.1667C15.0404 31.1667 13.1988 30.795 11.4752 30.0517C9.75155 29.3085 8.25225 28.2988 6.97725 27.0229C5.70225 25.747 4.69311 24.2477 3.94983 22.525C3.20655 20.8023 2.83444 18.9607 2.8335 17C2.83255 15.0393 3.20466 13.1977 3.94983 11.475C4.695 9.75232 5.70414 8.25301 6.97725 6.97707C8.25036 5.70113 9.74967 4.69199 11.4752 3.94965C13.2007 3.20732 15.0423 2.83521 17.0002 2.83332C18.958 2.83143 20.7997 3.20354 22.5252 3.94965C24.2507 4.69576 25.75 5.7049 27.0231 6.97707C28.2962 8.24924 29.3058 9.74854 30.0519 11.475C30.798 13.2014 31.1697 15.0431 31.1668 17C31.164 18.9569 30.7919 20.7985 30.0505 22.525C29.3091 24.2514 28.3 25.7507 27.0231 27.0229C25.7462 28.2951 24.2469 29.3047 22.5252 30.0517C20.8034 30.7988 18.9618 31.1704 17.0002 31.1667ZM17.0002 28.3333C20.1641 28.3333 22.8439 27.2354 25.0397 25.0396C27.2356 22.8437 28.3335 20.1639 28.3335 17C28.3335 13.8361 27.2356 11.1562 25.0397 8.9604C22.8439 6.76457 20.1641 5.66665 17.0002 5.66665C13.8363 5.66665 11.1564 6.76457 8.96058 8.9604C6.76475 11.1562 5.66683 13.8361 5.66683 17C5.66683 20.1639 6.76475 22.8437 8.96058 25.0396C11.1564 27.2354 13.8363 28.3333 17.0002 28.3333Z" fill="#699BF7"/>
</svg>
