<svg width="23" height="22" viewBox="0 0 23 22" fill="none" xmlns="http://www.w3.org/2000/svg">
<path fill-rule="evenodd" clip-rule="evenodd" d="M16.3011 0.482899C18.0273 0.482899 19.5163 1.05939 20.606 2.15118C21.745 3.29129 22.3698 4.94991 22.3677 6.82217L22.3692 14.3331C22.3711 14.362 22.3714 14.391 22.3702 14.4199L22.3677 15.5662C22.3677 19.3568 19.9275 21.9044 16.2957 21.9044H7.01385C3.38528 21.9044 0.947266 19.3568 0.947266 15.5662V6.82109C0.947266 3.03041 3.38528 0.482899 7.01385 0.482899H16.3011ZM16.598 12.1118C15.9668 12.1118 15.226 13.1564 14.5701 14.0786C13.6705 15.3453 12.7397 16.6561 11.3377 16.6561C10.3897 16.6561 9.52122 16.2911 8.75578 15.968C7.53839 15.4548 6.98659 15.2906 6.44659 15.735C5.36564 16.6258 4.29756 18.2478 3.80678 19.046C4.5814 19.8446 5.68176 20.2941 7.01385 20.2941H16.2957C19.0064 20.2941 20.7574 18.439 20.7574 15.5662L20.7573 14.7084L20.7326 14.6823C19.7928 13.7141 18.17 12.1118 16.598 12.1118ZM16.3011 2.09321H7.01385C4.30745 2.09321 2.55758 3.94937 2.55758 6.82109V15.5662C2.55758 16.2839 2.66681 16.9382 2.8729 17.5158C3.49415 16.5778 4.4324 15.3079 5.42351 14.4919C6.76758 13.3861 8.21472 13.9938 9.38059 14.4844C10.0666 14.7731 10.715 15.0458 11.3377 15.0458C11.9088 15.0458 12.6248 14.0367 13.2582 13.1467C14.1375 11.9057 15.1358 10.5015 16.598 10.5015C18.2027 10.5015 19.656 11.4876 20.7585 12.4663L20.7574 6.82109C20.7595 5.35785 20.3129 4.13616 19.4669 3.28914C18.6854 2.50653 17.5915 2.09321 16.3011 2.09321ZM8.30855 4.9805C9.84479 4.98158 11.0944 6.23118 11.0955 7.76635V7.76742C11.0955 9.30366 9.84586 10.5533 8.30855 10.5533C6.77123 10.5533 5.52163 9.30366 5.52163 7.76742C5.52163 6.23011 6.77123 4.9805 8.30855 4.9805ZM8.30747 6.59082C7.65905 6.59082 7.13194 7.11793 7.13194 7.76742C7.13194 8.41584 7.65905 8.94295 8.30855 8.94295C8.95697 8.94295 9.48515 8.41584 9.48515 7.76849C9.48408 7.119 8.95589 6.59189 8.30747 6.59082Z" fill="#0077FF"/>
</svg>
