<svg width="22" height="22" viewBox="0 0 22 22" fill="none" xmlns="http://www.w3.org/2000/svg">
<path fill-rule="evenodd" clip-rule="evenodd" d="M15.6868 0.482826C17.4131 0.482826 18.9021 1.05932 19.9917 2.15111C21.1307 3.29121 21.7555 4.94984 21.7534 6.82209L21.755 14.333C21.7569 14.3619 21.7572 14.3909 21.756 14.4198L21.7534 15.5661C21.7534 19.3568 19.3132 21.9043 15.6814 21.9043H6.3996C2.77102 21.9043 0.333008 19.3568 0.333008 15.5661V6.82102C0.333008 3.03034 2.77102 0.482826 6.3996 0.482826H15.6868ZM15.9838 12.1118C15.3525 12.1118 14.6118 13.1563 13.9558 14.0785C13.0562 15.3453 12.1254 16.6561 10.7234 16.6561C9.77546 16.6561 8.90696 16.2911 8.14153 15.9679C6.92413 15.4548 6.37233 15.2905 5.83234 15.735C4.75138 16.6257 3.6833 18.2477 3.19252 19.0459C3.96714 19.8446 5.0675 20.294 6.3996 20.294H15.6814C18.3921 20.294 20.1431 18.4389 20.1431 15.5661L20.1431 14.7083L20.1183 14.6822C19.1785 13.714 17.5557 12.1118 15.9838 12.1118ZM15.6868 2.09314H6.3996C3.6932 2.09314 1.94332 3.94929 1.94332 6.82102V15.5661C1.94332 16.2839 2.05255 16.9381 2.25864 17.5157C2.87989 16.5777 3.81815 15.3078 4.80925 14.4918C6.15333 13.3861 7.60046 13.9937 8.76633 14.4843C9.45232 14.7731 10.1007 15.0458 10.7234 15.0458C11.2945 15.0458 12.0106 14.0366 12.644 13.1467C13.5232 11.9056 14.5216 10.5014 15.9838 10.5014C17.5884 10.5014 19.0418 11.4876 20.1442 12.4662L20.1431 6.82102C20.1452 5.35778 19.6986 4.13609 18.8527 3.28907C18.0711 2.50645 16.9772 2.09314 15.6868 2.09314ZM7.69429 4.98043C9.23053 4.98151 10.4801 6.23111 10.4812 7.76628V7.76735C10.4812 9.30359 9.2316 10.5532 7.69429 10.5532C6.15698 10.5532 4.90737 9.30359 4.90737 7.76735C4.90737 6.23004 6.15698 4.98043 7.69429 4.98043ZM7.69321 6.59075C7.0448 6.59075 6.51769 7.11786 6.51769 7.76735C6.51769 8.41577 7.0448 8.94288 7.69429 8.94288C8.34271 8.94288 8.87089 8.41577 8.87089 7.76842C8.86982 7.11893 8.34163 6.59182 7.69321 6.59075Z" fill="#0077FF"/>
</svg>
